<svg id="グループ_261" data-name="グループ 261" xmlns="http://www.w3.org/2000/svg" width="24.158" height="24.215" viewBox="0 0 24.158 24.215">
  <path id="パス_406" data-name="パス 406" d="M3.181,0h17.8a3.186,3.186,0,0,1,3.181,3.188v17.84a3.186,3.186,0,0,1-3.18,3.187H3.18A3.186,3.186,0,0,1,0,21.027V3.18A3.18,3.18,0,0,1,3.181,0Z" fill="#5468ff"/>
  <path id="パス_407" data-name="パス 407" d="M12.16,6.593a6.823,6.823,0,1,0,4.831,2,6.834,6.834,0,0,0-4.831-2Zm0,11.663a4.818,4.818,0,1,1,4.808-4.818A4.816,4.816,0,0,1,12.16,18.256Zm0-8.652v3.591a.14.14,0,0,0,.206.125l3.181-1.652a.146.146,0,0,0,.059-.2,3.957,3.957,0,0,0-3.3-2,.146.146,0,0,0-.147.14ZM7.706,6.967l-.418-.418a1.043,1.043,0,0,0-1.48,0l-.5.5a1.048,1.048,0,0,0,0,1.484l.411.41a.147.147,0,0,0,.22-.014,8.08,8.08,0,0,1,.8-.94,7.5,7.5,0,0,1,.945-.808.14.14,0,0,0,.022-.213ZM14.4,5.88V5.05A1.049,1.049,0,0,0,13.349,4h-2.44A1.049,1.049,0,0,0,9.86,5.05V5.9a.146.146,0,0,0,.184.14,7.624,7.624,0,0,1,2.125-.3,7.713,7.713,0,0,1,2.053.279.142.142,0,0,0,.175-.14Z" fill="#fff"/>
</svg>
