<svg xmlns="http://www.w3.org/2000/svg" width="256" height="255.997" viewBox="0 0 256 255.997">
  <path id="codepen-icon" d="M255.807,87.087c-.059-.31-.11-.62-.193-.924-.052-.183-.114-.355-.172-.535q-.126-.405-.283-.8c-.076-.182-.162-.358-.245-.534q-.173-.373-.376-.73c-.1-.176-.207-.342-.313-.51a11.036,11.036,0,0,0-.842-1.142q-.261-.308-.544-.6c-.145-.145-.29-.29-.442-.431q-.3-.274-.624-.52c-.165-.128-.327-.26-.5-.377-.061-.044-.117-.1-.182-.138L134.1,1.85a10.989,10.989,0,0,0-12.2,0l-117,78c-.065.041-.116.093-.182.138-.172.12-.334.248-.5.376q-.319.25-.624.517-.227.207-.438.43c-.193.194-.372.39-.548.6-.13.155-.255.31-.376.483-.165.217-.317.438-.465.669-.107.169-.214.334-.314.51q-.2.354-.372.724c-.083.176-.172.355-.245.534-.107.262-.2.531-.286.8-.058.18-.12.355-.169.517-.08.3-.138.61-.193.924-.03.159-.069.314-.09.476A11.057,11.057,0,0,0,0,88.98V167a9.962,9.962,0,0,0,.1,1.437c.025.173.07.31.1.476a6.376,6.376,0,0,0,.207.931c.048.172.1.345.172.534.086.276.172.552.276.8.072.172.172.344.241.517.114.241.242.482.38.734.1.172.206.345.31.5a5.427,5.427,0,0,0,.482.655c.121.173.242.31.38.476a5.536,5.536,0,0,0,.551.6,2.7,2.7,0,0,0,.448.413c.2.173.414.345.62.524.166.138.346.242.483.376.066.034.1.1.173.134L121.9,254.147A10.815,10.815,0,0,0,128,256a11.06,11.06,0,0,0,6.1-1.85l117-78c.065-.04.12-.089.182-.134.172-.12.334-.248.5-.375.214-.17.424-.345.624-.524.151-.135.3-.283.441-.428a9.875,9.875,0,0,0,.92-1.072c.166-.217.318-.441.466-.669.107-.165.214-.334.314-.5.138-.242.258-.486.375-.734.083-.176.17-.352.245-.531.107-.266.2-.535.283-.8.058-.179.12-.355.172-.534.08-.3.135-.614.193-.924.028-.159.07-.314.086-.476A10.884,10.884,0,0,0,256,167V89a11.64,11.64,0,0,0-.1-1.438c-.027-.169-.079-.306-.113-.475h.017ZM128,154.022,89.092,128,128,101.976,166.9,128ZM117,82.867l-47.692,31.9L30.81,89.013,117,31.555V82.867ZM49.522,128,22.005,146.4V109.592Zm19.785,13.245L117,173.138V224.45L30.81,166.985l38.5-25.75v.007ZM139,173.132l47.692-31.9,38.5,25.749L139,224.443V173.131ZM206.474,128,233.995,109.6V146.41L206.475,128V128Zm-19.785-13.238L139,82.87V31.555L225.19,89.014l-38.5,25.752Z" transform="translate(0 -0.001)" fill="#151515"/>
</svg>
