<svg xmlns="http://www.w3.org/2000/svg" width="131.5" height="131.5" viewBox="0 0 131.5 131.5">
  <path id="mdn-web-docs-vector-logo" d="M20.5,256.2H152V387.7H20.5Zm114.9,60.4c-.1-2-.3-4-.5-5.9a5.363,5.363,0,0,0-1.1-2.7,6.292,6.292,0,0,0-2.8-2c-2.2-.9-4.4-1.8-6.7-2.7a62.423,62.423,0,0,1-9.2-4,7.139,7.139,0,0,1-3.6-5.4,8.137,8.137,0,0,0-4-6.1,11.426,11.426,0,0,0-8.1-1,11.486,11.486,0,0,1-6.1-.1l-3-.9-.8-.2-2.4-.7c-4.3-1.3-6.1-2-13.1-.8a40.05,40.05,0,0,0-19.4,10.7L37.1,313.3H52.8l-9.6,10.2H59.7l-9.6,10.2H63.4l-4.2,11.1c16.3,16.6,33.6,20,33.6,20,0-4.6,1-22.6,2.3-25.6a16.519,16.519,0,0,1,2.1-4.2,11.23,11.23,0,0,1,9.3-4.2,31.429,31.429,0,0,1,10.5,1.9,7.462,7.462,0,0,0,6.2-.3c1.4-.8,2.8-1.7,4.1-2.6a2.7,2.7,0,0,1,1.5-.5,3.3,3.3,0,0,0,3.5-2c.4-.9,1-1.8,1.4-2.7a17.224,17.224,0,0,0,1.7-8Z" transform="translate(-20.5 -256.2)"/>
</svg>
