<svg xmlns="http://www.w3.org/2000/svg" xmlns:xlink="http://www.w3.org/1999/xlink" width="464" height="212" viewBox="0 0 464 212">
  <defs>
    <clipPath id="clip-アートボード_1">
      <rect width="464" height="212"/>
    </clipPath>
  </defs>
  <g id="アートボード_1" data-name="アートボード – 1" clip-path="url(#clip-アートボード_1)">
    <g id="E-Learning" transform="translate(-18 -15)">
      <g id="Efect">
        <path id="パス_264" data-name="パス 264" d="M84.77,109.5h0a10.972,10.972,0,0,0,10.972,10.972h53.431a9.068,9.068,0,0,1,9.068,9.068h0a9.068,9.068,0,0,1-9.068,9.068h-92.7a13.955,13.955,0,0,0-13.955,13.956h0a13.955,13.955,0,0,0,13.955,13.955H100.83a11.054,11.054,0,0,1,11.054,11.054h0a11.054,11.054,0,0,1-11.054,11.053H97.752A19.109,19.109,0,0,0,78.644,207.74h0a19.108,19.108,0,0,0,19.108,19.109H331.52a12.607,12.607,0,0,0,12.607-12.607h0a12.607,12.607,0,0,0-12.607-12.607h-6.742a9.661,9.661,0,0,1-9.661-9.662h0a9.661,9.661,0,0,1,9.661-9.662h52.641a13.4,13.4,0,0,0,13.4-13.4h0a13.4,13.4,0,0,0-13.4-13.4H338.012a11.92,11.92,0,0,1-11.92-11.92h0a11.92,11.92,0,0,1,11.92-11.92H422.7a16.571,16.571,0,0,0,16.572-16.571h0A16.571,16.571,0,0,0,422.7,98.533H95.742A10.972,10.972,0,0,0,84.77,109.5Z" fill="#d2e9f7"/>
        <path id="パス_265" data-name="パス 265" d="M359.553,109.861a1.15,1.15,0,1,1-1.15-1.15A1.15,1.15,0,0,1,359.553,109.861Z" fill="#5fb0e5"/>
        <path id="パス_266" data-name="パス 266" d="M120.672,114.663a1,1,0,1,1-1-1A1,1,0,0,1,120.672,114.663Z" fill="#5fb0e5"/>
        <path id="パス_267" data-name="パス 267" d="M70.871,95.739a1,1,0,1,1-1-1A1,1,0,0,1,70.871,95.739Z" fill="#5fb0e5"/>
        <path id="パス_268" data-name="パス 268" d="M250.966,130.019a1,1,0,1,1-1-1A1,1,0,0,1,250.966,130.019Z" fill="#5fb0e5"/>
        <circle id="楕円形_3" data-name="楕円形 3" cx="0.957" cy="0.957" r="0.957" transform="translate(348.432 146.842)" fill="#5fb0e5"/>
        <path id="パス_269" data-name="パス 269" d="M250.356,80.459a1.4,1.4,0,1,1-1.4-1.4A1.4,1.4,0,0,1,250.356,80.459Z" fill="#5fb0e5"/>
        <path id="パス_270" data-name="パス 270" d="M270.706,111.258a1.4,1.4,0,1,1-1.4-1.4A1.4,1.4,0,0,1,270.706,111.258Z" fill="#5fb0e5"/>
        <path id="パス_271" data-name="パス 271" d="M371.7,140.811a1.4,1.4,0,1,1-1.4-1.4A1.4,1.4,0,0,1,371.7,140.811Z" fill="#5fb0e5"/>
        <path id="パス_272" data-name="パス 272" d="M168.133,86.655a1.669,1.669,0,1,1-1.669-1.669A1.669,1.669,0,0,1,168.133,86.655Z" fill="#5fb0e5"/>
        <path id="パス_273" data-name="パス 273" d="M366.094,83.056c-1.753.465-2.131.842-2.6,2.6-.465-1.753-.842-2.13-2.6-2.6,1.754-.466,2.131-.843,2.6-2.6C363.963,82.213,364.341,82.59,366.094,83.056Z" fill="#5fb0e5"/>
        <path id="パス_274" data-name="パス 274" d="M76.769,127.4c-1.753.465-2.13.842-2.6,2.6-.465-1.754-.842-2.131-2.6-2.6,1.754-.466,2.131-.843,2.6-2.6C74.639,126.559,75.016,126.936,76.769,127.4Z" fill="#5fb0e5"/>
        <path id="パス_275" data-name="パス 275" d="M201.985,113.66c-1.623.43-1.972.779-2.4,2.4-.431-1.623-.779-1.972-2.4-2.4,1.623-.43,1.971-.779,2.4-2.4C200.013,112.881,200.362,113.23,201.985,113.66Z" fill="#5fb0e5"/>
        <path id="パス_276" data-name="パス 276" d="M60.11,194.919c-2.339.62-2.841,1.123-3.462,3.461-.62-2.338-1.123-2.841-3.461-3.461,2.338-.62,2.841-1.123,3.461-3.461C57.269,193.8,57.771,194.3,60.11,194.919Z" fill="#5fb0e5"/>
        <path id="パス_277" data-name="パス 277" d="M178.255,149.38c-1.421.376-1.726.682-2.1,2.1-.377-1.421-.683-1.727-2.1-2.1,1.42-.378,1.726-.683,2.1-2.1C176.529,148.7,176.834,149,178.255,149.38Z" fill="#5fb0e5"/>
        <path id="パス_278" data-name="パス 278" d="M166.07,124.806c-1.421.377-1.726.682-2.1,2.1-.377-1.421-.683-1.726-2.1-2.1,1.42-.377,1.726-.683,2.1-2.1C164.344,124.123,164.649,124.429,166.07,124.806Z" fill="#5fb0e5"/>
        <path id="パス_279" data-name="パス 279" d="M295.761,127.4c-1.421.377-1.727.682-2.1,2.1-.377-1.421-.682-1.726-2.1-2.1,1.421-.377,1.726-.683,2.1-2.1C294.034,126.719,294.34,127.025,295.761,127.4Z" fill="#5fb0e5"/>
        <path id="パス_280" data-name="パス 280" d="M426.922,192.816c-1.421.377-1.726.682-2.1,2.1-.376-1.421-.682-1.726-2.1-2.1,1.421-.377,1.727-.683,2.1-2.1C425.2,192.133,425.5,192.439,426.922,192.816Z" fill="#5fb0e5"/>
        <path id="パス_281" data-name="パス 281" d="M412.165,141.639c-2.675.71-3.25,1.285-3.96,3.96-.71-2.675-1.285-3.25-3.96-3.96,2.675-.71,3.25-1.285,3.96-3.96C408.915,140.354,409.49,140.929,412.165,141.639Z" fill="#5fb0e5"/>
        <rect id="長方形_82" data-name="長方形 82" width="51.503" height="25.227" rx="12.613" transform="translate(396.737 155.711)" fill="#d2e9f7"/>
      </g>
      <g id="グループ_64" data-name="グループ 64">
        <g id="グループ_38" data-name="グループ 38">
          <g id="グループ_37" data-name="グループ 37">
            <path id="パス_282" data-name="パス 282" d="M55.417,214.526a6.48,6.48,0,1,0,9,1.719A6.48,6.48,0,0,0,55.417,214.526Z" fill="#fff"/>
            <path id="パス_283" data-name="パス 283" d="M55.417,214.526a6.48,6.48,0,1,0,9,1.719A6.48,6.48,0,0,0,55.417,214.526Z" fill="none" stroke="#0686d8" stroke-miterlimit="10" stroke-width="1.5"/>
            <g id="グループ_36" data-name="グループ 36">
              <path id="パス_284" data-name="パス 284" d="M59.9,216.414l-2.69,1.75a1.226,1.226,0,0,0-.359,1.7h0a1.226,1.226,0,0,0,1.7.359l1.108-.72a1.226,1.226,0,0,1,1.7.359h0a1.228,1.228,0,0,1-.359,1.7l-2.769,1.8" fill="none" stroke="#0686d8" stroke-miterlimit="10" stroke-width="1.5"/>
              <line id="線_70" data-name="線 70" x2="4.889" y2="7.515" transform="translate(56.614 216.129)" fill="none" stroke="#0686d8" stroke-miterlimit="10" stroke-width="1.5"/>
            </g>
          </g>
        </g>
        <g id="グループ_42" data-name="グループ 42">
          <g id="グループ_41" data-name="グループ 41">
            <g id="グループ_39" data-name="グループ 39">
              <path id="パス_285" data-name="パス 285" d="M410.288,226.366h-4.07a.3.3,0,0,1-.3-.3V196.3a.3.3,0,0,1,.027-.125l2.036-3.307a.3.3,0,0,1,.54,0l2.035,3.307a.3.3,0,0,1,.028.125v29.767A.3.3,0,0,1,410.288,226.366Z" fill="#fff"/>
              <rect id="長方形_83" data-name="長方形 83" width="4.665" height="26.054" transform="translate(405.92 197.305)" fill="#5fb0e5"/>
              <path id="パス_286" data-name="パス 286" d="M410.586,226.366H405.92V196.237l2.172-3.6a.178.178,0,0,1,.322,0l2.172,3.6Z" fill="none" stroke="#0686d8" stroke-miterlimit="10" stroke-width="1.5"/>
              <line id="線_71" data-name="線 71" x2="4.761" transform="translate(405.824 197.305)" fill="none" stroke="#0686d8" stroke-miterlimit="10" stroke-width="1.5"/>
              <line id="線_72" data-name="線 72" x2="5.08" transform="translate(405.713 223.359)" fill="none" stroke="#0686d8" stroke-miterlimit="10" stroke-width="1.5"/>
            </g>
            <g id="グループ_40" data-name="グループ 40">
              <path id="パス_287" data-name="パス 287" d="M412.162,196.963a13.9,13.9,0,0,1-.461,26.847" fill="none" stroke="#0686d8" stroke-miterlimit="10" stroke-width="1.5"/>
              <path id="パス_288" data-name="パス 288" d="M404.812,223.769a13.9,13.9,0,0,1-.116-26.857" fill="none" stroke="#0686d8" stroke-miterlimit="10" stroke-width="1.5"/>
              <path id="パス_289" data-name="パス 289" d="M413.218,197.315a26.508,26.508,0,0,1-.061,26.042" fill="none" stroke="#0686d8" stroke-miterlimit="10" stroke-width="1.5"/>
              <path id="パス_290" data-name="パス 290" d="M403.81,197.315a26.495,26.495,0,0,0,.061,26.042" fill="none" stroke="#0686d8" stroke-miterlimit="10" stroke-width="1.5"/>
              <line id="線_73" data-name="線 73" x2="10.074" transform="translate(412.158 210.324)" fill="none" stroke="#0686d8" stroke-miterlimit="10" stroke-width="1.5"/>
              <line id="線_74" data-name="線 74" x2="7.995" transform="translate(412.933 203.723)" fill="none" stroke="#0686d8" stroke-miterlimit="10" stroke-width="1.5"/>
              <line id="線_75" data-name="線 75" x2="10.132" transform="translate(394.441 210.324)" fill="none" stroke="#0686d8" stroke-miterlimit="10" stroke-width="1.5"/>
              <line id="線_76" data-name="線 76" x2="8.338" transform="translate(395.632 203.723)" fill="none" stroke="#0686d8" stroke-miterlimit="10" stroke-width="1.5"/>
              <line id="線_77" data-name="線 77" x2="7.405" transform="translate(412.763 216.927)" fill="none" stroke="#0686d8" stroke-miterlimit="10" stroke-width="1.5"/>
              <line id="線_78" data-name="線 78" x2="7.396" transform="translate(396.485 216.927)" fill="none" stroke="#0686d8" stroke-miterlimit="10" stroke-width="1.5"/>
            </g>
          </g>
        </g>
        <g id="グループ_44" data-name="グループ 44">
          <path id="長方形_84" data-name="長方形 84" d="M3.026,0h46.8a3.026,3.026,0,0,1,3.026,3.026V94.534a0,0,0,0,1,0,0H0a0,0,0,0,1,0,0V3.026A3.026,3.026,0,0,1,3.026,0Z" transform="translate(98.474 131.169)" fill="#fff"/>
          <path id="パス_291" data-name="パス 291" d="M151.327,141.373H98.474v-7.054a3.15,3.15,0,0,1,3.15-3.15h46.553a3.15,3.15,0,0,1,3.15,3.15Z" fill="#5fb0e5"/>
          <path id="パス_292" data-name="パス 292" d="M98.474,179.587V134.319a3.15,3.15,0,0,1,3.15-3.15h46.553a3.15,3.15,0,0,1,3.15,3.15v37.247" fill="none" stroke="#0686d8" stroke-miterlimit="10" stroke-width="1.5"/>
          <line id="線_79" data-name="線 79" y1="32.366" transform="translate(98.474 193.338)" fill="none" stroke="#0686d8" stroke-miterlimit="10" stroke-width="1.5"/>
          <line id="線_80" data-name="線 80" x2="52.466" transform="translate(98.86 141.639)" fill="none" stroke="#0686d8" stroke-miterlimit="10" stroke-width="1.5"/>
          <rect id="長方形_85" data-name="長方形 85" width="36.743" height="7.843" transform="translate(106.378 171.77)" fill="#d2e9f7"/>
          <rect id="長方形_86" data-name="長方形 86" width="36.743" height="7.843" transform="translate(106.378 184.973)" fill="#d2e9f7"/>
          <line id="線_81" data-name="線 81" x2="1.602" transform="translate(103.752 135.23)" fill="none" stroke="#0686d8" stroke-miterlimit="10" stroke-width="1.5"/>
          <line id="線_82" data-name="線 82" x2="24.017" transform="translate(111.568 175.691)" fill="none" stroke="#0686d8" stroke-miterlimit="10" stroke-width="1.5"/>
          <line id="線_83" data-name="線 83" x2="1.216" transform="translate(110.808 188.894)" fill="none" stroke="#0686d8" stroke-miterlimit="10" stroke-width="1.5"/>
          <line id="線_84" data-name="線 84" x2="1.216" transform="translate(114.63 188.894)" fill="none" stroke="#0686d8" stroke-miterlimit="10" stroke-width="1.5"/>
          <line id="線_85" data-name="線 85" x2="1.216" transform="translate(118.452 188.894)" fill="none" stroke="#0686d8" stroke-miterlimit="10" stroke-width="1.5"/>
          <line id="線_86" data-name="線 86" x2="1.216" transform="translate(122.274 188.894)" fill="none" stroke="#0686d8" stroke-miterlimit="10" stroke-width="1.5"/>
          <line id="線_87" data-name="線 87" x2="1.216" transform="translate(126.096 188.894)" fill="none" stroke="#0686d8" stroke-miterlimit="10" stroke-width="1.5"/>
          <line id="線_88" data-name="線 88" x2="1.216" transform="translate(129.918 188.894)" fill="none" stroke="#0686d8" stroke-miterlimit="10" stroke-width="1.5"/>
          <line id="線_89" data-name="線 89" x2="1.216" transform="translate(133.74 188.894)" fill="none" stroke="#0686d8" stroke-miterlimit="10" stroke-width="1.5"/>
          <line id="線_90" data-name="線 90" x2="1.602" transform="translate(107.642 135.23)" fill="none" stroke="#0686d8" stroke-miterlimit="10" stroke-width="1.5"/>
          <line id="線_91" data-name="線 91" x2="1.602" transform="translate(111.532 135.23)" fill="none" stroke="#0686d8" stroke-miterlimit="10" stroke-width="1.5"/>
          <g id="グループ_43" data-name="グループ 43">
            <path id="パス_293" data-name="パス 293" d="M127.274,152.118a2.739,2.739,0,1,1-2.74-2.739A2.738,2.738,0,0,1,127.274,152.118Z" fill="none" stroke="#0686d8" stroke-miterlimit="10" stroke-width="1.5"/>
            <path id="パス_294" data-name="パス 294" d="M120.305,163.955V161.4a4.444,4.444,0,0,1,4.444-4.444h0a4.444,4.444,0,0,1,4.445,4.444v2.554" fill="none" stroke="#0686d8" stroke-miterlimit="10" stroke-width="1.5"/>
          </g>
          <circle id="楕円形_4" data-name="楕円形 4" cx="10.197" cy="10.197" r="10.197" transform="translate(114.552 146.47)" fill="none" stroke="#0686d8" stroke-miterlimit="10" stroke-width="1.5"/>
        </g>
        <g id="グループ_47" data-name="グループ 47">
          <g id="グループ_46" data-name="グループ 46">
            <rect id="長方形_87" data-name="長方形 87" width="20.045" height="11.983" transform="translate(73.047 214.383)" fill="#fff"/>
            <path id="パス_295" data-name="パス 295" d="M73.047,226.366V214.383H93.092v11.983" fill="none" stroke="#0686d8" stroke-miterlimit="10" stroke-width="1.5"/>
            <g id="グループ_45" data-name="グループ 45">
              <path id="パス_296" data-name="パス 296" d="M74.173,192.514c-9.9-2.377-8.548-9.938-8.548-9.938h6.493" fill="none" stroke="#0686d8" stroke-miterlimit="10" stroke-width="1.5"/>
              <path id="パス_297" data-name="パス 297" d="M92.564,192.514c9.9-2.377,8.549-9.938,8.549-9.938H94.62" fill="none" stroke="#0686d8" stroke-miterlimit="10" stroke-width="1.5"/>
              <path id="パス_298" data-name="パス 298" d="M94.707,184.252a14.949,14.949,0,0,0-.749-4.665H72.753A14.949,14.949,0,0,0,72,184.252c0,6.754,4.4,13.513,10.051,14.431v9.035h2.6v-9.035C90.312,197.765,94.707,191.006,94.707,184.252Z" fill="#d2e9f7"/>
              <path id="パス_299" data-name="パス 299" d="M82.677,198.676c-5.251-1.407-6.42-8-6.42-14.424a14.949,14.949,0,0,1,.749-4.665H74.454a14.949,14.949,0,0,0-.748,4.665c0,6.754,2.693,13.513,8.349,14.431A1.66,1.66,0,0,0,82.677,198.676Z" fill="#fff"/>
              <line id="線_92" data-name="線 92" x1="2.078" transform="translate(78.191 179.587)" fill="none" stroke="#0686d8" stroke-miterlimit="10" stroke-width="1.5"/>
              <path id="パス_300" data-name="パス 300" d="M76.27,179.587H72.753A14.949,14.949,0,0,0,72,184.252c0,6.754,4.4,13.513,10.051,14.431v9.035h2.6v-9.035c5.656-.918,10.051-7.677,10.051-14.431a14.949,14.949,0,0,0-.749-4.665H81.579" fill="none" stroke="#0686d8" stroke-miterlimit="10" stroke-width="1.5"/>
              <line id="線_93" data-name="線 93" x2="5.355" transform="translate(80.747 201.528)" fill="none" stroke="#0686d8" stroke-miterlimit="10" stroke-width="1.5"/>
              <line id="線_94" data-name="線 94" x2="5.355" transform="translate(80.747 203.518)" fill="none" stroke="#0686d8" stroke-miterlimit="10" stroke-width="1.5"/>
              <path id="長方形_88" data-name="長方形 88" d="M1.089,0H12.165a1.088,1.088,0,0,1,1.088,1.088v4.8a0,0,0,0,1,0,0H0a0,0,0,0,1,0,0v-4.8A1.089,1.089,0,0,1,1.089,0Z" transform="translate(76.672 206.733)" fill="#9ecfef"/>
              <path id="長方形_89" data-name="長方形 89" d="M1.089,0H12.165a1.088,1.088,0,0,1,1.088,1.088v4.8a0,0,0,0,1,0,0H0a0,0,0,0,1,0,0v-4.8A1.089,1.089,0,0,1,1.089,0Z" transform="translate(76.672 206.733)" fill="none" stroke="#0686d8" stroke-miterlimit="10" stroke-width="1.5"/>
              <rect id="長方形_90" data-name="長方形 90" width="7.111" height="2.837" transform="translate(79.743 207.741)" fill="#fff"/>
              <line id="線_95" data-name="線 95" x2="3.343" transform="translate(81.579 209.16)" fill="none" stroke="#0686d8" stroke-miterlimit="10" stroke-width="1.5"/>
              <line id="線_96" data-name="線 96" x2="17.995" transform="translate(74.173 212.626)" fill="none" stroke="#0686d8" stroke-miterlimit="10" stroke-width="1.5"/>
            </g>
            <line id="線_97" data-name="線 97" x2="31.063" transform="translate(67.677 214.383)" fill="none" stroke="#0686d8" stroke-miterlimit="10" stroke-width="1.5"/>
            <path id="パス_301" data-name="パス 301" d="M75.911,218.221a2.865,2.865,0,1,1-2.864-2.864A2.865,2.865,0,0,1,75.911,218.221Z" fill="#9ecfef"/>
            <path id="パス_302" data-name="パス 302" d="M95.957,218.221a2.865,2.865,0,1,1-2.865-2.864A2.865,2.865,0,0,1,95.957,218.221Z" fill="#9ecfef"/>
            <path id="パス_303" data-name="パス 303" d="M75.911,218.221a2.865,2.865,0,1,1-2.864-2.864A2.865,2.865,0,0,1,75.911,218.221Z" fill="none" stroke="#0686d8" stroke-miterlimit="10" stroke-width="1.5"/>
            <path id="パス_304" data-name="パス 304" d="M95.957,218.221a2.865,2.865,0,1,1-2.865-2.864A2.865,2.865,0,0,1,95.957,218.221Z" fill="none" stroke="#0686d8" stroke-miterlimit="10" stroke-width="1.5"/>
            <line id="線_98" data-name="線 98" x2="1.309" transform="translate(72.392 218.221)" fill="none" stroke="#0686d8" stroke-miterlimit="10" stroke-width="1.5"/>
            <line id="線_99" data-name="線 99" x2="1.309" transform="translate(92.438 218.221)" fill="none" stroke="#0686d8" stroke-miterlimit="10" stroke-width="1.5"/>
            <line id="線_100" data-name="線 100" y2="7.256" transform="translate(79.491 219.11)" fill="none" stroke="#0686d8" stroke-miterlimit="10" stroke-width="1.5"/>
            <line id="線_101" data-name="線 101" y2="7.256" transform="translate(83.07 219.11)" fill="none" stroke="#0686d8" stroke-miterlimit="10" stroke-width="1.5"/>
            <line id="線_102" data-name="線 102" y2="7.256" transform="translate(86.648 219.11)" fill="none" stroke="#0686d8" stroke-miterlimit="10" stroke-width="1.5"/>
          </g>
        </g>
        <g id="グループ_50" data-name="グループ 50">
          <g id="グループ_49" data-name="グループ 49">
            <rect id="長方形_91" data-name="長方形 91" width="15.427" height="50.916" rx="1.355" transform="translate(325.163 168.324)" fill="#d2e9f7"/>
            <rect id="長方形_92" data-name="長方形 92" width="8.629" height="57.981" rx="1.355" transform="translate(345.074 161.259)" fill="#5fb0e5"/>
            <rect id="長方形_93" data-name="長方形 93" width="3" height="36.637" transform="translate(348.074 172.829)" fill="#fffffe"/>
            <rect id="長方形_94" data-name="長方形 94" width="13.362" height="52.722" rx="1.355" transform="translate(358.27 166.518)" fill="#d2e9f7"/>
            <path id="パス_305" data-name="パス 305" d="M325.162,175.192v-4.118a2.75,2.75,0,0,1,2.75-2.75h9.928a2.75,2.75,0,0,1,2.75,2.75v22.011" fill="none" stroke="#0686d8" stroke-miterlimit="10" stroke-width="1.5"/>
            <path id="パス_306" data-name="パス 306" d="M345.074,191.284V164.008a2.75,2.75,0,0,1,2.75-2.749h2.912a2.967,2.967,0,0,1,2.967,2.967v27.058" fill="none" stroke="#0686d8" stroke-miterlimit="10" stroke-width="1.5"/>
            <path id="パス_307" data-name="パス 307" d="M358.27,193.085V169.267a2.749,2.749,0,0,1,2.749-2.749h7.863a2.75,2.75,0,0,1,2.75,2.749v14.125" fill="none" stroke="#0686d8" stroke-miterlimit="10" stroke-width="1.5"/>
            <line id="線_103" data-name="線 103" x2="7.888" transform="translate(328.932 174.406)" fill="none" stroke="#0686d8" stroke-miterlimit="10" stroke-width="1.5"/>
            <line id="線_104" data-name="線 104" x2="7.888" transform="translate(328.932 180.717)" fill="none" stroke="#0686d8" stroke-miterlimit="10" stroke-width="1.5"/>
            <line id="線_105" data-name="線 105" x2="7.888" transform="translate(328.932 187.028)" fill="none" stroke="#0686d8" stroke-miterlimit="10" stroke-width="1.5"/>
            <line id="線_106" data-name="線 106" x2="7.888" transform="translate(328.932 193.338)" fill="none" stroke="#0686d8" stroke-miterlimit="10" stroke-width="1.5"/>
            <line id="線_107" data-name="線 107" x2="4.287" transform="translate(328.932 199.649)" fill="none" stroke="#0686d8" stroke-miterlimit="10" stroke-width="1.5"/>
            <line id="線_108" data-name="線 108" x2="7.888" transform="translate(328.932 205.96)" fill="none" stroke="#0686d8" stroke-miterlimit="10" stroke-width="1.5"/>
            <line id="線_109" data-name="線 109" x2="7.888" transform="translate(328.932 212.27)" fill="none" stroke="#0686d8" stroke-miterlimit="10" stroke-width="1.5"/>
            <path id="パス_308" data-name="パス 308" d="M369.684,175.984a4.733,4.733,0,1,1-4.734-4.733A4.734,4.734,0,0,1,369.684,175.984Z" fill="#5fb0e5"/>
            <path id="パス_309" data-name="パス 309" d="M369.684,207.537a4.733,4.733,0,1,1-4.734-4.732A4.733,4.733,0,0,1,369.684,207.537Z" fill="#5fb0e5"/>
            <g id="グループ_48" data-name="グループ 48">
              <path id="パス_310" data-name="パス 310" d="M377.621,211.549h-.28a10.165,10.165,0,0,0-15.264-5.726,13.926,13.926,0,0,0-27.063-2.005,9.525,9.525,0,0,0-11.928,7.731h-1.559a7.167,7.167,0,0,0-7.146,7.145v.527a7.167,7.167,0,0,0,7.146,7.145h56.094a7.166,7.166,0,0,0,7.145-7.145v-.527A7.166,7.166,0,0,0,377.621,211.549Z" fill="#d2e9f7"/>
              <path id="パス_311" data-name="パス 311" d="M371.048,213.3H370.8a8.96,8.96,0,0,0-13.456-5.048,12.277,12.277,0,0,0-23.858-1.767,8.4,8.4,0,0,0-10.515,6.815H321.6a6.317,6.317,0,0,0-6.3,6.3v.464a6.317,6.317,0,0,0,6.3,6.3h49.449a6.318,6.318,0,0,0,6.3-6.3V219.6A6.318,6.318,0,0,0,371.048,213.3Z" fill="#fff"/>
              <path id="パス_312" data-name="パス 312" d="M357.4,204.694a11.607,11.607,0,0,0-15.649-3.676" fill="none" stroke="#0686d8" stroke-miterlimit="10" stroke-width="1.5"/>
              <path id="パス_313" data-name="パス 313" d="M332.706,203.439a4.96,4.96,0,0,1,4.96,4.96" fill="none" stroke="#0686d8" stroke-miterlimit="10" stroke-width="1.5"/>
              <path id="パス_314" data-name="パス 314" d="M321.527,211.549a7.167,7.167,0,0,0-7.146,7.145v.527a7.167,7.167,0,0,0,7.146,7.145h56.094a7.166,7.166,0,0,0,7.145-7.145v-.527a7.166,7.166,0,0,0-7.145-7.145h-.28a10.165,10.165,0,0,0-15.264-5.726,13.926,13.926,0,0,0-27.063-2.005,9.568,9.568,0,0,0-2.486-.338" fill="none" stroke="#0686d8" stroke-miterlimit="10" stroke-width="1.5"/>
            </g>
          </g>
        </g>
        <g id="グループ_52" data-name="グループ 52">
          <g id="グループ_51" data-name="グループ 51">
            <path id="長方形_95" data-name="長方形 95" d="M4.818,0H93.9a4.818,4.818,0,0,1,4.818,4.818v53.9a0,0,0,0,1,0,0H0a0,0,0,0,1,0,0V4.818A4.818,4.818,0,0,1,4.818,0Z" transform="translate(202.894 140.811)" fill="#5fb0e5"/>
            <path id="パス_315" data-name="パス 315" d="M202.894,172.531V145.749a4.939,4.939,0,0,1,4.939-4.939h15.816" fill="none" stroke="#0686d8" stroke-miterlimit="10" stroke-width="1.5"/>
            <path id="パス_316" data-name="パス 316" d="M245.521,140.81h51.157a4.939,4.939,0,0,1,4.939,4.939v29.567" fill="none" stroke="#0686d8" stroke-miterlimit="10" stroke-width="1.5"/>
            <line id="線_110" data-name="線 110" x2="10.895" transform="translate(228.022 140.811)" fill="none" stroke="#0686d8" stroke-miterlimit="10" stroke-width="1.5"/>
            <rect id="長方形_96" data-name="長方形 96" width="88.119" height="46.379" transform="translate(208.251 146.552)" fill="#fff"/>
            <rect id="長方形_97" data-name="長方形 97" width="29.743" height="17.607" transform="translate(237.384 208.43)" fill="#d2e9f7"/>
            <rect id="長方形_98" data-name="長方形 98" width="29.743" height="8.804" transform="translate(237.384 208.43)" fill="#9ecfef"/>
            <rect id="長方形_99" data-name="長方形 99" width="29.743" height="17.607" transform="translate(237.384 208.43)" fill="none" stroke="#0686d8" stroke-miterlimit="10" stroke-width="1.5"/>
            <path id="長方形_100" data-name="長方形 100" d="M0,0H98.722a0,0,0,0,1,0,0V7.452a5.88,5.88,0,0,1-5.88,5.88H5.88A5.88,5.88,0,0,1,0,7.452V0A0,0,0,0,1,0,0Z" transform="translate(202.894 197.374)" fill="#fff"/>
            <line id="線_111" data-name="線 111" x2="70.963" transform="translate(218.774 210.706)" fill="none" stroke="#0686d8" stroke-miterlimit="10" stroke-width="1.5"/>
            <line id="線_112" data-name="線 112" x1="69.722" transform="translate(218.894 197.374)" fill="none" stroke="#0686d8" stroke-miterlimit="10" stroke-width="1.5"/>
            <line id="線_113" data-name="線 113" x2="41.697" transform="translate(231.601 226.366)" fill="none" stroke="#0686d8" stroke-miterlimit="10" stroke-width="1.5"/>
          </g>
          <rect id="長方形_101" data-name="長方形 101" width="37.956" height="23.062" rx="1.075" transform="translate(214.493 153.508)" fill="#d2e9f7"/>
          <rect id="長方形_102" data-name="長方形 102" width="37.956" height="23.062" rx="1.075" transform="translate(214.493 153.508)" fill="none" stroke="#0686d8" stroke-miterlimit="10" stroke-width="1.5"/>
          <path id="パス_317" data-name="パス 317" d="M238.487,165.788l-9.165,5.292a.866.866,0,0,1-1.3-.75V159.747a.866.866,0,0,1,1.3-.75l9.165,5.291A.866.866,0,0,1,238.487,165.788Z" fill="#5fb0e5"/>
          <path id="パス_318" data-name="パス 318" d="M238.487,165.788l-9.165,5.292a.866.866,0,0,1-1.3-.75V159.747a.866.866,0,0,1,1.3-.75l9.165,5.291A.866.866,0,0,1,238.487,165.788Z" fill="none" stroke="#0686d8" stroke-miterlimit="10" stroke-width="1.5"/>
          <line id="線_114" data-name="線 114" x2="18.308" transform="translate(214.493 182.883)" fill="none" stroke="#0686d8" stroke-miterlimit="10" stroke-width="1.5"/>
          <line id="線_115" data-name="線 115" x2="18.308" transform="translate(275.67 157.044)" fill="none" stroke="#0686d8" stroke-miterlimit="10" stroke-width="1.5"/>
          <line id="線_116" data-name="線 116" x2="9.154" transform="translate(275.67 162.691)" fill="none" stroke="#0686d8" stroke-miterlimit="10" stroke-width="1.5"/>
          <line id="線_117" data-name="線 117" x2="18.308" transform="translate(275.67 173.746)" fill="none" stroke="#0686d8" stroke-miterlimit="10" stroke-width="1.5"/>
          <line id="線_118" data-name="線 118" x2="9.154" transform="translate(275.67 179.393)" fill="none" stroke="#0686d8" stroke-miterlimit="10" stroke-width="1.5"/>
          <line id="線_119" data-name="線 119" x2="18.308" transform="translate(275.67 190.448)" fill="none" stroke="#0686d8" stroke-miterlimit="10" stroke-width="1.5"/>
          <line id="線_120" data-name="線 120" x2="40.711" transform="translate(213.293 187.855)" fill="none" stroke="#0686d8" stroke-miterlimit="10" stroke-width="1.5"/>
          <rect id="長方形_103" data-name="長方形 103" width="12.342" height="12.342" transform="translate(260.956 153.618)" fill="#5fb0e5"/>
          <rect id="長方形_104" data-name="長方形 104" width="12.342" height="12.342" transform="translate(260.956 170.398)" fill="#5fb0e5"/>
          <rect id="長方形_105" data-name="長方形 105" width="12.342" height="6.171" transform="translate(260.956 187.179)" fill="#5fb0e5"/>
        </g>
        <path id="パス_319" data-name="パス 319" d="M302.367,204.827V175.494h-1.1v-.75H297.08v.75h-2.921v-.75h-2.316a3.1,3.1,0,0,0-3.1,3.1v33.616h6.991A6.638,6.638,0,0,0,302.367,204.827Z" fill="#03436c" opacity="0.3"/>
        <path id="パス_320" data-name="パス 320" d="M332.084,224.019V179.841a3.1,3.1,0,0,0-3.1-3.1h-4.574v27.448h.75v1.627a10.272,10.272,0,0,0-2.7,4.98h-.938a7.9,7.9,0,0,0-7.9,7.9v.527a7.9,7.9,0,0,0,7.9,7.9h7.459A3.1,3.1,0,0,0,332.084,224.019Z" fill="#03436c" opacity="0.3"/>
        <g id="グループ_53" data-name="グループ 53">
          <path id="長方形_106" data-name="長方形 106" d="M1.778,0H36.06a1.778,1.778,0,0,1,1.778,1.778V47.094a1.778,1.778,0,0,1-1.778,1.778H1.779A1.779,1.779,0,0,1,0,47.094V1.778A1.778,1.778,0,0,1,1.778,0Z" transform="translate(291.495 177.494)" fill="#fff"/>
          <path id="パス_321" data-name="パス 321" d="M305.6,177.494h21.382a2.348,2.348,0,0,1,2.348,2.347v44.178a2.348,2.348,0,0,1-2.348,2.347H293.843a2.347,2.347,0,0,1-2.348-2.347V179.841a2.347,2.347,0,0,1,2.348-2.347h2.316" fill="none" stroke="#0686d8" stroke-miterlimit="10" stroke-width="1.5"/>
          <line id="線_121" data-name="線 121" x2="4.187" transform="translate(299.08 177.494)" fill="none" stroke="#0686d8" stroke-miterlimit="10" stroke-width="1.5"/>
          <rect id="長方形_107" data-name="長方形 107" width="30.72" height="39.245" transform="translate(295.054 182.477)" fill="#d2e9f7"/>
          <line id="線_122" data-name="線 122" x2="8.617" transform="translate(306.106 180.088)" fill="none" stroke="#0686d8" stroke-miterlimit="10" stroke-width="1.5"/>
          <path id="パス_322" data-name="パス 322" d="M325.079,205.6l-3.8-1.32-3.8,1.32V177.494h7.6Z" fill="#5fb0e5"/>
          <path id="パス_323" data-name="パス 323" d="M325.079,205.6l-3.8-1.32-3.8,1.32V177.494h7.6Z" fill="none" stroke="#0686d8" stroke-miterlimit="10" stroke-width="1.5"/>
          <line id="線_123" data-name="線 123" x2="17.918" transform="translate(297.327 186.517)" fill="none" stroke="#0686d8" stroke-miterlimit="10" stroke-width="1.5"/>
          <line id="線_124" data-name="線 124" x2="17.918" transform="translate(297.327 191.093)" fill="none" stroke="#0686d8" stroke-miterlimit="10" stroke-width="1.5"/>
          <line id="線_125" data-name="線 125" x2="17.918" transform="translate(297.327 195.67)" fill="none" stroke="#0686d8" stroke-miterlimit="10" stroke-width="1.5"/>
          <line id="線_126" data-name="線 126" x2="17.918" transform="translate(297.327 200.247)" fill="none" stroke="#0686d8" stroke-miterlimit="10" stroke-width="1.5"/>
          <line id="線_127" data-name="線 127" x2="17.918" transform="translate(297.327 204.824)" fill="none" stroke="#0686d8" stroke-miterlimit="10" stroke-width="1.5"/>
          <line id="線_128" data-name="線 128" x2="26" transform="translate(297.327 209.4)" fill="none" stroke="#0686d8" stroke-miterlimit="10" stroke-width="1.5"/>
          <line id="線_129" data-name="線 129" x2="26" transform="translate(297.327 213.977)" fill="none" stroke="#0686d8" stroke-miterlimit="10" stroke-width="1.5"/>
          <line id="線_130" data-name="線 130" x2="26" transform="translate(297.327 218.554)" fill="none" stroke="#0686d8" stroke-miterlimit="10" stroke-width="1.5"/>
          <line id="線_131" data-name="線 131" x2="3.018" transform="translate(308.906 223.692)" fill="none" stroke="#0686d8" stroke-miterlimit="10" stroke-width="1.5"/>
        </g>
        <line id="線_132" data-name="線 132" x2="437.348" transform="translate(31.474 226.366)" fill="none" stroke="#0686d8" stroke-miterlimit="10" stroke-width="1.5"/>
        <path id="パス_324" data-name="パス 324" d="M215.918,171.5H202.144v33.323a6.639,6.639,0,0,0,6.63,6.63h9.6v-37.5A2.46,2.46,0,0,0,215.918,171.5Z" fill="#03436c" opacity="0.3"/>
        <path id="パス_325" data-name="パス 325" d="M151.327,173.5h-4.683a2.459,2.459,0,0,0-2.456,2.457V219.95h-3.411l.621,3.783a4.033,4.033,0,0,0,.916,1.971h9.013Z" fill="#03436c" opacity="0.3"/>
        <g id="グループ_56" data-name="グループ 56">
          <g id="グループ_54" data-name="グループ 54">
            <rect id="長方形_108" data-name="長方形 108" width="68.687" height="49.371" rx="1" transform="translate(146.938 174.254)" fill="#5fb0e5"/>
            <path id="パス_326" data-name="パス 326" d="M146.938,190.918V175.961a1.712,1.712,0,0,1,1.707-1.707h11.634" fill="none" stroke="#0686d8" stroke-miterlimit="10" stroke-width="1.5"/>
            <path id="パス_327" data-name="パス 327" d="M199.838,174.254h14.08a1.712,1.712,0,0,1,1.707,1.707v45.957a1.712,1.712,0,0,1-1.707,1.707" fill="none" stroke="#0686d8" stroke-miterlimit="10" stroke-width="1.5"/>
            <rect id="長方形_109" data-name="長方形 109" width="61.643" height="40.064" transform="translate(150.274 178.139)" fill="#fff"/>
            <path id="パス_328" data-name="パス 328" d="M214.424,226.366H147.381a3.286,3.286,0,0,1-3.243-2.754l-.477-2.913h31.073l1.189,1.707h8.586l1.286-1.707h32.734l-.415,2.534A3.738,3.738,0,0,1,214.424,226.366Z" fill="#fff"/>
            <path id="パス_329" data-name="パス 329" d="M214.424,226.366H147.381a3.286,3.286,0,0,1-3.243-2.754l-.477-2.913h31.073l1.189,1.707h8.586l1.286-1.707h32.734l-.415,2.534A3.738,3.738,0,0,1,214.424,226.366Z" fill="none" stroke="#0686d8" stroke-miterlimit="10" stroke-width="1.5"/>
          </g>
          <path id="パス_330" data-name="パス 330" d="M162.877,166.1v16.379a1.382,1.382,0,0,0,1.381,1.382h1.08v9.376a.358.358,0,0,0,.633.23l8.045-9.606h22.711a1.381,1.381,0,0,0,1.381-1.382V166.1a1.381,1.381,0,0,0-1.381-1.381H164.258A1.381,1.381,0,0,0,162.877,166.1Z" fill="#d2e9f7"/>
          <path id="パス_331" data-name="パス 331" d="M185.568,164.721h-21.31a1.381,1.381,0,0,0-1.381,1.381v16.379a1.382,1.382,0,0,0,1.381,1.382h1.08v9.376a.358.358,0,0,0,.633.23l8.045-9.606h22.711a1.381,1.381,0,0,0,1.381-1.382V166.1a1.381,1.381,0,0,0-1.381-1.381h-4.759" fill="none" stroke="#0686d8" stroke-miterlimit="10" stroke-width="1.5"/>
          <line id="線_133" data-name="線 133" x1="3.214" transform="translate(187.758 164.721)" fill="none" stroke="#0686d8" stroke-miterlimit="10" stroke-width="1.5"/>
          <g id="グループ_55" data-name="グループ 55">
            <path id="パス_332" data-name="パス 332" d="M168.318,200.912a2.739,2.739,0,1,1-2.74-2.739A2.739,2.739,0,0,1,168.318,200.912Z" fill="none" stroke="#0686d8" stroke-miterlimit="10" stroke-width="1.5"/>
            <path id="パス_333" data-name="パス 333" d="M161.349,212.749v-2.555a4.443,4.443,0,0,1,4.444-4.443h0a4.443,4.443,0,0,1,4.445,4.443v2.555" fill="none" stroke="#0686d8" stroke-miterlimit="10" stroke-width="1.5"/>
          </g>
          <path id="パス_334" data-name="パス 334" d="M161.349,192.859h-6.732v19.89H176.56v-19.89h-6.322" fill="none" stroke="#0686d8" stroke-miterlimit="10" stroke-width="1.5"/>
          <path id="パス_335" data-name="パス 335" d="M174.19,174.818a2.5,2.5,0,1,1-2.5-2.5A2.5,2.5,0,0,1,174.19,174.818Z" fill="none" stroke="#0686d8" stroke-miterlimit="10" stroke-width="1.5"/>
          <path id="パス_336" data-name="パス 336" d="M183.842,174.818a2.5,2.5,0,1,1-2.5-2.5A2.5,2.5,0,0,1,183.842,174.818Z" fill="none" stroke="#0686d8" stroke-miterlimit="10" stroke-width="1.5"/>
          <path id="パス_337" data-name="パス 337" d="M193.494,174.818a2.5,2.5,0,1,1-2.5-2.5A2.5,2.5,0,0,1,193.494,174.818Z" fill="none" stroke="#0686d8" stroke-miterlimit="10" stroke-width="1.5"/>
          <line id="線_134" data-name="線 134" x2="24.798" transform="translate(182.611 193.598)" fill="none" stroke="#0686d8" stroke-miterlimit="10" stroke-width="1.5"/>
          <line id="線_135" data-name="線 135" x2="24.799" transform="translate(182.863 200.911)" fill="none" stroke="#0686d8" stroke-miterlimit="10" stroke-width="1.5"/>
          <line id="線_136" data-name="線 136" x2="12.399" transform="translate(183.114 208.225)" fill="none" stroke="#0686d8" stroke-miterlimit="10" stroke-width="1.5"/>
        </g>
        <path id="パス_338" data-name="パス 338" d="M154.256,224.325V197.214a2.491,2.491,0,0,0-2.488-2.488h-3.819v-2.953h-1.5v2.953h-.261V219.95h-3.411l.621,3.783a4.017,4.017,0,0,0,2.463,3.081h5.907A2.492,2.492,0,0,0,154.256,224.325Z" fill="#03436c" opacity="0.3"/>
        <g id="グループ_57" data-name="グループ 57">
          <rect id="長方形_110" data-name="長方形 110" width="36.359" height="30.588" rx="1.804" transform="translate(115.147 195.475)" fill="#fff"/>
          <path id="パス_339" data-name="パス 339" d="M149.768,195.475H116.886a1.74,1.74,0,0,0-1.739,1.739v4.64h36.359v-4.64A1.739,1.739,0,0,0,149.768,195.475Z" fill="#9ecfef"/>
          <line id="線_137" data-name="線 137" y2="5.84" transform="translate(120.973 191.773)" fill="none" stroke="#0686d8" stroke-miterlimit="10" stroke-width="1.5"/>
          <line id="線_138" data-name="線 138" y2="5.84" transform="translate(125.011 191.773)" fill="none" stroke="#0686d8" stroke-miterlimit="10" stroke-width="1.5"/>
          <line id="線_139" data-name="線 139" y2="5.84" transform="translate(129.048 191.773)" fill="none" stroke="#0686d8" stroke-miterlimit="10" stroke-width="1.5"/>
          <line id="線_140" data-name="線 140" y2="5.84" transform="translate(133.086 191.773)" fill="none" stroke="#0686d8" stroke-miterlimit="10" stroke-width="1.5"/>
          <line id="線_141" data-name="線 141" y2="5.84" transform="translate(137.123 191.773)" fill="none" stroke="#0686d8" stroke-miterlimit="10" stroke-width="1.5"/>
          <line id="線_142" data-name="線 142" y2="5.84" transform="translate(141.161 191.773)" fill="none" stroke="#0686d8" stroke-miterlimit="10" stroke-width="1.5"/>
          <line id="線_143" data-name="線 143" y2="5.84" transform="translate(145.199 191.773)" fill="none" stroke="#0686d8" stroke-miterlimit="10" stroke-width="1.5"/>
          <circle id="楕円形_5" data-name="楕円形 5" cx="9.368" cy="9.368" r="9.368" transform="translate(123.718 205.046)" fill="#d2e9f7"/>
          <path id="パス_340" data-name="パス 340" d="M138.738,214.414a5.652,5.652,0,1,1-5.652-5.652A5.652,5.652,0,0,1,138.738,214.414Z" fill="#fff"/>
          <path id="パス_341" data-name="パス 341" d="M129.322,222.995a9.392,9.392,0,0,1-2.8-1.9" fill="none" stroke="#0686d8" stroke-miterlimit="10" stroke-width="1.5"/>
          <path id="パス_342" data-name="パス 342" d="M125.617,220.07a9.345,9.345,0,1,1,5.194,3.434" fill="none" stroke="#0686d8" stroke-miterlimit="10" stroke-width="1.5"/>
          <path id="パス_343" data-name="パス 343" d="M137.335,211.142l-5.486,5.486-3.012-3.012" fill="none" stroke="#0686d8" stroke-miterlimit="10" stroke-width="1.5"/>
          <line id="線_144" data-name="線 144" x2="36.252" transform="translate(115.254 201.854)" fill="none" stroke="#0686d8" stroke-miterlimit="10" stroke-width="1.5"/>
          <path id="パス_344" data-name="パス 344" d="M143.084,226.064h6.684a1.739,1.739,0,0,0,1.738-1.739V197.214a1.739,1.739,0,0,0-1.738-1.739H116.886a1.74,1.74,0,0,0-1.739,1.739v27.111a1.74,1.74,0,0,0,1.739,1.739h26.2Z" fill="none" stroke="#0686d8" stroke-miterlimit="10" stroke-width="1.5"/>
        </g>
        <g id="グループ_58" data-name="グループ 58">
          <path id="パス_345" data-name="パス 345" d="M310.936,163.122l1.6-8.643a16.445,16.445,0,1,1,6.268,7.2Z" fill="#9ecfef"/>
          <path id="パス_346" data-name="パス 346" d="M320.956,132.762a16.4,16.4,0,1,1-2.154,28.917l-7.866,1.443,1.6-8.643a16.354,16.354,0,0,1,2.221-17" fill="none" stroke="#0686d8" stroke-miterlimit="10" stroke-width="1.5"/>
          <path id="パス_347" data-name="パス 347" d="M315.859,136.251a16.432,16.432,0,0,1,3.458-2.663" fill="none" stroke="#0686d8" stroke-miterlimit="10" stroke-width="1.5"/>
          <ellipse id="楕円形_6" data-name="楕円形 6" cx="12.655" cy="12.361" rx="12.655" ry="12.361" transform="translate(314.756 135.437)" fill="#fff"/>
          <path id="パス_348" data-name="パス 348" d="M332.42,148.327l-6.458,3.729a.611.611,0,0,1-.916-.529V144.07a.61.61,0,0,1,.916-.528l6.458,3.728A.61.61,0,0,1,332.42,148.327Z" fill="none" stroke="#0686d8" stroke-miterlimit="10" stroke-width="1.5"/>
        </g>
        <g id="グループ_59" data-name="グループ 59" opacity="0.3">
          <path id="パス_349" data-name="パス 349" d="M377.891,210.8a11,11,0,0,0-6.259-6.55v-1.861h.75V184.9a12.516,12.516,0,0,0-.941.986l-.578-.488a14.052,14.052,0,0,0,3.371,21.012v2.9h-1.251v1.5h1.251v1.518h-1.251v1.5h1.251v1.518h-1.251v1.5h1.251v1.518h-1.251v1.5h1.549l1.887,3.576h2.362v.9a1.752,1.752,0,0,0,1.75,1.75h.964a7.946,7.946,0,0,0,2.77-2.623v-.03h.018a7.838,7.838,0,0,0,1.234-4.219v-.527A7.906,7.906,0,0,0,377.891,210.8Z" fill="#03436c"/>
          <path id="パス_350" data-name="パス 350" d="M372.382,184.152v-.3c-.054.052-.1.088-.155.146Z" fill="#03436c"/>
        </g>
        <g id="グループ_62" data-name="グループ 62">
          <rect id="長方形_111" data-name="長方形 111" width="3.984" height="6.101" rx="1" transform="translate(381.531 219.242)" fill="#5fb0e5"/>
          <rect id="長方形_112" data-name="長方形 112" width="3.984" height="6.101" rx="1" transform="translate(381.531 219.242)" fill="none" stroke="#0686d8" stroke-miterlimit="10" stroke-width="1.5"/>
          <path id="パス_351" data-name="パス 351" d="M396.931,194.461a13.311,13.311,0,1,0-19.947,11.528v13.125l1.887,3.576h9.144l2.24-3.576V205.989A13.3,13.3,0,0,0,396.931,194.461Z" fill="#fff"/>
          <path id="パス_352" data-name="パス 352" d="M376.984,209.654V219.9l1.887,2.791h9.145l2.239-2.791V209.654Z" fill="#9ecfef"/>
          <path id="パス_353" data-name="パス 353" d="M390.255,219.114l-2.239,3.576h-9.145l-1.887-3.576Z" fill="#5fb0e5"/>
          <path id="パス_354" data-name="パス 354" d="M373.437,185.887a13.3,13.3,0,0,0,3.547,20.1v13.125l1.887,3.576h9.144l2.24-3.576V205.989A13.309,13.309,0,0,0,378.62,182.12" fill="none" stroke="#0686d8" stroke-miterlimit="10" stroke-width="1.5"/>
          <path id="パス_355" data-name="パス 355" d="M376.984,182.918a7.956,7.956,0,0,0-2.224,1.608" fill="none" stroke="#0686d8" stroke-miterlimit="10" stroke-width="1.5"/>
          <line id="線_145" data-name="線 145" x2="17.273" transform="translate(374.983 210.06)" fill="none" stroke="#0686d8" stroke-miterlimit="10" stroke-width="1.5"/>
          <line id="線_146" data-name="線 146" x2="17.273" transform="translate(374.983 213.078)" fill="none" stroke="#0686d8" stroke-miterlimit="10" stroke-width="1.5"/>
          <line id="線_147" data-name="線 147" x2="17.273" transform="translate(374.983 216.096)" fill="none" stroke="#0686d8" stroke-miterlimit="10" stroke-width="1.5"/>
          <line id="線_148" data-name="線 148" x2="17.273" transform="translate(374.983 219.114)" fill="none" stroke="#0686d8" stroke-miterlimit="10" stroke-width="1.5"/>
          <path id="パス_356" data-name="パス 356" d="M390.624,194.469a7,7,0,1,1-7.005-7A7,7,0,0,1,390.624,194.469Z" fill="#9ecfef"/>
          <g id="グループ_61" data-name="グループ 61">
            <g id="グループ_60" data-name="グループ 60">
              <path id="パス_357" data-name="パス 357" d="M385.374,185.73l-4,8.6-.669-1.089h6.876l-.573,1.076-4.913,9.218-.586-.283,4.148-9.587.676,1.076h-6.9l.6-1.09,4.591-8.3Z" fill="#0686d8"/>
            </g>
          </g>
        </g>
        <g id="グループ_63" data-name="グループ 63">
          <path id="パス_358" data-name="パス 358" d="M439.413,216.25a4.255,4.255,0,0,0-7.3-2.978,4.254,4.254,0,0,0-6.105,5.927l6.087,6.057,6.242-6.188c.068-.078.244-.3.244-.3A4.237,4.237,0,0,0,439.413,216.25Z" fill="#fff"/>
          <path id="パス_359" data-name="パス 359" d="M439.413,216.25a4.255,4.255,0,0,0-7.3-2.978,4.254,4.254,0,0,0-6.105,5.927l6.087,6.057,6.242-6.188c.068-.078.244-.3.244-.3A4.237,4.237,0,0,0,439.413,216.25Z" fill="none" stroke="#0686d8" stroke-miterlimit="10" stroke-width="1.5"/>
        </g>
      </g>
    </g>
  </g>
</svg>
