<svg xmlns="http://www.w3.org/2000/svg" xmlns:xlink="http://www.w3.org/1999/xlink" width="400" height="400" viewBox="0 0 400 400">
  <defs>
    <clipPath id="clip-アートボード_3">
      <rect width="400" height="400"/>
    </clipPath>
  </defs>
  <g id="アートボード_3" data-name="アートボード 3" clip-path="url(#clip-アートボード_3)">
    <rect width="400" height="400" fill="#fff"/>
    <g id="with-background-color" transform="translate(0 -287.211)">
      <g id="グループ_266" data-name="グループ 266">
        <rect id="長方形_18" data-name="長方形 18" width="400" height="400" transform="translate(0 287.211)" fill="#55c500"/>
        <path id="パス_422" data-name="パス 422" d="M368.957,474.3a140.481,140.481,0,0,0-12.1-58.093A148.818,148.818,0,0,0,323.9,369.177a154.062,154.062,0,0,0-48.907-31.5,161.69,161.69,0,0,0-119.62,0,153,153,0,0,0-48.71,31.5,149.558,149.558,0,0,0-32.846,47.032,144.974,144.974,0,0,0,0,115.976,150.746,150.746,0,0,0,32.846,47.135,155.22,155.22,0,0,0,108.567,43.285,159.028,159.028,0,0,0,42.236-5.528,155.493,155.493,0,0,0,37.86-15.957l29.55,29.812a24.724,24.724,0,1,0,35.045-34.886l-26.632-26.634a150.668,150.668,0,0,0,26.176-43.592A139.822,139.822,0,0,0,368.957,474.3Zm-59.864,40.99A101.924,101.924,0,0,1,287.4,548.034a100.984,100.984,0,0,1-72.173,29.726,99.108,99.108,0,0,1-39.524-7.926,101.07,101.07,0,0,1-32.224-21.8,105.322,105.322,0,0,1,0-147.26,101.168,101.168,0,0,1,32.224-21.792,99.105,99.105,0,0,1,39.524-7.926A101.017,101.017,0,0,1,287.4,400.775a101.714,101.714,0,0,1,21.689,32.853,109.14,109.14,0,0,1,0,81.664Z" transform="translate(-15.621 4.979)" fill="#fff"/>
      </g>
    </g>
  </g>
</svg>
