<svg xmlns="http://www.w3.org/2000/svg" width="71.237" height="152.228" viewBox="0 0 71.237 152.228">
  <g id="グループ_70" data-name="グループ 70" transform="translate(-49.863 -37.8)">
    <g id="グループ_10" data-name="グループ 10">
      <g id="グループ_1" data-name="グループ 1">
        <path id="パス_1" data-name="パス 1" d="M54.7,66.1H51.3a1.028,1.028,0,0,1-1-1.1l.1-9.1a1.028,1.028,0,0,1,1.1-1h3.4a1.028,1.028,0,0,1,1,1.1l-.1,9.1A1.09,1.09,0,0,1,54.7,66.1Z" fill="#394e67"/>
      </g>
      <g id="グループ_2" data-name="グループ 2">
        <path id="パス_2" data-name="パス 2" d="M54.3,66.1H50.9a1.028,1.028,0,0,1-1-1.1l.1-9.1a1.028,1.028,0,0,1,1.1-1h3.4a1.028,1.028,0,0,1,1,1.1l-.1,9.1A1.028,1.028,0,0,1,54.3,66.1Z" fill="#9eb0b0"/>
      </g>
      <g id="グループ_9" data-name="グループ 9">
        <g id="グループ_3" data-name="グループ 3">
          <circle id="楕円形_1" data-name="楕円形 1" cx="0.7" cy="0.7" r="0.7" transform="translate(52.1 56.3)" fill="#6b5ae1"/>
        </g>
        <g id="グループ_4" data-name="グループ 4">
          <circle id="楕円形_2" data-name="楕円形 2" cx="0.5" cy="0.5" r="0.5" transform="translate(52.3 56.5)" fill="#2b1a5c"/>
        </g>
        <g id="グループ_5" data-name="グループ 5">
          <circle id="楕円形_3" data-name="楕円形 3" cx="0.3" cy="0.3" r="0.3" transform="translate(52.4 57.6)" fill="#6b5ae1"/>
        </g>
        <g id="グループ_6" data-name="グループ 6">
          <circle id="楕円形_4" data-name="楕円形 4" cx="0.2" cy="0.2" r="0.2" transform="translate(52.5 57.7)" fill="#2b1a5c"/>
        </g>
        <g id="グループ_7" data-name="グループ 7">
          <circle id="楕円形_5" data-name="楕円形 5" cx="0.1" cy="0.1" r="0.1" transform="translate(52.5 56.8)" fill="#fff"/>
        </g>
        <g id="グループ_8" data-name="グループ 8">
          <circle id="楕円形_6" data-name="楕円形 6" cx="0.1" cy="0.1" r="0.1" transform="translate(52.7 57)" fill="#fff"/>
        </g>
      </g>
    </g>
    <g id="グループ_11" data-name="グループ 11">
      <path id="パス_3" data-name="パス 3" d="M60.5,69.3a27.556,27.556,0,0,1-2.8-4.1c-.4-1.1.6-2.2-.9-3.1a2.9,2.9,0,0,1-.7-1.7c-.1-1.1-1.1.2-.8,1.1s.3,1.4.1,1.4a32.132,32.132,0,0,1-4.2-.1c-1.1-.1-1.6.5-1.2,1s.6.3.9.6c.3.2.5,1.5,1.1,2.1s2.3.3,3.5,1.4c.4.3,2.4,3,2.4,4.5Z" fill="#ff505c"/>
    </g>
    <g id="グループ_12" data-name="グループ 12">
      <path id="パス_4" data-name="パス 4" d="M83.4,65.5c-1.5,1.5-9.6,13.7-10.6,18s3,5.6,5.5,4.1C81.7,85.5,90.9,73.7,92,70.4,93.5,65.2,87.4,61.6,83.4,65.5Z" fill="#483680"/>
    </g>
    <g id="グループ_13" data-name="グループ 13">
      <path id="パス_5" data-name="パス 5" d="M55.6,71.3c2.8,3.1,17.2,23,23.2,15.1,2.2-2.9-3-9-8.2-12.3-3.9-2.5-8.7-5.4-11.1-7.3C59.3,67.8,56.3,71,55.6,71.3Z" fill="#6b45e3"/>
    </g>
    <g id="グループ_14" data-name="グループ 14">
      <path id="パス_6" data-name="パス 6" d="M57.7,69.4c1.1-.1,2.9-.7,6.4,2.5,1,.9,2.6,1.7,3.4,2.8.4.6.1,3.2,6,3.9,3.7.4,6.9,7.3,3.6,9.3a4.281,4.281,0,0,0,1.8-1.5c2.2-2.9-3-9-8.2-12.3-3.9-2.5-8.7-5.4-11.1-7.3A12.386,12.386,0,0,1,57.7,69.4Z" fill="#483680"/>
    </g>
    <g id="グループ_16" data-name="グループ 16">
      <g id="グループ_15" data-name="グループ 15">
        <path id="パス_7" data-name="パス 7" d="M71.7,184.4c0,1.5,3.9,1.1,4.1.4.4-2,1.3-9.8,1.3-9.8l-6.2.1S71.7,182.2,71.7,184.4Z" fill="#ff505c"/>
      </g>
    </g>
    <g id="グループ_17" data-name="グループ 17">
      <path id="パス_8" data-name="パス 8" d="M67.7,141.9c-2.2,10.9,2.2,40.2,2.2,40.2a13.333,13.333,0,0,0,9.4,0s4.1-26,4.2-38.9C83.5,136.6,69.1,134.9,67.7,141.9Z" fill="#6b45e3"/>
    </g>
    <g id="グループ_18" data-name="グループ 18">
      <path id="パス_9" data-name="パス 9" d="M76.3,104.4c-2.1,4.1-7.5,31.7-8.6,37.5-2.1,11.1,11.2,13.2,15.6,6,10.5-17.3,17-34.5,17-38C100.4,101.3,79.6,97.8,76.3,104.4Z" fill="#6b45e3"/>
    </g>
    <g id="グループ_19" data-name="グループ 19">
      <path id="パス_10" data-name="パス 10" d="M80.5,138.7c-1,1.9-2,3.7-2.9,5.6-3.5,6.9-3.6,13.6-2.3,21.1.7,4.2,1.7,8.5,1.6,12.9a34.213,34.213,0,0,1-.4,4.6,10.305,10.305,0,0,0,2.8-.7s4.1-26,4.2-38.9A5.278,5.278,0,0,0,80.5,138.7Z" fill="#483680"/>
    </g>
    <g id="グループ_20" data-name="グループ 20">
      <path id="パス_11" data-name="パス 11" d="M93.2,102.5c0,14.9-9.2,29-15.6,41.9a29.174,29.174,0,0,0-2.6,7.7,8.923,8.923,0,0,0,8.3-4.2c10.5-17.3,17-34.5,17-38C100.4,106.5,97.2,104,93.2,102.5Z" fill="#483680"/>
    </g>
    <g id="グループ_23" data-name="グループ 23">
      <g id="グループ_21" data-name="グループ 21">
        <path id="パス_12" data-name="パス 12" d="M76,187.8s1.2.5.6,1.3-3.8.8-3.8.8-3.5.2-4.5.1-4.4-.7-5.3-1.8a.782.782,0,0,1,.3-1.4Z" fill="#483680"/>
      </g>
      <g id="グループ_22" data-name="グループ 22">
        <path id="パス_13" data-name="パス 13" d="M76,184.1a3.325,3.325,0,0,1,.1,3.7,33.148,33.148,0,0,1-5.3,1.1c-1.4,0-5.7.1-7.5-1.5,0,0-.5-1.5,2.3-1.4,2.8,0,5.9-2.8,5.9-2.8a3.412,3.412,0,0,0,1.8,1.5C74.5,185.3,76,184.1,76,184.1Z" fill="#9b87ff"/>
      </g>
    </g>
    <g id="グループ_25" data-name="グループ 25">
      <g id="グループ_24" data-name="グループ 24">
        <path id="パス_14" data-name="パス 14" d="M111.3,185.5c.7,1.3,4-.7,3.9-1.4-.5-1.9-3-9.4-3-9.4l-5.5,2.8C106.6,177.4,110.4,183.6,111.3,185.5Z" fill="#ff505c"/>
      </g>
    </g>
    <g id="グループ_26" data-name="グループ 26">
      <path id="パス_15" data-name="パス 15" d="M89.4,148c2.7,10.8,19.3,35.4,19.3,35.4a13.23,13.23,0,0,0,8.5-4.1s-7.4-25.3-13-36.9C101.4,136.4,87.6,141.1,89.4,148Z" fill="#6b45e3"/>
    </g>
    <g id="グループ_27" data-name="グループ 27">
      <path id="パス_16" data-name="パス 16" d="M105.7,145.6a8.441,8.441,0,0,1-2.2,3.9,34.068,34.068,0,0,1,6,12.4c.8,3.2.7,6.8,2,9.8,1.4,2.9,3.9,5.1,5.4,7.9.1-.2.2-.2.2-.2S111,158.1,105.7,145.6Z" fill="#483680"/>
    </g>
    <g id="グループ_28" data-name="グループ 28">
      <path id="パス_17" data-name="パス 17" d="M89.9,106.7c-1.2,4.4-1,32.6-.9,38.4.2,11.3,13.7,10.7,16.5,2.7,6.8-19,9.8-37.2,9.1-40.7C112.9,98.8,91.9,99.5,89.9,106.7Z" fill="#6b45e3"/>
    </g>
    <g id="グループ_29" data-name="グループ 29">
      <path id="パス_18" data-name="パス 18" d="M114.7,107.2c-1.7-8.2-21.8-7.7-24.5-.9.4,14.2,9.6,16.1,13.8,20.5,8.6,8.9-.5,17.2-1.6,24.3l-.3,1.2a8.742,8.742,0,0,0,3.6-4.4C112.4,128.8,115.4,110.7,114.7,107.2Z" fill="#483680"/>
    </g>
    <g id="グループ_32" data-name="グループ 32">
      <g id="グループ_30" data-name="グループ 30">
        <path id="パス_19" data-name="パス 19" d="M115.2,187.8s1.2.5.6,1.3-3.8.8-3.8.8-3.5.2-4.5.1-4.4-.7-5.3-1.8a.782.782,0,0,1,.3-1.4Z" fill="#483680"/>
      </g>
      <g id="グループ_31" data-name="グループ 31">
        <path id="パス_20" data-name="パス 20" d="M115.1,184.1a3.325,3.325,0,0,1,.1,3.7,33.148,33.148,0,0,1-5.3,1.1c-1.4,0-5.7.1-7.5-1.5,0,0-.5-1.5,2.3-1.4,2.8,0,5.5-2.5,5.5-2.5a11.611,11.611,0,0,0,2.2,1.2A2.751,2.751,0,0,0,115.1,184.1Z" fill="#9b87ff"/>
      </g>
    </g>
    <g id="グループ_33" data-name="グループ 33">
      <path id="パス_21" data-name="パス 21" d="M99.4,71.4c.1-1.8-4.4-3.5-5.8,2.5-1.3,5.9-.4,5.8-1.7,4s-6.2-8.5-7.3-7.8c-1.9,1.3.3,11.5,5.5,15.5s6,9.5,8.6,4.6C101.4,85.4,99,80,99.4,71.4Z" fill="#6b45e3"/>
    </g>
    <g id="グループ_34" data-name="グループ 34">
      <path id="パス_22" data-name="パス 22" d="M101.5,62c-4.5-1-10.7.1-13.2,1-4.8,1.7-8.2,9.2-9,13.3-1.2,6-6.9,35.6-6.9,35.6,18.2.2,28.1,10.6,42.9,8.3-.3,7.8-.4-46.7-4.8-53.4C108.1,63,103.7,62.5,101.5,62Z" fill="#fff"/>
    </g>
    <g id="グループ_35" data-name="グループ 35">
      <path id="パス_23" data-name="パス 23" d="M82.8,102.2c.8-1.5,1.8-1.9,3.1-2.8,4.5-3.2-2-3.2-4.1-5.2-3-2.9,1.5-4.5,2.1-7.7.4-2.2.5-3.8.7-5.9.3-2.5,4-5.9,3.3-8.5-.4-1.7-1.5-2.6-1.3-4.6.3-1.9,1.6-3.2,2.5-4.8a9.44,9.44,0,0,0-.9.3c-4.8,1.7-8.2,9.2-9,13.3-1.2,6-6.9,35.6-6.9,35.6a50.83,50.83,0,0,1,9.9,1.1C81.2,109.9,81.4,104.8,82.8,102.2Z" fill="#d2e6eb"/>
    </g>
    <g id="グループ_36" data-name="グループ 36">
      <path id="パス_24" data-name="パス 24" d="M89.4,62.6S87,65,85.1,73.8s-1.7,28.3-4.8,39.9a20.638,20.638,0,0,1-9-1.3L80,71.3C80.1,71.3,82.7,62.8,89.4,62.6Z" fill="#6b45e3"/>
    </g>
    <g id="グループ_37" data-name="グループ 37">
      <path id="パス_25" data-name="パス 25" d="M85,70.7a53.525,53.525,0,0,0-3.3,11c-.3,2.3,1.3.9,1.2,3.2,0,1.6-.5,3.1-.2,4.8a16.553,16.553,0,0,0,.6,2.1c.5-7.1,1-13.8,1.9-18.1a42.694,42.694,0,0,1,2.2-7.4C86.4,67.3,85.6,69.4,85,70.7Z" fill="#483680"/>
    </g>
    <g id="グループ_38" data-name="グループ 38">
      <path id="パス_26" data-name="パス 26" d="M78,105.9c-2.5,4,2,.4-.7,7.8a25.986,25.986,0,0,0,3.1,0c1.4-5.2,2.1-11.8,2.6-18.4A68.4,68.4,0,0,1,78,105.9Z" fill="#483680"/>
    </g>
    <g id="グループ_39" data-name="グループ 39">
      <path id="パス_27" data-name="パス 27" d="M88.6,51.1a3.685,3.685,0,0,1,3.5-2.9c3.1-.3,3.9,1.6,4,3.6.1,1.9-.6,3.4-1.7,3A61.108,61.108,0,0,1,88.6,51.1Z" fill="#331a6c"/>
    </g>
    <g id="グループ_41" data-name="グループ 41">
      <g id="グループ_40" data-name="グループ 40">
        <path id="パス_28" data-name="パス 28" d="M95.2,52.7c0-.8-2.6,1.3-2.6,1.3s2.7,7.6-1.6,8.3l1.9,2.6a50.487,50.487,0,0,0,6.4-3.1C99.2,61.7,95.2,60,95.2,52.7Z" fill="#ff505c"/>
      </g>
    </g>
    <g id="グループ_42" data-name="グループ 42">
      <path id="パス_29" data-name="パス 29" d="M86.9,49.3s.3,3.1,1.1,4.3,2.1-3.6,1.6-4.1C89.1,48.9,86.9,49.3,86.9,49.3Z" fill="#331a6c"/>
    </g>
    <g id="グループ_43" data-name="グループ 43">
      <path id="パス_30" data-name="パス 30" d="M95,50.9c-.5,0-.5.6-.5.6a3.474,3.474,0,0,0-1.4-2.2c-1.2-.8-4.2,0-4.8,1.4-.6,1.3.2,4.6,2.5,7.3.5.5,2.8-1,3.6-2.4a4.3,4.3,0,0,0,.6-2.2s.4.2.7-.5C95.9,52.2,95.9,50.8,95,50.9Z" fill="#ff505c"/>
    </g>
    <g id="グループ_44" data-name="グループ 44">
      <path id="パス_31" data-name="パス 31" d="M84.9,48l1.6,2.1a1.445,1.445,0,0,0,1.4.6c2.1-.3,5.3-2.5,6.2.4a6.16,6.16,0,0,0,.8,1.8,14.238,14.238,0,0,0,.6-2.1c.6-3.5-2.3-5.2-7.8-3.1C86.2,48.4,86.2,47.5,84.9,48Z" fill="#331a6c"/>
    </g>
    <g id="グループ_45" data-name="グループ 45">
      <path id="パス_32" data-name="パス 32" d="M107.7,63.8c-1.9-.9-6.6-3.2-9.5,2.3-1.9,3.6-7.3,42.6-7.5,50.7,0,0,22.5,3.9,26.6,2.3C117.3,119,115.1,67.2,107.7,63.8Z" fill="#6b45e3"/>
    </g>
    <g id="グループ_46" data-name="グループ 46">
      <path id="パス_33" data-name="パス 33" d="M112,73.9c-.1.3-.1.6-.2.8-.8,2.5-9.3-2.8-10.2-.2-.2.8,6.3,9.2,5.5,13.1-1.6,7.4-2.8,5.9-1.6,8.8a6.783,6.783,0,0,1-.4,5.4c-.3.5-1.9,2.2-1.9,2.7,0,.9,2.5,2.4,3,3,2.8,3.3,1.9,7.3-1.2,10.1a11.319,11.319,0,0,1-1.3,1c5.8.7,11.8,1.1,13.7.4C117.3,119,115.9,89.8,112,73.9Z" fill="#483680"/>
    </g>
    <g id="グループ_47" data-name="グループ 47">
      <path id="パス_34" data-name="パス 34" d="M92.8,64.8l2.6,1.6,4.9-4.7-2.2-1.1c-3.3,2.9-5.1,4.2-5.3,4.2Z" fill="#d2e6eb"/>
    </g>
    <g id="グループ_48" data-name="グループ 48">
      <path id="パス_35" data-name="パス 35" d="M92.8,64.8l-2.3,1.3.1-3.9,1.4-.7Z" fill="#d2e6eb"/>
    </g>
    <g id="グループ_58" data-name="グループ 58">
      <g id="グループ_49" data-name="グループ 49">
        <path id="パス_36" data-name="パス 36" d="M93.9,65.6l-1.1,5.9a24.6,24.6,0,0,1-.7,2.9,1.854,1.854,0,0,0-.2.7,1.854,1.854,0,0,0-.2.7,7.569,7.569,0,0,0-.1,1.5c0,4,.3,8.1.5,12.1a40.206,40.206,0,0,1-.3,6c-.2,2-.4,4-.7,6-.5,4-1.2,8-1.9,11.9h0l1.8-12c.3-2,.5-4,.7-6s.4-4,.4-6c0-4-.5-8-.5-12.1a7.569,7.569,0,0,1,.1-1.5,1.445,1.445,0,0,1,.2-.7,1.854,1.854,0,0,0,.2-.7c.3-1,.5-1.9.7-2.9a39.465,39.465,0,0,1,1.1-5.8Z" fill="#d2e6eb"/>
      </g>
      <g id="グループ_50" data-name="グループ 50">
        <path id="パス_37" data-name="パス 37" d="M92,65.6l-1.1,5.8c-.2,1-.4,1.9-.7,2.9-.1.2-.1.5-.2.7a1.854,1.854,0,0,0-.2.7,7.569,7.569,0,0,0-.1,1.5c0,3.9.3,7.9.5,11.8a38.364,38.364,0,0,1-.2,5.9c-.2,2-.4,3.9-.7,5.9-.2,2-.6,3.9-.9,5.9a40.281,40.281,0,0,1-1.3,5.8h0a114.306,114.306,0,0,0,2-11.7c.3-2,.5-3.9.7-5.9a38.885,38.885,0,0,0,.3-5.9c-.1-3.9-.5-7.9-.5-11.8a7.569,7.569,0,0,1,.1-1.5,2.544,2.544,0,0,0,.2-.7,1.854,1.854,0,0,0,.2-.7,24.6,24.6,0,0,0,.7-2.9c.4-2,.8-3.9,1.2-5.8Z" fill="#d2e6eb"/>
      </g>
      <g id="グループ_51" data-name="グループ 51">
        <circle id="楕円形_7" data-name="楕円形 7" cx="0.4" cy="0.4" r="0.4" transform="translate(90.2 79.8)" fill="#d2e6eb"/>
      </g>
      <g id="グループ_52" data-name="グループ 52">
        <circle id="楕円形_8" data-name="楕円形 8" cx="0.4" cy="0.4" r="0.4" transform="translate(90.5 87.6)" fill="#d2e6eb"/>
      </g>
      <g id="グループ_53" data-name="グループ 53">
        <circle id="楕円形_9" data-name="楕円形 9" cx="0.4" cy="0.4" r="0.4" transform="translate(90.1 95.9)" fill="#d2e6eb"/>
      </g>
      <g id="グループ_54" data-name="グループ 54">
        <circle id="楕円形_10" data-name="楕円形 10" cx="0.4" cy="0.4" r="0.4" transform="translate(89.1 104.5)" fill="#d2e6eb"/>
      </g>
      <g id="グループ_55" data-name="グループ 55">
        <circle id="楕円形_11" data-name="楕円形 11" cx="0.4" cy="0.4" r="0.4" transform="translate(88 111.4)" fill="#d2e6eb"/>
      </g>
      <g id="グループ_56" data-name="グループ 56">
        <circle id="楕円形_12" data-name="楕円形 12" cx="0.4" cy="0.4" r="0.4" transform="translate(90.9 72.7)" fill="#d2e6eb"/>
      </g>
      <g id="グループ_57" data-name="グループ 57">
        <circle id="楕円形_13" data-name="楕円形 13" cx="0.4" cy="0.4" r="0.4" transform="translate(92.4 65.3)" fill="#d2e6eb"/>
      </g>
    </g>
    <g id="グループ_59" data-name="グループ 59">
      <path id="パス_38" data-name="パス 38" d="M101.9,65C100,66,89.4,77.3,87.1,81.3s1.2,6.3,4.1,5.4c2.9-.8,16.8-10,18.9-12.9C113.3,69.2,107,62.2,101.9,65Z" fill="#6b45e3"/>
    </g>
    <g id="グループ_60" data-name="グループ 60">
      <path id="パス_39" data-name="パス 39" d="M96,79.8c-1.6,3.3-1.8,1.1-3.5,1.4,0,.1-.1.2-.1.3a9.643,9.643,0,0,1-4.2,4.7c-.1,0-.1.1-.2.1a3.933,3.933,0,0,0,3.2.3c2.3-.7,11.6-6.7,16.4-10.5-.4-1-4.3-1.8-6.5.6C100.4,77.6,96.9,78,96,79.8Z" fill="#483680"/>
    </g>
    <g id="グループ_61" data-name="グループ 61">
      <path id="パス_40" data-name="パス 40" d="M73,64.5c.5-1.7-.9-2.4-1.9-3.9-.2-.4-1.1.7.1,2,0,0-3.8-5.1-4.4-4.6-.8.7,2.5,3.2,2.2,4,0,0-1.6-1.9-2.5.3-.7,1.7-.8,3.1,1,3.8,2.1.8,4,3.4,4.3,3.9l2.4-1.8C74.4,68.3,72.6,65.8,73,64.5Z" fill="#ff505c"/>
    </g>
    <g id="グループ_62" data-name="グループ 62">
      <path id="パス_41" data-name="パス 41" d="M89.2,78.3C84.5,75.7,78.1,69.8,75,66.7L70,70S83.8,91.2,92.5,86C92.4,86,93.9,80.9,89.2,78.3Z" fill="#6b45e3"/>
    </g>
    <g id="グループ_63" data-name="グループ 63">
      <path id="パス_42" data-name="パス 42" d="M92.4,86a6.808,6.808,0,0,0,.2-1.7A3.478,3.478,0,0,1,88,83.2a3.658,3.658,0,0,1-2.5-.3c-1.7-.8-3-4.3-3.3-4.5-.9-.7-1.5-2.1-2.5-2-1.4.2-3.4-1.5-4.8-2.8-2.9-2.6-1-2.1-2.5-5.2L69.9,70S83.7,91.3,92.4,86Z" fill="#483680"/>
    </g>
    <g id="グループ_69" data-name="グループ 69">
      <g id="グループ_64" data-name="グループ 64">
        <path id="パス_43" data-name="パス 43" d="M119,49.8h-1.4l-6.8,4.1,2.2-4.1h-7a2.051,2.051,0,0,1-2.1-2.1V39.9a2.051,2.051,0,0,1,2.1-2.1h13a2.051,2.051,0,0,1,2.1,2.1v7.8A2.112,2.112,0,0,1,119,49.8Z" fill="#5f40d2"/>
      </g>
      <g id="グループ_68" data-name="グループ 68">
        <g id="グループ_65" data-name="グループ 65">
          <circle id="楕円形_14" data-name="楕円形 14" cx="0.9" cy="0.9" r="0.9" transform="translate(108 42.7)" fill="#fff"/>
        </g>
        <g id="グループ_66" data-name="グループ 66">
          <circle id="楕円形_15" data-name="楕円形 15" cx="0.9" cy="0.9" r="0.9" transform="translate(111.7 42.7)" fill="#fff"/>
        </g>
        <g id="グループ_67" data-name="グループ 67">
          <circle id="楕円形_16" data-name="楕円形 16" cx="0.9" cy="0.9" r="0.9" transform="translate(115.3 42.7)" fill="#fff"/>
        </g>
      </g>
    </g>
  </g>
</svg>
