<svg xmlns="http://www.w3.org/2000/svg" xmlns:xlink="http://www.w3.org/1999/xlink" width="87.592" height="168.676" viewBox="0 0 87.592 168.676">
  <defs>
    <clipPath id="clip-path">
      <rect width="87.592" height="168.676" fill="none"/>
    </clipPath>
  </defs>
  <g id="リピートグリッド_1" data-name="リピートグリッド 1" clip-path="url(#clip-path)">
    <g id="グループ_972" data-name="グループ 972" transform="translate(-502.508 -427.6)">
      <g id="グループ_923" data-name="グループ 923">
        <path id="パス_491" data-name="パス 491" d="M564.3,462.3a.979.979,0,0,1-1.1,1.1c-1.4,0-1.9.8-1.8,1.4a12.145,12.145,0,0,1-.2,2.3s2.8,1.6,2.9.8a4.1,4.1,0,0,1,.1-1.1c.2-1.5.9-.4,1.6-1.5.3-.6-.1-1.8-.7-3C564.7,461.8,564.3,461.7,564.3,462.3Z" fill="#ff505c"/>
      </g>
      <g id="グループ_924" data-name="グループ 924">
        <path id="パス_492" data-name="パス 492" d="M548.2,538.8c-2.3,6,3,43.4,2.1,48.6-.1.6,4.3.8,4.2.1,0,0,5.4-36.1,7.1-50.5C561.9,534,549.4,535.6,548.2,538.8Z" fill="#ff505c"/>
      </g>
      <g id="グループ_925" data-name="グループ 925">
        <path id="パス_493" data-name="パス 493" d="M547.7,539.6c-1.6,4.1.1,22.6,1.2,35.7h.1a40.128,40.128,0,0,0,8.5.2c1.8-14.2,5.2-27.9,5.2-36.6C562.7,538.8,548.9,536.4,547.7,539.6Z" fill="#6b45e3"/>
      </g>
      <g id="グループ_926" data-name="グループ 926">
        <path id="パス_494" data-name="パス 494" d="M558.1,542.1c0,4.1-.1,5.8-.4,9.6-.2,2.3-1.5,3.3-1.2,5.6.3,2.2,1.9,7.4-.2,6.5-2.4-1-.1,7.7.4,11.7h.7c1.8-14.2,5.2-27.9,5.2-36.6,0,0-3.1-.5-6.4-.8A12.353,12.353,0,0,1,558.1,542.1Z" fill="#483680"/>
      </g>
      <g id="グループ_927" data-name="グループ 927">
        <path id="パス_495" data-name="パス 495" d="M554.5,587.3l-4.2.1a6.566,6.566,0,0,0,3.6,8c4.3,2.1,3.6-.5,3.3-1.7C557,593.1,554.4,591.1,554.5,587.3Z" fill="#ff505c"/>
      </g>
      <g id="グループ_928" data-name="グループ 928">
        <path id="パス_496" data-name="パス 496" d="M531.1,537.1c-5,4-18.6,37.1-22.1,41.2-.4.5,3.1,2.8,3.3,2.1,0,0,21.1-24.2,29.8-35.7C544,542.2,533.8,535,531.1,537.1Z" fill="#ff505c"/>
      </g>
      <g id="グループ_929" data-name="グループ 929">
        <path id="パス_497" data-name="パス 497" d="M531.5,535.1c-3.2,2.5-10.6,16.9-16.3,28.5a36.032,36.032,0,0,0,8.3,5.7c8.6-10,20.2-22.5,20.5-27.9C544.2,537.3,535.5,531.9,531.5,535.1Z" fill="#6b45e3"/>
      </g>
      <g id="グループ_930" data-name="グループ 930">
        <path id="パス_498" data-name="パス 498" d="M541,536.6c-.1.4.6,7-1.4,8.8-1.2,1.1-3.1,6-4.5,7.1-4.8,4-6.6,1.8-7.1,7.3-.4,4.2-5.5,5.5-9.2,6.7,1.5,1,3,1.9,4.5,2.8,8.6-10,20.2-22.5,20.5-27.9C544.1,539.8,542.8,538,541,536.6Z" fill="#483680"/>
      </g>
      <g id="グループ_931" data-name="グループ 931">
        <path id="パス_499" data-name="パス 499" d="M503.8,581.1c-.9.8-3,2.6,1.8,3.2,5.6.7,6.5-3.4,7.4-4.7l-3.3-2.3C507.6,580.5,504.3,580.7,503.8,581.1Z" fill="#ff505c"/>
      </g>
      <g id="グループ_932" data-name="グループ 932">
        <path id="パス_500" data-name="パス 500" d="M505.2,581.8c-.9-.9,1-1.6,1-1.6a8.337,8.337,0,0,0-2.4.8c-.9.8-3.1,2.6,1.7,3.3,4.4.6,6.1-2.3,6.1-2.3S507.1,583.8,505.2,581.8Z" fill="#fc9393"/>
      </g>
      <g id="グループ_933" data-name="グループ 933">
        <path id="パス_501" data-name="パス 501" d="M555.8,591.7s1,1.6-.3,1.9c-2.7.6-5.5-3.4-5.5-3.4s-.1,3.4,3.9,5.3c4.3,2.1,3.6-.6,3.3-1.8A6.664,6.664,0,0,0,555.8,591.7Z" fill="#fc9393"/>
      </g>
      <g id="グループ_934" data-name="グループ 934">
        <path id="パス_502" data-name="パス 502" d="M556.7,467.6c-2.1-1.6-7.1,2.7-7.2,4.9-.1,2,3,12.4,5.3,15.9s8.6,3,8.6-3.3C563.4,482.6,559.6,469.8,556.7,467.6Z" fill="#483680"/>
      </g>
      <g id="グループ_935" data-name="グループ 935">
        <path id="パス_503" data-name="パス 503" d="M556.7,467.6c-.8-.6-2.1-.3-3.3.4a5.777,5.777,0,0,1,3.8,3.8c.5,1.5.7,3.2,1.3,4.6.1.3.4.5.7,1.1a8.785,8.785,0,0,1,.6,1c.6,1.4.8,1.7.5,1.1,1.2,2.7.8,5.9-2,7.5a5.7,5.7,0,0,1-4,.6c.1.2.3.5.4.7,2.3,3.5,8.6,3,8.6-3.3C563.4,482.6,559.6,469.8,556.7,467.6Z" fill="#1e0c44"/>
      </g>
      <g id="グループ_936" data-name="グループ 936">
        <path id="パス_504" data-name="パス 504" d="M560.4,481.9c-4.9-3.4-7.3,2.6-4.8,5.6s5.4,2.1,6.4-.2C562.9,485,562.8,483.5,560.4,481.9Z" fill="#f63c4c"/>
      </g>
      <g id="グループ_937" data-name="グループ 937">
        <path id="パス_505" data-name="パス 505" d="M540.2,503.3c.1,13.3,7.8,39.5,7.8,39.5l14.4-1s4.6-34.7,1.6-41.7C562,495.6,540.1,497.4,540.2,503.3Z" fill="#6b45e3"/>
      </g>
      <g id="グループ_938" data-name="グループ 938">
        <path id="パス_506" data-name="パス 506" d="M540.2,503.3c0,5.3,3.1,21.8,4.5,28.7,3.3,3.3,8.3,4.9,12.7,1.8,2.6-1.9-.8,2.9.8,8.4l4.2-.3s4.6-34.7,1.6-41.7C562,495.6,540.1,497.4,540.2,503.3Z" fill="#483680"/>
      </g>
      <g id="グループ_939" data-name="グループ 939">
        <path id="パス_507" data-name="パス 507" d="M527.7,500.1c-3,7,1.5,41.7,1.5,41.7l14.3,1s8.6-26.2,8.6-39.5C552.2,497.4,529.6,495.6,527.7,500.1Z" fill="#6b45e3"/>
      </g>
      <g id="グループ_940" data-name="グループ 940">
        <path id="パス_508" data-name="パス 508" d="M545.8,499.2c-.4.3-18-1.6-18,9.8,0,5.9,1.7,8.1,1.7,13.9,0,9.8,16,7.8,11.1,19.6l2.8.7S552,517,552,503.7C552.2,501.7,548.6,496.6,545.8,499.2Z" fill="#483680"/>
      </g>
      <g id="グループ_941" data-name="グループ 941">
        <path id="パス_509" data-name="パス 509" d="M547,457.9h-3.2s1.3,5.1,0,8.6c0,0-4.1.1-5.9,2,0,0,2.1,7.4,7.5,7.4s7.5-7.4,7.5-7.4c-1.9-1.9-5.9-2-5.9-2C545.8,463,547,457.9,547,457.9Z" fill="#ff505c"/>
      </g>
      <g id="グループ_942" data-name="グループ 942">
        <path id="パス_510" data-name="パス 510" d="M531.3,449.9c-5-4.6-9.2.1-8.1,4.5,1.1,4.3,11.9,19.7,14,20.4,4,1.3,3.8-3.8,4-6.6C541.4,464.3,533.3,451.7,531.3,449.9Z" fill="#483680"/>
      </g>
      <g id="グループ_943" data-name="グループ 943">
        <path id="パス_511" data-name="パス 511" d="M535.9,462.4c-.7.4.8,2,1.3,2.7,1,1.7-.2,3.8-1.8,4.6a2.867,2.867,0,0,1-2.7,0c2,2.6,3.7,4.6,4.5,4.9,4,1.3,3.8-4.3,4-7.1.2-2.2-4.3-9.7-4.3-9.7C537.3,459.8,537.6,461.5,535.9,462.4Z" fill="#1e0c44"/>
      </g>
      <g id="グループ_944" data-name="グループ 944">
        <path id="パス_512" data-name="パス 512" d="M525.2,450.3c-2.2,1.9-2.1,3.4-.9,5.5,1.3,2.3,4.3,2.7,6.4-.5C532.8,452,529.7,446.3,525.2,450.3Z" fill="#1e0c44"/>
      </g>
      <g id="グループ_945" data-name="グループ 945">
        <path id="パス_513" data-name="パス 513" d="M552.5,483.8c1.3-5.4,3.2-7.1.6-10-2.1-2.3.3-5.7.3-5.7a37.2,37.2,0,0,1-4.9-2c-.4-.4-1.8-2.5-1.8-2.5h-2.4s-.3,1.4-1.2,1.4c-.5,0-.6-2-2.4-2,0,0-.6,8.4-2.8,10.7-2.7,2.9-.8,4.6.6,10,1.3,5.4-11.7,10.5-13,21.5-.5,4.4.1,19,.1,19l3.5-19s.7,15.5,3.8,18.2a13.427,13.427,0,0,0,6.6,2.5,39.929,39.929,0,0,0,6.2.5,28.055,28.055,0,0,0,9.1-1.4c.1,0,.2-.1.3-.1a7.13,7.13,0,0,0,2.6-1.5l.3-.3c2.9-3.5,4.1-18,4.1-18l3.7,19s.6-14.6.1-19C564.6,494.2,551.2,489.2,552.5,483.8Z" fill="#13aed4"/>
      </g>
      <g id="グループ_946" data-name="グループ 946">
        <path id="パス_514" data-name="パス 514" d="M536.3,506.5c-3,7,.2,15.3,1.7,17a30.274,30.274,0,0,1-.6-3.2C536.8,515.7,536.8,511.1,536.3,506.5Z" fill="#008dbd"/>
      </g>
      <g id="グループ_947" data-name="グループ 947">
        <path id="パス_515" data-name="パス 515" d="M541.2,510.1c-2,3.1.7,6.7,4.8,2.6-.3-.2-2.5,0-2.8-.3A14.337,14.337,0,0,1,541.2,510.1Z" fill="#008dbd"/>
      </g>
      <g id="グループ_948" data-name="グループ 948">
        <path id="パス_516" data-name="パス 516" d="M552.5,483.8c1.3-5.4,3.2-7.1.6-10-2.1-2.3.3-5.7.3-5.7a37.2,37.2,0,0,1-4.9-2c-.4-.4-1.2,2.4-1.8,3.7a23.058,23.058,0,0,1-3.4,3.6h3.8c4.5,0,4.5,7,0,7,0,0-5.4,0-5.4.4,0,.2,5.8,2.3,6.5,3.7.4.9-2.4,2.8-2.1,3.8.7,2.2,2.2,2.8,3.3,4.7,3.2,5.3,2.6,15.2,2.6,15.2l4-5.2s1.5,6.4-5.9,10.7c-5.9,3.4-9.3,12.1-10.8,12.4a48.251,48.251,0,0,0,6.2.5,24.445,24.445,0,0,0,9.1-1.4c.1,0,.2-.1.3-.1a10.856,10.856,0,0,0,3-1.8c2.9-3.5,4.1-18,4.1-18l3.7,19s.6-14.6.1-19C564.6,494.2,551.2,489.2,552.5,483.8Z" fill="#008dbd"/>
      </g>
      <g id="グループ_949" data-name="グループ 949">
        <path id="パス_517" data-name="パス 517" d="M561.3,466.4c-1.6,6.3-5.4,16.3-5.7,17.5-1,3.3,2.3,6.2,4.6,5,4.9-2.5,2.6-15.2,3.9-21.1C564.4,466.1,561.4,465.7,561.3,466.4Z" fill="#ff505c"/>
      </g>
      <g id="グループ_951" data-name="グループ 951">
        <g id="グループ_950" data-name="グループ 950">
          <path id="パス_518" data-name="パス 518" d="M518,435.6c-.4-.5-3.3,0-2.3,1.5,3.3,5,5.6,17.8,11,18.4,2.6.3,4.7-3.6,2.6-6.3C528.5,448,521.7,440.9,518,435.6Z" fill="#ff505c"/>
        </g>
      </g>
      <g id="グループ_952" data-name="グループ 952">
        <path id="パス_519" data-name="パス 519" d="M516.6,430.6c-.2-.3-.9.3-.5,1.4a7.236,7.236,0,0,0,.4.7,2.507,2.507,0,0,1-.4-.7c-.8-1.4-2.6-4.4-3.4-4.4-1.1,0,2.2,3.4,1.8,4.2,0,0-.9-2.4-2-.3-.9,1.7-.6,2.9,1.1,3.8,2,1,1.7,1.5,2.5,2.3l2.2-1.5a1.862,1.862,0,0,1-.2-2C518.9,432.5,517.4,432.2,516.6,430.6Z" fill="#ff505c"/>
        <path id="パス_520" data-name="パス 520" d="M516.1,432a5.732,5.732,0,0,0,.4.7A2.766,2.766,0,0,0,516.1,432Z" fill="#ff505c"/>
      </g>
      <g id="グループ_959" data-name="グループ 959">
        <g id="グループ_953" data-name="グループ 953">
          <path id="パス_521" data-name="パス 521" d="M544.5,450.8c-2,.5-2,2.5-1.7,4.1a.319.319,0,0,0,.3.3,5.639,5.639,0,0,1,2.4-1.3,8.306,8.306,0,0,1,2.7-.3c.1,0,.2-.2.1-.4C547.6,451.7,546.5,450.3,544.5,450.8Z" fill="#331a6c"/>
        </g>
        <g id="グループ_954" data-name="グループ 954">
          <path id="パス_522" data-name="パス 522" d="M547.8,453.7c-.9.4-3.5,1.9-1.5,4.2s5.4-.1,5-2.3A2.609,2.609,0,0,0,547.8,453.7Z" fill="#331a6c"/>
        </g>
        <g id="グループ_955" data-name="グループ 955">
          <path id="パス_523" data-name="パス 523" d="M545.2,455.7c-.8,1.5-.6,1.9-.6,1.9s-.4-.4-.8-.2-.7,1.8-.3,2.1a.611.611,0,0,0,.7.1c0,1.9,3.9,2.8,4.6,2.5s1-1,1.1-2.3.7-3.8-.5-4.8A2.94,2.94,0,0,0,545.2,455.7Z" fill="#ff505c"/>
        </g>
        <g id="グループ_956" data-name="グループ 956">
          <path id="パス_524" data-name="パス 524" d="M547.4,452.3a7.026,7.026,0,0,0-3.6,1.2c-2.9,1.9-1.7,6.5.1,6.6.2,0,.2-.5.2-.5a2.252,2.252,0,0,1-.7-.1c-.4-.4-.3-1.9.3-2.1a.619.619,0,0,1,.8.4c2.8.5,4-1,5.1-2.5C550.6,454.3,549.4,452.4,547.4,452.3Z" fill="#331a6c"/>
        </g>
        <g id="グループ_957" data-name="グループ 957">
          <path id="パス_525" data-name="パス 525" d="M548.3,452.8a3.127,3.127,0,0,0-1.9.4,3.508,3.508,0,0,0-.8.5c-.2.2-.5.4-.6.6a5.071,5.071,0,0,0-.9,1.6,13.028,13.028,0,0,0,1.5-1,9.992,9.992,0,0,1,1.4-.8,3.36,3.36,0,0,1,1.4-.5,2.968,2.968,0,0,1,1.6.1A3.152,3.152,0,0,0,548.3,452.8Z" fill="#fff"/>
        </g>
        <g id="グループ_958" data-name="グループ 958">
          <path id="パス_526" data-name="パス 526" d="M548.8,459.7c-.4,0-.9,1.3,0,1.3C549.6,461,549.1,459.7,548.8,459.7Z" fill="#fff"/>
        </g>
      </g>
      <g id="グループ_966" data-name="グループ 966">
        <g id="グループ_960" data-name="グループ 960">
          <path id="パス_527" data-name="パス 527" d="M560.2,451.4a1.189,1.189,0,0,0-1.5-.7,1.142,1.142,0,0,0-.6,1.5l5.5,15a1.138,1.138,0,0,0,1.4.8,1.189,1.189,0,0,0,.7-1.5Zm3.7,15.5-.4-1.2a.744.744,0,0,1,1.4-.5l.4,1.2A.744.744,0,0,1,563.9,466.9Z" fill="#483680"/>
        </g>
        <g id="グループ_961" data-name="グループ 961">
          <path id="パス_528" data-name="パス 528" d="M556,449.8a4.317,4.317,0,0,0-1,5c.8,2.1,2.7,3.4,4.5,3.1l13.4-.4-6.7-15.7Z" fill="#bb0434"/>
        </g>
        <g id="グループ_962" data-name="グループ 962">
          <path id="パス_529" data-name="パス 529" d="M559.5,455.8a6.988,6.988,0,0,1-.9-8l-2.5,2a4.317,4.317,0,0,0-1,5c.8,2.1,2.7,3.4,4.5,3.1l2.5-.1A7.267,7.267,0,0,1,559.5,455.8Z" fill="#d0e4e9"/>
        </g>
        <g id="グループ_963" data-name="グループ 963">
          <ellipse id="楕円形_70" data-name="楕円形 70" cx="8.7" cy="7.2" rx="8.7" ry="7.2" transform="matrix(-0.345, -0.939, 0.939, -0.345, 567.087, 459.567)" fill="#9a032f"/>
        </g>
        <g id="グループ_964" data-name="グループ 964">
          <ellipse id="楕円形_71" data-name="楕円形 71" cx="8" cy="6.7" rx="8" ry="6.7" transform="matrix(-0.345, -0.939, 0.939, -0.345, 567.317, 458.739)" fill="#483680"/>
        </g>
        <g id="グループ_965" data-name="グループ 965">
          <path id="パス_530" data-name="パス 530" d="M564.1,448.3a8.026,8.026,0,0,0,.6,3,8.866,8.866,0,0,0,.8,1.7h.2a2.483,2.483,0,0,0-1.6-4.7Z" fill="#1e0c44"/>
        </g>
      </g>
      <g id="グループ_967" data-name="グループ 967">
        <path id="パス_531" data-name="パス 531" d="M560.9,462.4c.4.4.5,2.3.5,2.3.8-.4.9-.5.9-1.5C562.2,462.1,560.4,461.9,560.9,462.4Z" fill="#ff505c"/>
      </g>
      <g id="グループ_968" data-name="グループ 968">
        <path id="パス_532" data-name="パス 532" d="M586.8,438.6l-6.6,4.2a.483.483,0,0,0-.1.7.758.758,0,0,0,.4.2.367.367,0,0,0,.3-.1l6.6-4.2a.483.483,0,0,0,.1-.7C587.4,438.5,587.1,438.5,586.8,438.6Z" fill="#ffab02"/>
      </g>
      <g id="グループ_969" data-name="グループ 969">
        <path id="パス_533" data-name="パス 533" d="M589.7,453.9l-8.3-2.1c-.3-.1-.5.1-.6.4s.1.5.4.6l8.3,2.1h.1a.664.664,0,0,0,.5-.4A.548.548,0,0,0,589.7,453.9Z" fill="#ffab02"/>
      </g>
      <g id="グループ_970" data-name="グループ 970">
        <path id="パス_534" data-name="パス 534" d="M586,444.6l-4.6,1.2a.548.548,0,0,0-.4.6.664.664,0,0,0,.5.4h.1l4.6-1.2a.548.548,0,0,0,.4-.6C586.6,444.6,586.3,444.5,586,444.6Z" fill="#ffab02"/>
      </g>
      <g id="グループ_971" data-name="グループ 971">
        <path id="パス_535" data-name="パス 535" d="M589.1,448.6l-7.2.3a.5.5,0,0,0,0,1h0l7.2-.3a.5.5,0,0,0,0-1Z" fill="#ffab02"/>
      </g>
    </g>
  </g>
</svg>
