<svg xmlns="http://www.w3.org/2000/svg" width="141.8" height="150.8" viewBox="0 0 141.8 150.8">
  <g id="グループ_719" data-name="グループ 719" transform="translate(-248.6 -241)">
    <g id="グループ_597" data-name="グループ 597">
      <g id="グループ_596" data-name="グループ 596">
        <path id="パス_300" data-name="パス 300" d="M274.3,277.1c-.6,3.5,5.5,24,6.8,26.9,1.9,4.3,9,4.2,10.2-.3s-4.5-26-5.2-28.1C284.1,270,275.3,271.5,274.3,277.1Z" fill="#ff505c"/>
      </g>
    </g>
    <g id="グループ_600" data-name="グループ 600">
      <g id="グループ_599" data-name="グループ 599">
        <g id="グループ_598" data-name="グループ 598">
          <path id="パス_301" data-name="パス 301" d="M281.9,271.1a7.964,7.964,0,0,0-7.5,3.2,7.564,7.564,0,0,0-1.1,2.6c-.6,3.3,3.6,17.4,5.5,24.2a11.449,11.449,0,0,1,4.5-4.5,29.507,29.507,0,0,1,8.1-3.1,75.031,75.031,0,0,0-4.5-17.9A6.11,6.11,0,0,0,281.9,271.1Z" fill="#483680"/>
        </g>
      </g>
    </g>
    <g id="グループ_602" data-name="グループ 602">
      <g id="グループ_601" data-name="グループ 601">
        <path id="パス_302" data-name="パス 302" d="M293.9,327.5c-.3-1.2-1.6-1.1-2.1-2a6.913,6.913,0,0,0-.2,2c.1.8.8.5,1.5,1.4s1.9.9,1.8.5C294.9,328.8,294.4,329,293.9,327.5Z" fill="#ff505c"/>
      </g>
    </g>
    <g id="グループ_604" data-name="グループ 604">
      <g id="グループ_603" data-name="グループ 603">
        <path id="パス_303" data-name="パス 303" d="M287.3,296.8c-2.3.1-5.7,1.4-5.3,7.4s5.2,14,5.9,20.4c.1.7,4.3,1.8,3.8-.2C290.1,318,295.7,296.4,287.3,296.8Z" fill="#ff505c"/>
      </g>
    </g>
    <g id="グループ_606" data-name="グループ 606">
      <g id="グループ_605" data-name="グループ 605">
        <path id="パス_304" data-name="パス 304" d="M287.9,324.5c.1,1.2.8,2.8,1.2,4.7.4,1.7.9,2.5,2,2.2,1-.3,1.5.9,2.4-.1s-1.4-5.3-1.8-7C291.4,323.1,287.7,322.5,287.9,324.5Z" fill="#ff505c"/>
      </g>
    </g>
    <g id="グループ_614" data-name="グループ 614">
      <g id="グループ_608" data-name="グループ 608">
        <g id="グループ_607" data-name="グループ 607">
          <path id="パス_305" data-name="パス 305" d="M286.8,343.2c-6.4-6.7-10.9-.8-11.9,2-1.8,5.2,11.7,39.9,10.7,43.6.7.6,5.1,1,4.7-.5C288,378.3,292.3,348.9,286.8,343.2Z" fill="#ff505c"/>
        </g>
      </g>
      <g id="グループ_613" data-name="グループ 613">
        <g id="グループ_610" data-name="グループ 610">
          <g id="グループ_609" data-name="グループ 609">
            <path id="パス_306" data-name="パス 306" d="M297.6,388.6l-12.3,1.1s-1.2.5-.6,1.3c.6.7,3.7.7,3.7.7a2.779,2.779,0,0,1,1.5-.8c.7,0,1.9.9,2.9.9s4.3-.8,5.1-1.8C298.8,388.9,297.6,388.6,297.6,388.6Z" fill="#483680"/>
          </g>
        </g>
        <g id="グループ_612" data-name="グループ 612">
          <g id="グループ_611" data-name="グループ 611">
            <path id="パス_307" data-name="パス 307" d="M295.5,387.7c-2.7.1-5.5-3-5.5-3a3.654,3.654,0,0,1-2.5,1.5,3.4,3.4,0,0,1-2.7-.4c.5,1.1-.7,2.2.4,4a34.065,34.065,0,0,0,5.2,1c1.3-.1,5.6,0,7.3-1.6C297.7,389,298.2,387.6,295.5,387.7Z" fill="#fc9393"/>
          </g>
        </g>
      </g>
    </g>
    <g id="グループ_627" data-name="グループ 627">
      <g id="グループ_616" data-name="グループ 616">
        <g id="グループ_615" data-name="グループ 615">
          <path id="パス_308" data-name="パス 308" d="M263,311.8c.2,2.8,9.3,37.5,11.6,41.7a43.061,43.061,0,0,0,9.1-1.1,47.61,47.61,0,0,0,8.9-3.2c-.2-8.9-6.4-40.1-7.6-42.4C281.8,300.9,262.2,302.7,263,311.8Z" fill="#483680"/>
        </g>
      </g>
      <g id="グループ_619" data-name="グループ 619">
        <g id="グループ_618" data-name="グループ 618">
          <g id="グループ_617" data-name="グループ 617">
            <path id="パス_309" data-name="パス 309" d="M263,311.8c.2,2.8,4.9,21.4,9,34.2.2.7.5,1.5.7,2.1v.1c.7,2,1.3,3.8,1.9,5.3,0,0,2,0,4.7-.3,0,0-4.3-6.4-3.8-14,.2-2.3-5.3-6.1-4.6-8.3.2-.7,2.2-2.7,2.3-3.4.4-10.3,3.8-11.9,11.2-13.3a12.412,12.412,0,0,1,2.7-.3,54.261,54.261,0,0,0-2-7.1C281.8,300.9,262.2,302.7,263,311.8Z" fill="#2b1a5c"/>
          </g>
        </g>
      </g>
      <g id="グループ_626" data-name="グループ 626">
        <g id="グループ_622" data-name="グループ 622">
          <g id="グループ_621" data-name="グループ 621">
            <g id="グループ_620" data-name="グループ 620">
              <path id="パス_310" data-name="パス 310" d="M272,346h0c.2.8.5,1.5.7,2.1v.1c3.6-.1,9.9-1.4,16-3.3.9-.3,2.6-.8,3.4-1.1,0-.8-.3-1.7-.3-2.5C284.5,343.8,275.5,346.2,272,346Z" fill="#9b87ff"/>
            </g>
          </g>
        </g>
        <g id="グループ_625" data-name="グループ 625">
          <g id="グループ_624" data-name="グループ 624">
            <g id="グループ_623" data-name="グループ 623">
              <path id="パス_311" data-name="パス 311" d="M272.9,348.9c.3.8.3.9.5,1.5,3.6-.1,17.3-3.4,18.9-4.2,0-.5-.2-1-.2-1.6C285.1,346.9,276.3,349.2,272.9,348.9Z" fill="#fc9393"/>
            </g>
          </g>
        </g>
      </g>
    </g>
    <g id="グループ_629" data-name="グループ 629">
      <g id="グループ_628" data-name="グループ 628">
        <path id="パス_312" data-name="パス 312" d="M263.8,347c-1.3-2.6-9.2-2-10.6.1-2.9,4.3,4.7,33,3.3,37.7-.2.6,4.5,1,4.4.5C259.3,380.7,267.9,355.6,263.8,347Z" fill="#ff505c"/>
      </g>
    </g>
    <g id="グループ_631" data-name="グループ 631">
      <g id="グループ_630" data-name="グループ 630">
        <path id="パス_313" data-name="パス 313" d="M249.2,310.6c-.5,3.8.6,24.9,4.6,37.5,2.5,8,10.8,5,11.7,1.9,4.4-13.8,7-36.8,6.2-40.1C270.2,303.1,250.6,300.8,249.2,310.6Z" fill="#ff505c"/>
      </g>
    </g>
    <g id="グループ_644" data-name="グループ 644">
      <g id="グループ_633" data-name="グループ 633">
        <g id="グループ_632" data-name="グループ 632">
          <path id="パス_314" data-name="パス 314" d="M249.2,310.3c-.4,2.9.4,39.5,1.6,44.1a44.241,44.241,0,0,0,9.1.7,33.358,33.358,0,0,0,7.8-1.2c3.7-8.7,4.7-41.7,4-44.3C270.2,303.2,250.6,301,249.2,310.3Z" fill="#483680"/>
        </g>
      </g>
      <g id="グループ_636" data-name="グループ 636">
        <g id="グループ_635" data-name="グループ 635">
          <g id="グループ_634" data-name="グループ 634">
            <path id="パス_315" data-name="パス 315" d="M249.2,310.3c-.4,2.9-.2,22.4.8,36,.1.8.1,1.5.2,2.3v.1c.2,2.1.4,4.1.6,5.7a42.819,42.819,0,0,0,4.6.6,24.748,24.748,0,0,1-.4-14.8c.7-2.3-3.8-7.2-2.6-9.3.4-.6,2.8-2.2,3-2.9,2.8-10.3,6.4-11.1,14-11.1a12.414,12.414,0,0,1,2.7.3,52.558,52.558,0,0,0-.3-7.5C270.2,303.2,250.6,301,249.2,310.3Z" fill="#2b1a5c"/>
          </g>
        </g>
      </g>
      <g id="グループ_643" data-name="グループ 643">
        <g id="グループ_639" data-name="グループ 639">
          <g id="グループ_638" data-name="グループ 638">
            <g id="グループ_637" data-name="グループ 637">
              <path id="パス_316" data-name="パス 316" d="M250.1,346.3h0a16.414,16.414,0,0,0,.2,2.3v.1c3.5.7,10,.5,16.4-.1l2.7-.3c.2-.8.3-1.5.5-2.4C262.1,346.9,253.4,347.2,250.1,346.3Z" fill="#9b87ff"/>
            </g>
          </g>
        </g>
        <g id="グループ_642" data-name="グループ 642">
          <g id="グループ_641" data-name="グループ 641">
            <g id="グループ_640" data-name="グループ 640">
              <path id="パス_317" data-name="パス 317" d="M250.3,349.4c.1.9.1.9.2,1.7,3.5.7,10,.5,16.4-.1.6-.1,1.2-.1,1.8-.2.1-.5.3-1,.4-1.6C261.7,350.1,253.5,350.4,250.3,349.4Z" fill="#fc9393"/>
            </g>
          </g>
        </g>
      </g>
    </g>
    <g id="グループ_646" data-name="グループ 646">
      <g id="グループ_645" data-name="グループ 645">
        <path id="パス_318" data-name="パス 318" d="M273.4,254.9c-.5.7,1.6,5.6,2.3,4.1.7-1.4.5-4.8.5-4.8S273.9,254.2,273.4,254.9Z" fill="#e25773"/>
      </g>
    </g>
    <g id="グループ_648" data-name="グループ 648">
      <g id="グループ_647" data-name="グループ 647">
        <path id="パス_319" data-name="パス 319" d="M277.7,269.2a48.721,48.721,0,0,0-14.5.4c-10.6,1.7-12.4,11.9-13.1,18-.8,7.1-1.5,34.3-1.5,34.3,6.4,2.9,33.7,2.9,40.1,0,0,0,.1-34-.5-41.1C288,279.4,288.4,270.6,277.7,269.2Z" fill="#6b45e3"/>
      </g>
    </g>
    <g id="グループ_650" data-name="グループ 650">
      <g id="グループ_649" data-name="グループ 649">
        <path id="パス_320" data-name="パス 320" d="M276.2,286.6c-5.3-2-23.4-8.1-21.1,1.6,2.2,9.3,14.3,11.4,19.9,15.2,6.1,4.3,6.4,9.7,6,12.1-.8,5-7.5,6.5-11.7,7.3-1.9.4-3.9.8-5.9,1.1,9.9.4,21.4-.3,25.3-2.1,0,0,.1-34-.5-41.1C288,279.6,286.6,290.4,276.2,286.6Z" fill="#5f40d2"/>
      </g>
    </g>
    <g id="グループ_657" data-name="グループ 657">
      <g id="グループ_653" data-name="グループ 653">
        <g id="グループ_652" data-name="グループ 652">
          <g id="グループ_651" data-name="グループ 651">
            <path id="パス_321" data-name="パス 321" d="M248.7,314.1v2.8c4.2,1.2,12.1,1.7,20,1.7s15.8-.6,20-1.7v-2.8C282,316.6,255.3,316.6,248.7,314.1Z" fill="#fc9393"/>
          </g>
        </g>
      </g>
      <g id="グループ_656" data-name="グループ 656">
        <g id="グループ_655" data-name="グループ 655">
          <g id="グループ_654" data-name="グループ 654">
            <path id="パス_322" data-name="パス 322" d="M248.7,317.7v1.9c4.2,1.2,12.1,1.7,20,1.7s15.8-.6,20-1.7v-1.9C282,320.2,255.3,320.2,248.7,317.7Z" fill="#d1e5ea"/>
          </g>
        </g>
      </g>
    </g>
    <g id="グループ_659" data-name="グループ 659">
      <g id="グループ_658" data-name="グループ 658">
        <path id="パス_323" data-name="パス 323" d="M278.4,269.4l-3.1-.5a8.432,8.432,0,0,1-1.3-7.3h-3.7a8.86,8.86,0,0,1-1.3,7.3l-5.4.7c3,1.3,7.6,6.7,10.9,6.7S279.5,269.9,278.4,269.4Z" fill="#ff505c"/>
      </g>
    </g>
    <g id="グループ_661" data-name="グループ 661">
      <g id="グループ_660" data-name="グループ 660">
        <path id="パス_324" data-name="パス 324" d="M273.4,254.9a10.454,10.454,0,0,0-2.5,0c-2.2.3-2.3,3.3-2.8,5-.5,2,2.6,4.1,4,4.1s4.6-2.1,4-4.1C275.7,258.1,275.6,255.1,273.4,254.9Z" fill="#ff505c"/>
      </g>
    </g>
    <g id="グループ_663" data-name="グループ 663">
      <g id="グループ_662" data-name="グループ 662">
        <path id="パス_325" data-name="パス 325" d="M267.6,258.5a11.74,11.74,0,0,1,.4,1.6l.8-3.2c.3-.8.5-1.2.5-1.2l6.6-.2a1.9,1.9,0,0,0,1.6-1l1.6-2.9C267.1,251.1,266.6,255.8,267.6,258.5Z" fill="#342873"/>
      </g>
    </g>
    <g id="グループ_668" data-name="グループ 668">
      <g id="グループ_665" data-name="グループ 665">
        <g id="グループ_664" data-name="グループ 664">
          <path id="パス_326" data-name="パス 326" d="M253.2,388.3a2.258,2.258,0,0,0,1.2,2.7,5.743,5.743,0,0,0,4.8,0c.9-.6,1.2-.9,1.4-1.7.1-.3.1-1.7.5-1.1.2.2.3-1,.4-1.6a1.862,1.862,0,0,0-.4-1.5Z" fill="#483680"/>
        </g>
      </g>
      <g id="グループ_667" data-name="グループ 667">
        <g id="グループ_666" data-name="グループ 666">
          <path id="パス_327" data-name="パス 327" d="M256.5,382.8s-.4,3.3-2.6,4.6c-1.2.7-.7,1.9.6,2.6,1,.5,3.5.8,4.7-.2,2.5-2,1.9-4.9,1.9-6.6A7.855,7.855,0,0,1,256.5,382.8Z" fill="#fc9393"/>
        </g>
      </g>
    </g>
    <g id="グループ_674" data-name="グループ 674">
      <g id="グループ_669" data-name="グループ 669">
        <path id="パス_328" data-name="パス 328" d="M301.4,244.9H288.5a2.051,2.051,0,0,0-2.1,2.1v7.8a2.051,2.051,0,0,0,2.1,2.1h7l-2.2,4.1,6.8-4.1h1.4a2.051,2.051,0,0,0,2.1-2.1V247A2.2,2.2,0,0,0,301.4,244.9Z" fill="#5f40d2"/>
      </g>
      <g id="グループ_673" data-name="グループ 673">
        <g id="グループ_670" data-name="グループ 670">
          <circle id="楕円形_50" data-name="楕円形 50" cx="0.9" cy="0.9" r="0.9" transform="translate(290.4 249.9)" fill="#fff"/>
        </g>
        <g id="グループ_671" data-name="グループ 671">
          <circle id="楕円形_51" data-name="楕円形 51" cx="0.9" cy="0.9" r="0.9" transform="translate(294.1 249.9)" fill="#fff"/>
        </g>
        <g id="グループ_672" data-name="グループ 672">
          <circle id="楕円形_52" data-name="楕円形 52" cx="0.9" cy="0.9" r="0.9" transform="translate(297.7 249.9)" fill="#fff"/>
        </g>
      </g>
    </g>
    <g id="グループ_680" data-name="グループ 680">
      <g id="グループ_675" data-name="グループ 675">
        <path id="パス_329" data-name="パス 329" d="M345.6,254.4a9,9,0,0,0,1.6-4.6c0-4.8-4.9-8.8-10.9-8.8s-10.9,3.9-10.9,8.8c0,3.2,2.3,5.8,5.4,7.5,4.8,2.7,15.6,3.2,15.6,3.2-3.2-1.9-2.7-4-1.8-5.1A9.431,9.431,0,0,0,345.6,254.4Z" fill="#d0e4e9"/>
      </g>
      <g id="グループ_679" data-name="グループ 679">
        <g id="グループ_676" data-name="グループ 676">
          <circle id="楕円形_53" data-name="楕円形 53" cx="0.9" cy="0.9" r="0.9" transform="translate(331.8 249)" fill="#fff"/>
        </g>
        <g id="グループ_677" data-name="グループ 677">
          <circle id="楕円形_54" data-name="楕円形 54" cx="0.9" cy="0.9" r="0.9" transform="translate(335.4 249)" fill="#fff"/>
        </g>
        <g id="グループ_678" data-name="グループ 678">
          <circle id="楕円形_55" data-name="楕円形 55" cx="0.9" cy="0.9" r="0.9" transform="translate(339.1 249)" fill="#fff"/>
        </g>
      </g>
    </g>
    <g id="グループ_682" data-name="グループ 682">
      <g id="グループ_681" data-name="グループ 681">
        <path id="パス_330" data-name="パス 330" d="M307.2,296.2c-2,.4-27.9-12-28.4-3.5-.1,2.3-.8,4,5.2,5.1,5.9,1.2,18.5,2.5,23.3,1.7C308.1,299.5,309.3,295.8,307.2,296.2Z" fill="#ff505c"/>
      </g>
    </g>
    <g id="グループ_684" data-name="グループ 684">
      <g id="グループ_683" data-name="グループ 683">
        <path id="パス_331" data-name="パス 331" d="M314.5,297.2a26.2,26.2,0,0,1-4-1.2c1.3.2,2.4-1,1.9-.8-1,.3-2.8-1.1-3.6.1s-2.8,1.1-2.8,1.1-1.4,3,.1,3.2,1.4-.3,4.1.9a4.937,4.937,0,0,0,3.4.5c.5-.1.4-.6.4-1C314.1,298.8,315.8,297.4,314.5,297.2Z" fill="#ff505c"/>
      </g>
    </g>
    <g id="グループ_686" data-name="グループ 686">
      <g id="グループ_685" data-name="グループ 685">
        <path id="パス_332" data-name="パス 332" d="M263.9,276.5c-4.8-1.4-9,6.5-5.9,10.3,2,2.4,21.2,9.9,23.8,10.4,2.6.6,6.3-4.3,4-7.6S265.7,277,263.9,276.5Z" fill="#ff505c"/>
      </g>
    </g>
    <g id="グループ_688" data-name="グループ 688">
      <g id="グループ_687" data-name="グループ 687">
        <path id="パス_333" data-name="パス 333" d="M256.8,276.9a8.428,8.428,0,0,0-2.1,3.5,7.669,7.669,0,0,0,0,4.5,10.844,10.844,0,0,0,1.8,2.9c2.6,2.8,18.9,9,22.3,9.9.5.1,4-5.1,5.5-10.4,0-.1-16.2-10.9-20.5-12A7.744,7.744,0,0,0,256.8,276.9Z" fill="#6b45e3"/>
      </g>
    </g>
    <g id="グループ_689" data-name="グループ 689">
      <path id="パス_334" data-name="パス 334" d="M348.3,309.9c-2.6,6-1.5,32.4-1.5,32.4l12.6,1.5s6.7-22.8,7.5-27.9C367.6,310.7,350,306,348.3,309.9Z" fill="#ff505c"/>
    </g>
    <g id="グループ_690" data-name="グループ 690">
      <path id="パス_335" data-name="パス 335" d="M359.7,340.5c-.7-2.9-8-4.8-10.5-3.6-6.2,2.9.4,44.6-2.9,48.1-.4.4-2.3,3.9-3.3,4.6-.5.4-2.4.7-2.3,1.1s5.1.9,8.9-3.5c.4-.5,1.4-.7,1.7-1.7.3-1.3-.7-2.1-.7-2.7C350.7,377.9,360.9,346,359.7,340.5Z" fill="#ff505c"/>
    </g>
    <g id="グループ_691" data-name="グループ 691">
      <path id="パス_336" data-name="パス 336" d="M348.5,385.3c-.9.7-1.4,2.6-2.4,3.2a10.187,10.187,0,0,1-3.4,1.4,3.333,3.333,0,0,1-1,0c-.6.2-1.1.5-1.1.7a.486.486,0,0,0,.3.6c1,.7,3.2.3,4.2-.1,1.3-.5,3.7-3.4,4.8-3.7,2.8-.9,1.4-3,1.3-3.3A6.058,6.058,0,0,0,348.5,385.3Z" fill="#483680"/>
    </g>
    <g id="グループ_692" data-name="グループ 692">
      <path id="パス_337" data-name="パス 337" d="M349.1,391.6l.7.1,1.7-5.4-2.1,1.3Z" fill="#483680"/>
    </g>
    <g id="グループ_693" data-name="グループ 693">
      <path id="パス_338" data-name="パス 338" d="M386.8,371.8l3.2,2.4.4-.6-3.7-4.3Z" fill="#483680"/>
    </g>
    <g id="グループ_694" data-name="グループ 694">
      <path id="パス_339" data-name="パス 339" d="M350.3,295.7s-3.1,6.9-6.3,32.7c-1.9,15.4-2.6,22-4.3,30.5,0,0,8.4-2.2,11.6-.9s8.8,3.4,12.7,1.7c0,0,6.9-46.3,5.7-54.2C368.7,297.6,350.3,295.7,350.3,295.7Z" fill="#008dbd"/>
    </g>
    <g id="グループ_695" data-name="グループ 695">
      <path id="パス_340" data-name="パス 340" d="M366.4,300.7a27.252,27.252,0,0,1-7.7,6.6,20.035,20.035,0,0,1-4,1.7,1.38,1.38,0,0,0-.3.4c1.6,5.3,3.4,10.6,2.6,16.3a23.394,23.394,0,0,1-.9,3.8l5.1,11.3-6-6.2c-1.2,3.4-2.4,4-1.2,8,1.7,5.6,4.3,11,2.2,17v.1c2.7.7,5.7,1.1,8,.1,0,0,6.9-46.3,5.7-54.2A7.832,7.832,0,0,0,366.4,300.7Z" fill="#483680"/>
    </g>
    <g id="グループ_696" data-name="グループ 696">
      <path id="パス_341" data-name="パス 341" d="M386,369.4c-.9-1-2.1-.6-2.6-1-3.9-2.9-15.1-34.4-21.9-36.7-2.8-1-9.1,2.2-10.1,4.8-2.4,6.4,30.3,32,31.4,36.7.1.6,1.9,4.1,1.9,5.3,0,.6-.8,2.3-.4,2.5s3.6-3.8,2.1-9.3C386.4,371.2,386.8,370.2,386,369.4Z" fill="#ff505c"/>
    </g>
    <g id="グループ_697" data-name="グループ 697">
      <path id="パス_342" data-name="パス 342" d="M386.9,371.6c.9-2.8-1.7-2.8-2-2.9a4.548,4.548,0,0,0-.5,2.8c0,1.1,1.4,2.7,1.3,3.8a8.888,8.888,0,0,1-.7,3.6,2.407,2.407,0,0,1-.6.8c-.1.6-.2,1.2,0,1.3a.482.482,0,0,0,.6.1c1.2-.4,2-2.4,2.3-3.5C387.6,376.4,386.6,372.7,386.9,371.6Z" fill="#483680"/>
    </g>
    <g id="グループ_698" data-name="グループ 698">
      <path id="パス_343" data-name="パス 343" d="M365.6,332.3l1.9-8.7c5.4-11.3,3.4-20.9,2.7-22.3-.7-1.5-2.6-5.5-2.6-5.5l-17.4-.1-1,3.2c.4,1.5,3.3,4,3.3,4.6,0,7-4.7,25.4-4.4,30.6.4,6.5,14.7,25.9,14.7,25.9.9-1,1.1-3.8,5-4.9s3.4-3.5,5.2-4.7,6-1.6,6-1.6C375.6,341.6,365.6,332.3,365.6,332.3Z" fill="#13aed4"/>
    </g>
    <g id="グループ_699" data-name="グループ 699">
      <path id="パス_344" data-name="パス 344" d="M365.6,332.3l1.9-8.7c5.4-11.3,3.4-20.9,2.7-22.3-.5-1-1.5-3.2-2.1-4.5,1.2,6.7-1.7,19.4-7.7,22.8.2,2.8.6,10.7.8,13.6.3,4.5-1.2,13,1.3,17a33.263,33.263,0,0,1,2.8,6.2,6.3,6.3,0,0,1,2.6-1.3c.1,0-2.3-11.7-2.3-11.7l5.9,9.1a5.367,5.367,0,0,1,1.6-2.1c1.8-1.3,6-1.6,6-1.6C375.6,341.6,365.6,332.3,365.6,332.3Z" fill="#008dbd"/>
    </g>
    <g id="グループ_700" data-name="グループ 700">
      <path id="パス_345" data-name="パス 345" d="M376.7,268.8c.5-3.1.6-10-3.9-11.4-4.5-1.5-2.2-3.7-5.5-4.3-3.5-.7-4.9,2.9-5.6,3.6-5.2,4.5-1.3,6.3.9,9.6,4.4,6.4,0,24.5,7.7,28.6,3.9,2.1,7.8,1.4,9.5-.6,0,0-4.7.5-3-3.9,1-2.7,3.2-3.4,3.7-6.6C381.7,277.4,375.8,274.2,376.7,268.8Z" fill="#483680"/>
    </g>
    <g id="グループ_701" data-name="グループ 701">
      <path id="パス_346" data-name="パス 346" d="M362.8,255.2a1.619,1.619,0,0,0-1.9.7c-.1.1,0,.2.1.2a6.391,6.391,0,0,1,1.9.8,10.916,10.916,0,0,1,1.7,1.3c.1.1.2,0,.2-.1.2-.8.3-1.5-.4-2C364.2,256,363,255.3,362.8,255.2Z" fill="#ffab02"/>
    </g>
    <g id="グループ_702" data-name="グループ 702">
      <path id="パス_347" data-name="パス 347" d="M360.6,256.9c-.7-.5-2.4-1.3-3.7,1.2a2.886,2.886,0,0,0,4.4,3.5C363.8,259.7,361.4,257.5,360.6,256.9Z" fill="#483680"/>
    </g>
    <g id="グループ_703" data-name="グループ 703">
      <path id="パス_348" data-name="パス 348" d="M356.1,259.4a2.662,2.662,0,0,0-.3,1.2,1.606,1.606,0,0,0,.5,1.1,1.129,1.129,0,0,1-.3-1.1,2.461,2.461,0,0,1,.4-1.1,8.3,8.3,0,0,1,1.5-1.7l-.5-.5A7.433,7.433,0,0,0,356.1,259.4Z" fill="#483680"/>
    </g>
    <g id="グループ_704" data-name="グループ 704">
      <path id="パス_349" data-name="パス 349" d="M366.4,272.2a4.88,4.88,0,0,1-3.3-1.9c-1.1-1.9-.5-4.8.3-6.6-1.8-1-2.4-1.8-2.9.3s-1,4.1-2.4,5.2c-.6.5-1.9.4-2.9.1-2.9-.9-5.4,1.5-4.3,3.7,1.8,3.9,12.5,10.2,14.2,6.5C367,275,370.9,272.9,366.4,272.2Z" fill="#ff505c"/>
    </g>
    <g id="グループ_705" data-name="グループ 705">
      <path id="パス_350" data-name="パス 350" d="M379.8,278.5c-3.2-2.3-9.1-5.6-13.2-6.3-3.9-.7-5.1,2.1-2.9,4.5,2.9,3.3,7.1,4.1,12.7,6.7C379.9,285.2,383.3,281.1,379.8,278.5Z" fill="#ff505c"/>
    </g>
    <g id="グループ_706" data-name="グループ 706">
      <path id="パス_351" data-name="パス 351" d="M351.1,270.1c-3.7,2.3-6,6-9.6,11.1a3.2,3.2,0,0,0,5,4c2.8-2.8,6.4-7.5,7.7-11.4C355.6,270.2,353.9,268.4,351.1,270.1Z" fill="#f83c4c"/>
    </g>
    <g id="グループ_709" data-name="グループ 709">
      <g id="グループ_707" data-name="グループ 707">
        <path id="パス_352" data-name="パス 352" d="M343.6,280c-1.2.3-11.8,3.2-17.4,3.7-.6.1-1.5,2.9.2,2.7,3.2-.4,14.8,2.4,19.5-.7C349,283.8,346.2,279.5,343.6,280Z" fill="#f83c4c"/>
      </g>
      <g id="グループ_708" data-name="グループ 708">
        <path id="パス_353" data-name="パス 353" d="M324.7,282.9c-.8-.9-2.2.6-2.7.7-.4.1.8.9,1.9.2a3.8,3.8,0,0,1-2.3,1c-1.1.1-1,1.5-1.5,2.3a.523.523,0,0,0,.4.8,2.6,2.6,0,0,0,2.5-.4c1.5-1.4,4.1-1.1,4.1-1.1l-.2-2.8A2.369,2.369,0,0,1,324.7,282.9Z" fill="#f83c4c"/>
      </g>
    </g>
    <g id="グループ_710" data-name="グループ 710">
      <path id="パス_354" data-name="パス 354" d="M364.9,279.4c.6-3.3.3-4.9,1.6-7.3a7.837,7.837,0,0,0-1.4-.5c-8.2,3.6-9.5-2.2-9.6-2.3a3.013,3.013,0,0,0-1.2-.3c-.6.1,0,3.9-2,6.2-1.9,2.1-2,3.6-1,5.9,1.3,2.6-1.4,13.6-1.2,15.4,1.5,1,11,1.7,17.5-.7C365.6,289.9,363.7,286,364.9,279.4Z" fill="#ffc4c4"/>
    </g>
    <g id="グループ_711" data-name="グループ 711">
      <path id="パス_355" data-name="パス 355" d="M364.9,279.4c.6-3.3.3-4.9,1.6-7.3a7.837,7.837,0,0,0-1.4-.5c-2.7,1.2-4.7,1.4-6.1,1,.1.2,2.6,1.7,2.6,4.4,2.6,1.5,2.2,6.1-1.6,6.1-1.7,0-3.2-1.1-7.2-1.7a2.529,2.529,0,0,1-2-2.2,1.268,1.268,0,0,1-.1-.6,5.007,5.007,0,0,0,.7,2.5,4.257,4.257,0,0,1,.3,2.4,5.631,5.631,0,0,1,4,.3c3.1,1.4,10,5.4,8.7,9-.5,1.4-4.9,2.6-4.3,3.3.7.7,4.9.6,7.6-.4C365.6,289.9,363.7,286,364.9,279.4Z" fill="#fb8585"/>
    </g>
    <g id="グループ_712" data-name="グループ 712">
      <path id="パス_356" data-name="パス 356" d="M363.3,261a1.769,1.769,0,0,0,.6-1.5c0-1.1-3-2.3-4.9-2s-2.3,7.3-1.2,7.9,3.2-.2,3.8-.2a3.96,3.96,0,0,0,1.9-1.4.586.586,0,0,0,.8.1,2.323,2.323,0,0,0,.2-2.4A3.427,3.427,0,0,0,363.3,261Z" fill="#ff505c"/>
    </g>
    <g id="グループ_713" data-name="グループ 713">
      <path id="パス_357" data-name="パス 357" d="M361.6,255.9c-1.5-1.5-3.8.9-3.2,2.1.9,1.8,1.8,3.6,4.8,3.8a.816.816,0,0,1,1-.2c.6.3.3,2-.1,2.3-.2.1-.6-.1-.7,0,0,0,0,.5.1.5,2,.4,4.3-4.3,1.6-6.9C364.3,256.6,362.2,256.5,361.6,255.9Z" fill="#483680"/>
    </g>
    <g id="グループ_717" data-name="グループ 717">
      <g id="グループ_714" data-name="グループ 714">
        <path id="パス_358" data-name="パス 358" d="M375,279.6c-.8,1-5.1,9.5-9.4,13.2-.5.4-.1,3.1,1.3,2.1,2.4-1.6,11.3-6.7,14.1-13C381.1,281.9,376.6,277.5,375,279.6Z" fill="#ff505c"/>
      </g>
      <g id="グループ_715" data-name="グループ 715">
        <path id="パス_359" data-name="パス 359" d="M366,292.5c-1,1-1.7-.6-2.9-.3a3.3,3.3,0,0,0-2.5,2.2c-.2.6-1.1,1.2-.5,1.5,1.2.5,2.7-1,2.7-1a1.5,1.5,0,0,1,1.4.5c.9.9,1.8.8,2.3.2a14.667,14.667,0,0,1,1-1.1S367,291.5,366,292.5Z" fill="#ff505c"/>
      </g>
      <g id="グループ_716" data-name="グループ 716">
        <path id="パス_360" data-name="パス 360" d="M364,292.3c.5.8.6.8,1.4.7,0,0-.9-1.4-.8-1.9C364.8,290.4,363.5,291.5,364,292.3Z" fill="#ff505c"/>
      </g>
    </g>
    <g id="グループ_718" data-name="グループ 718">
      <path id="パス_361" data-name="パス 361" d="M357.5,263.1s-.2,1.5.5,1.7,1.3-1.2,1.3-1.2A1.662,1.662,0,0,1,357.5,263.1Z" fill="#fff"/>
    </g>
  </g>
</svg>
