<svg xmlns="http://www.w3.org/2000/svg" width="99.762" height="117.3" viewBox="0 0 99.762 117.3">
  <g id="グループ_357" data-name="グループ 357" transform="translate(-489.838 -72.7)">
    <g id="グループ_265" data-name="グループ 265">
      <g id="グループ_260" data-name="グループ 260">
        <path id="パス_152" data-name="パス 152" d="M553.2,72.7c-6,0-10.9,3.9-10.9,8.8a9,9,0,0,0,1.6,4.6,8.117,8.117,0,0,0,.9,1c.9,1.1,1.4,3.2-1.8,5.1,0,0,10.8-.5,15.6-3.2,3.1-1.7,5.4-4.3,5.4-7.5C564.1,76.6,559.2,72.7,553.2,72.7Z" fill="#6b45e3"/>
      </g>
      <g id="グループ_264" data-name="グループ 264">
        <g id="グループ_261" data-name="グループ 261">
          <circle id="楕円形_31" data-name="楕円形 31" cx="0.9" cy="0.9" r="0.9" transform="translate(556 80.6)" fill="#fff"/>
        </g>
        <g id="グループ_262" data-name="グループ 262">
          <circle id="楕円形_32" data-name="楕円形 32" cx="0.9" cy="0.9" r="0.9" transform="translate(552.3 80.6)" fill="#fff"/>
        </g>
        <g id="グループ_263" data-name="グループ 263">
          <circle id="楕円形_33" data-name="楕円形 33" cx="0.9" cy="0.9" r="0.9" transform="translate(548.7 80.6)" fill="#fff"/>
        </g>
      </g>
    </g>
    <g id="グループ_343" data-name="グループ 343">
      <g id="グループ_300" data-name="グループ 300">
        <g id="グループ_270" data-name="グループ 270">
          <g id="グループ_267" data-name="グループ 267">
            <g id="グループ_266" data-name="グループ 266">
              <path id="パス_153" data-name="パス 153" d="M519.5,156.8a1.155,1.155,0,0,1-1.2,1.2h-4.2a2.006,2.006,0,0,0-2,2v1.4h.8V160a1.155,1.155,0,0,1,1.2-1.2h4.2a2.006,2.006,0,0,0,2-2v-1.6h-.8Z" fill="#394e67"/>
            </g>
          </g>
          <g id="グループ_269" data-name="グループ 269">
            <g id="グループ_268" data-name="グループ 268">
              <circle id="楕円形_34" data-name="楕円形 34" cx="1" cy="1" r="1" transform="translate(511.6 160.4)" fill="#cee2e7"/>
            </g>
          </g>
        </g>
        <g id="グループ_272" data-name="グループ 272">
          <g id="グループ_271" data-name="グループ 271">
            <path id="パス_154" data-name="パス 154" d="M528.3,140.3l-7.1-47.1a5.6,5.6,0,0,0-5.5-4.9H495.4a5.476,5.476,0,0,0-5.5,6.3l6.6,46a15.067,15.067,0,0,0,4,8.2l2.2,2.5a12.987,12.987,0,0,0,9.7,4.4h24l-4.4-6.5A14.8,14.8,0,0,1,528.3,140.3Z" fill="#394e67"/>
          </g>
        </g>
        <g id="グループ_274" data-name="グループ 274">
          <g id="グループ_273" data-name="グループ 273">
            <path id="パス_155" data-name="パス 155" d="M531.7,140.3l-7.1-47.1a5.6,5.6,0,0,0-5.5-4.9H498.8a5.476,5.476,0,0,0-5.5,6.3l6.6,46a15.067,15.067,0,0,0,4,8.2l3,3.4c2,2.2,2.4,1.7,5.4,1.7l28.5,1.8-5.4-6.5A14.222,14.222,0,0,1,531.7,140.3Z" fill="#5d7084"/>
          </g>
        </g>
        <g id="グループ_281" data-name="グループ 281">
          <g id="グループ_276" data-name="グループ 276">
            <g id="グループ_275" data-name="グループ 275">
              <path id="パス_156" data-name="パス 156" d="M501.9,186.1c0,2.2.8,3.9,1.8,3.9H507v-7.9h-3.3C502.7,182.1,501.9,183.9,501.9,186.1Z" fill="#394e67"/>
            </g>
          </g>
          <g id="グループ_278" data-name="グループ 278">
            <g id="グループ_277" data-name="グループ 277">
              <ellipse id="楕円形_35" data-name="楕円形 35" cx="1.8" cy="3.9" rx="1.8" ry="3.9" transform="translate(505.2 182.2)" fill="#5d7084"/>
            </g>
          </g>
          <g id="グループ_280" data-name="グループ 280">
            <g id="グループ_279" data-name="グループ 279">
              <path id="パス_157" data-name="パス 157" d="M507,183.3c-.3,0-.5.4-.6,1.1a8.622,8.622,0,0,0-.1,1.7,3.749,3.749,0,0,0,.1,1.1c.1,1,.4,1.7.7,1.7.4,0,.7-.9.8-2.1v-.6a6.229,6.229,0,0,0-.3-2.1C507.4,183.5,507.2,183.3,507,183.3Z" fill="#2b1a5c"/>
            </g>
          </g>
        </g>
        <g id="グループ_283" data-name="グループ 283">
          <g id="グループ_282" data-name="グループ 282">
            <path id="パス_158" data-name="パス 158" d="M527.6,155.7h-4.4v22.2L507.5,184l-1.1.4a8.622,8.622,0,0,0-.1,1.7,3.749,3.749,0,0,0,.1,1.1l1.5-.5,17.6-5.6,18.5,6.2.6-2.5-17-6.9Z" fill="#9eb0b0"/>
          </g>
        </g>
        <g id="グループ_285" data-name="グループ 285">
          <g id="グループ_284" data-name="グループ 284">
            <rect id="長方形_4" data-name="長方形 4" width="2.9" height="7.9" transform="translate(524 178.4)" fill="#9eb0b0"/>
          </g>
        </g>
        <g id="グループ_290" data-name="グループ 290">
          <g id="グループ_287" data-name="グループ 287">
            <g id="グループ_286" data-name="グループ 286">
              <path id="パス_159" data-name="パス 159" d="M550.7,149.1H511.9a3.071,3.071,0,0,0-2.8,4.3c.1.1.1.3.2.4h43.9A2.951,2.951,0,0,0,550.7,149.1Z" fill="#5d7084"/>
            </g>
          </g>
          <g id="グループ_289" data-name="グループ 289">
            <g id="グループ_288" data-name="グループ 288">
              <path id="パス_160" data-name="パス 160" d="M509.4,153.9a3.375,3.375,0,0,0,3,1.8h39.4c.6-.6,1-1.2,1.5-1.8Z" fill="#394e67"/>
            </g>
          </g>
        </g>
        <g id="グループ_297" data-name="グループ 297">
          <g id="グループ_292" data-name="グループ 292">
            <g id="グループ_291" data-name="グループ 291">
              <path id="パス_161" data-name="パス 161" d="M541.1,186.1c0,2.2.8,3.9,1.8,3.9h3.3v-7.9h-3.3C541.9,182.1,541.1,183.9,541.1,186.1Z" fill="#394e67"/>
            </g>
          </g>
          <g id="グループ_294" data-name="グループ 294">
            <g id="グループ_293" data-name="グループ 293">
              <ellipse id="楕円形_36" data-name="楕円形 36" cx="1.8" cy="3.9" rx="1.8" ry="3.9" transform="translate(544.4 182.2)" fill="#5d7084"/>
            </g>
          </g>
          <g id="グループ_296" data-name="グループ 296">
            <g id="グループ_295" data-name="グループ 295">
              <ellipse id="楕円形_37" data-name="楕円形 37" cx="0.8" cy="2.8" rx="0.8" ry="2.8" transform="translate(545.4 183.3)" fill="#2b1a5c"/>
            </g>
          </g>
        </g>
        <g id="グループ_299" data-name="グループ 299">
          <g id="グループ_298" data-name="グループ 298">
            <path id="パス_162" data-name="パス 162" d="M526.4,182.1H524a1.155,1.155,0,0,0-1.2,1.2v5.5A1.155,1.155,0,0,0,524,190h2.4a1.155,1.155,0,0,0,1.2-1.2v-5.5A1.155,1.155,0,0,0,526.4,182.1Z" fill="#394e67"/>
          </g>
        </g>
      </g>
      <g id="グループ_339" data-name="グループ 339">
        <g id="グループ_304" data-name="グループ 304">
          <g id="グループ_301" data-name="グループ 301">
            <path id="パス_163" data-name="パス 163" d="M566.3,186.7c-1-.7-3-4.1-3.4-4.5-3.3-3.5-4.1-38.1-9.8-41.9a6.119,6.119,0,0,0-9.5,5.6c.4,7.4,14.7,29.3,15,34.2,0,.5-1,1.3-.6,2.7.3,1.1,1.3,1.3,1.7,1.7,3.8,4.3,8.9,3.8,9,3.4S566.8,187,566.3,186.7Z" fill="#c61f2b"/>
          </g>
          <g id="グループ_302" data-name="グループ 302">
            <path id="パス_164" data-name="パス 164" d="M567.6,187.5a3.083,3.083,0,0,1-1,.1,10.187,10.187,0,0,1-3.4-1.4c-1-.6-1.5-2.5-2.4-3.2a8.593,8.593,0,0,0-3-1.2c-.1.3-1.2,2.5,1.7,3.3,1.1.3,3.6,3.2,4.8,3.7,1,.4,2.9.9,3.9.1a1.053,1.053,0,0,0,.4-1.3C568.6,187.5,568.2,187.8,567.6,187.5Z" fill="#483680"/>
          </g>
          <g id="グループ_303" data-name="グループ 303">
            <path id="パス_165" data-name="パス 165" d="M567.1,186.8c-.1.2-.2.3-.6.3a5.692,5.692,0,0,1-2.9-1.1c-.9-.6-2-2.8-2.9-3.5-.8-.5-1.8-1.6-2.7-1.6-.1.3-1.5,2.9,1.4,3.7,1.1.3,3.6,3.2,4.8,3.7,1,.4,3.2.7,4.2,0,.1-.1.4-.4.3-.7A5.863,5.863,0,0,0,567.1,186.8Z" fill="#008bbb"/>
          </g>
        </g>
        <g id="グループ_308" data-name="グループ 308">
          <g id="グループ_305" data-name="グループ 305">
            <path id="パス_166" data-name="パス 166" d="M559.4,130.6c-6.7-3.3-28.4-4.7-34.7-2.9-4.1,1.1-4.5,18.1.6,18s29.7-3.4,36-5.2C564.4,139.7,566.1,133.9,559.4,130.6Z" fill="#ff505c"/>
          </g>
          <g id="グループ_306" data-name="グループ 306">
            <path id="パス_167" data-name="パス 167" d="M524.8,127.7c-4.1,1.1-4.5,18.1.6,18,2.4-.1,11.5-1.1,17.9-2-2-6.4-.4-13.1,2.4-16.3C537.9,126.4,528.5,126.7,524.8,127.7Z" fill="#f98383"/>
          </g>
          <g id="グループ_307" data-name="グループ 307">
            <path id="パス_168" data-name="パス 168" d="M543.1,132.4c-2.4-.3-15.3-.7-19.3.1a5.437,5.437,0,0,1-1.8,0c-1.1,5.4-.2,13.3,3.3,13.2,2.4-.1,11.5-1.1,17.9-2A20.682,20.682,0,0,1,543.1,132.4Z" fill="#e05773"/>
          </g>
        </g>
        <g id="グループ_311" data-name="グループ 311">
          <g id="グループ_309" data-name="グループ 309">
            <path id="パス_169" data-name="パス 169" d="M551.6,138.9c-6.1-4.2-27.3-8.8-33.8-8-12.1,1.5-11.4,16.2,1.6,17.9,5.1.7,26.2,1.1,32.7.2C555.1,148.6,557.7,143.1,551.6,138.9Z" fill="#c61f2b"/>
          </g>
          <g id="グループ_310" data-name="グループ 310">
            <path id="パス_170" data-name="パス 170" d="M513.6,149.1c2.4.3,13.6.5,20.1.3,2.4-2.2,2.9-7.6,3.6-9.5,2-5.2,3.8-3.8,5.5-5.3-10.2-3.6-24.3-3.9-28.3-3.9C506.4,130.8,504.3,147.9,513.6,149.1Z" fill="#f98383"/>
          </g>
        </g>
        <g id="グループ_315" data-name="グループ 315">
          <g id="グループ_312" data-name="グループ 312">
            <path id="パス_171" data-name="パス 171" d="M563.3,134.1a6.111,6.111,0,0,0-10.9,1.5c-2.5,7,2.4,32.7.8,37.3-.2.5-1.4.9-1.6,2.2-.2,1.1.7,1.7.9,2.2,1.9,5.5,6.8,6.9,7,6.5s-1.4-1.3-1.7-1.9c-.7-1-1.2-4.9-1.4-5.5C554.6,172.1,567.1,139.8,563.3,134.1Z" fill="#ff505c"/>
          </g>
          <g id="グループ_313" data-name="グループ 313">
            <path id="パス_172" data-name="パス 172" d="M558.7,183.4a1.613,1.613,0,0,1-.9-.3,9.2,9.2,0,0,1-2.6-2.6c-.7-.9-.4-2.9-1-3.9a5.65,5.65,0,0,0-2.4-2.2c-.2.2-2,1.8.3,3.7.9.7,2.1,4.3,3.1,5.2.8.7,2.4,1.9,3.6,1.6a1.179,1.179,0,0,0,.9-1C559.6,183.7,559.1,183.8,558.7,183.4Z" fill="#483680"/>
          </g>
          <g id="グループ_314" data-name="グループ 314">
            <path id="パス_173" data-name="パス 173" d="M558.6,182.7a5.945,5.945,0,0,1-3-2.2c-.7-1.3-.9-3.4-1.4-4.4a6.112,6.112,0,0,0-2.1-2.4c-.2.2-2.3,2,0,3.8.9.7,2.1,4.3,3.1,5.2.8.7,2.7,1.9,3.9,1.6a.536.536,0,0,0,.5-.5C559.6,183.6,559,183.1,558.6,182.7Z" fill="#13acd2"/>
          </g>
        </g>
        <g id="グループ_316" data-name="グループ 316">
          <path id="パス_174" data-name="パス 174" d="M507.4,95.9a8.61,8.61,0,0,0-1,3.8,12.17,12.17,0,0,0,.7,3.8,9.719,9.719,0,0,1-.5-3.8,6.986,6.986,0,0,1,1.2-3.5,10.777,10.777,0,0,1,5.9-4.3l-.3-.9A11.275,11.275,0,0,0,507.4,95.9Z" fill="#b1c9ca"/>
        </g>
        <g id="グループ_317" data-name="グループ 317">
          <path id="パス_175" data-name="パス 175" d="M536.6,105.9a3.33,3.33,0,0,1,.1-1.4,12.122,12.122,0,0,1,.5-1.4,7.1,7.1,0,0,0,.5-2.9,7.329,7.329,0,0,0-2.6-5.3,13.354,13.354,0,0,0-5.3-2.7l-.3,1a15.691,15.691,0,0,1,5.1,2.3,6.442,6.442,0,0,1,2.6,4.7,6.807,6.807,0,0,1-.4,2.8,5.759,5.759,0,0,0-.5,2.9,5.148,5.148,0,0,0,1.6,2.5,20.706,20.706,0,0,0,2.4,1.7,20.282,20.282,0,0,1-2.3-1.8A4.93,4.93,0,0,1,536.6,105.9Z" fill="#b1c9ca"/>
        </g>
        <g id="グループ_318" data-name="グループ 318">
          <path id="パス_176" data-name="パス 176" d="M532.9,94.1c-6.8-5.5-1.2-4.8-5.1-8.9a4.024,4.024,0,0,0-5-1.1c-5.2,2.2.6,3.9-7.8,6.2-5.7,1.6-7.8,5.8-6.6,10.2a3.192,3.192,0,0,1-.9,3.1,7.163,7.163,0,0,0-.3,9.2s18.4,5,27.7.4c-.8-1.9-1.8-5-.1-7.2C537.8,102.5,537.5,97.8,532.9,94.1Z" fill="#b1c9ca"/>
        </g>
        <g id="グループ_320" data-name="グループ 320">
          <g id="グループ_319" data-name="グループ 319">
            <path id="パス_177" data-name="パス 177" d="M529.9,99.4c-2.2-1.5-4.7,2.6-2.9,6.4,2.9,5.9,5.9,7.9,9.9,11.6,3.5,3.3,7.7-.4,5-3.8C537.8,108.5,533.8,102.1,529.9,99.4Z" fill="#ff505c"/>
          </g>
        </g>
        <g id="グループ_322" data-name="グループ 322">
          <g id="グループ_321" data-name="グループ 321">
            <path id="パス_178" data-name="パス 178" d="M559.3,116.4c-6-.6-16.9-3.6-18.2-3.9-2.7-.8-3.5,5.6-3.5,5.6,6.5,3.8,19.5,1.1,21.7,1.1C561.1,119.2,560,116.4,559.3,116.4Z" fill="#ff505c"/>
          </g>
        </g>
        <g id="グループ_324" data-name="グループ 324">
          <g id="グループ_323" data-name="グループ 323">
            <path id="パス_179" data-name="パス 179" d="M565.4,114.7c-.8-.1-1.9-.5-2.8.3-1.6,1.5-4.5,1.3-4.5,1.3l.2,2.8a3.145,3.145,0,0,1,2.4.9c.8,1,2.4-.6,2.9-.7s-.8-1-2-.2a5.313,5.313,0,0,1,2.5-1.1c1.2-.1,1.1-1.6,1.6-2.5A.445.445,0,0,0,565.4,114.7Z" fill="#ff505c"/>
          </g>
        </g>
        <g id="グループ_325" data-name="グループ 325">
          <path id="パス_180" data-name="パス 180" d="M525.4,97.5a1.706,1.706,0,0,1-1.3-1.4,18.643,18.643,0,0,1,1-6.3l-2.8-.3a17.236,17.236,0,0,1-.3,6.2,1.621,1.621,0,0,1-1.6,1.2,7.064,7.064,0,0,0-4.3,1.2s1.6,7.2,6.3,7.7,6.9-6.2,6.9-6.2C528.4,98.4,526.5,97.8,525.4,97.5Z" fill="#ff505c"/>
        </g>
        <g id="グループ_326" data-name="グループ 326">
          <path id="パス_181" data-name="パス 181" d="M523,105.8l2-.2-1.5-3.4Z" fill="#c61f2b"/>
        </g>
        <g id="グループ_327" data-name="グループ 327">
          <path id="パス_182" data-name="パス 182" d="M527,112.9c1.6-4.6,4-5.9,1.9-8.7-1.7-2.3.8-5,.8-5-1.1-.6-2.1-1.1-2.1-1.1s.3-2.2-2.1-.6a3.746,3.746,0,0,1-4.4,0c-3-2.6-3-.5-3-.5s-1.1.3-2.3.6c0,0,1.9,3.1-.3,5-2.6,2.3-.6,4.8-1,10.3-.4,5.4-5.4,12.2-6,22.5,22.1-1.2,27.7-8.7,27.7-8.7C532.4,125.5,525.5,117.6,527,112.9Zm-3.1-7.2c-.5-1.3-3.1-2.7-5-3.1a6,6,0,0,0,.7-3.2,6.248,6.248,0,0,0,2.2,1,5.909,5.909,0,0,0,3.7-.3c-.2.9.7,2,.9,2.9C525,103.4,524.5,104.5,523.9,105.7Z" fill="#6b5ae3"/>
        </g>
        <g id="グループ_328" data-name="グループ 328">
          <path id="パス_183" data-name="パス 183" d="M529.5,121.4c-1.1-.1-2.2,0-3.3,0a3.3,3.3,0,0,1-2.2.8c-1.8,0-3.7-1.6-3.5-3.5v-.2a4.846,4.846,0,0,1,0-1.7,1.933,1.933,0,0,1,.5-.9,14.762,14.762,0,0,1,1.3-3.5c.6-1.3,2.7-2,3.7-2.9-.1,0-5.6-.2-6.8-.2a5.849,5.849,0,0,1-5-3,40.417,40.417,0,0,1,.4,6.8c-.4,5.4-5.4,12.2-6,22.5a66.217,66.217,0,0,0,16.5-2.7c-3,0-6.1-.5-7.9-3a3.385,3.385,0,0,1,0-3.5c1.2-2,2.8-2.2,4.9-2.7a32.2,32.2,0,0,0,6.9-2l.9-.3-.1-.1C529.7,121.3,529.6,121.4,529.5,121.4Z" fill="#32177c"/>
        </g>
        <g id="グループ_329" data-name="グループ 329">
          <path id="パス_184" data-name="パス 184" d="M526,87.1a10.621,10.621,0,0,0-1.9-.4c-1.6,0-1.9,2.7-2.3,4-.4,1.2,1.1,2.9,1.8,3s2.7-.8,2.9-2.1C526.6,90.4,527.5,87.7,526,87.1Z" fill="#ff505c"/>
        </g>
        <g id="グループ_330" data-name="グループ 330">
          <path id="パス_185" data-name="パス 185" d="M523.3,86.2c-.5.7.5,1.2.2,1.4a.5.5,0,0,1-.6-.1c.2.8,1.3.5,1.1,0-.3-.5.2-.6.4-.7C525,86.4,523.9,85.5,523.3,86.2Z" fill="#b1c9ca"/>
        </g>
        <g id="グループ_331" data-name="グループ 331">
          <path id="パス_186" data-name="パス 186" d="M525,86.5c-.2.7,1.1,1,.5,1.9a1.211,1.211,0,0,0-.5,1.2c.1.2.2.4.5.4a1.265,1.265,0,0,0,1.1-.5s-.5.3-.7.1c-.2-.1-.2-.4,0-.6.3-.3,1.3-.5,1.3-1.9C527.1,86.2,525.3,85.5,525,86.5Z" fill="#b1c9ca"/>
        </g>
        <g id="グループ_332" data-name="グループ 332">
          <path id="パス_187" data-name="パス 187" d="M521.1,84.9c-.3.2-.5.4-.8.6a3.507,3.507,0,0,0-.5.8,7.974,7.974,0,0,1-.8,1.6,2.551,2.551,0,0,1-1.5.9,2.342,2.342,0,0,0,1.7-.7,4.923,4.923,0,0,0,1-1.5,2.335,2.335,0,0,1,1.2-1,9.829,9.829,0,0,1,1.6-.5l-.2-1A6.53,6.53,0,0,0,521.1,84.9Z" fill="#b1c9ca"/>
        </g>
        <g id="グループ_334" data-name="グループ 334">
          <g id="グループ_333" data-name="グループ 333">
            <path id="パス_188" data-name="パス 188" d="M517.2,98.8c-1.1-2.4-4.9-.3-5.1,4-.3,6.5.8,10,2.5,15.2,1.4,4.5,7,2.5,6.3-1.8C519.7,109.6,519.3,103,517.2,98.8Z" fill="#ff505c"/>
          </g>
        </g>
        <g id="グループ_336" data-name="グループ 336">
          <g id="グループ_335" data-name="グループ 335">
            <path id="パス_189" data-name="パス 189" d="M538.1,118.6c-6-.6-17-3.7-18.3-4.1-2.7-.8-3.7,5.6-3.7,5.6,6.5,3.8,20.6,2.1,22.2,1.2A1.492,1.492,0,0,0,538.1,118.6Z" fill="#ff505c"/>
          </g>
        </g>
        <g id="グループ_338" data-name="グループ 338">
          <g id="グループ_337" data-name="グループ 337">
            <path id="パス_190" data-name="パス 190" d="M541.9,120a4.168,4.168,0,0,1-2.5-1.1c1.2.8,2.5-.2,2-.2-.6-.1-2.1-1.7-2.9-.7a3.145,3.145,0,0,1-2.4.9l-.2,3s2.8-.4,4.5,1.1c.9.8,2,.4,2.8.3a.626.626,0,0,0,.5-.9C543.1,121.6,543.1,120.2,541.9,120Z" fill="#ff505c"/>
          </g>
        </g>
      </g>
      <g id="グループ_342" data-name="グループ 342">
        <g id="グループ_340" data-name="グループ 340">
          <path id="パス_191" data-name="パス 191" d="M513.1,125.5H496.7l.1,1.6h15.5c1.7,0,3.7,1.6,2.6,5.2l-5.7,21.6h1.7l6.5-22.6A4.487,4.487,0,0,0,513.1,125.5Z" fill="#394e67"/>
        </g>
        <g id="グループ_341" data-name="グループ 341">
          <path id="パス_192" data-name="パス 192" d="M517.4,125.5h-4.2a4.487,4.487,0,0,1,4.3,5.8L511,153.9h4l6.8-22.6A4.64,4.64,0,0,0,517.4,125.5Z" fill="#5d7084"/>
        </g>
      </g>
    </g>
    <g id="グループ_350" data-name="グループ 350">
      <g id="グループ_344" data-name="グループ 344">
        <path id="パス_193" data-name="パス 193" d="M533.2,126.4h56.4v-2.8H533.5Z" fill="#ffd17f"/>
      </g>
      <g id="グループ_345" data-name="グループ 345">
        <path id="パス_194" data-name="パス 194" d="M494.2,126.4h39l.3-2.8H494Z" fill="#f2b24d"/>
      </g>
      <g id="グループ_347" data-name="グループ 347">
        <g id="グループ_346" data-name="グループ 346">
          <path id="パス_195" data-name="パス 195" d="M524,126.4H503.2a6.466,6.466,0,0,0-6.4,6.5V190h1.5V132.9a5,5,0,0,1,4.9-5H524a4.93,4.93,0,0,1,4.9,5V190h1.5V132.9A6.466,6.466,0,0,0,524,126.4Z" fill="#cee2e7"/>
        </g>
      </g>
      <g id="グループ_349" data-name="グループ 349">
        <g id="グループ_348" data-name="グループ 348">
          <path id="パス_196" data-name="パス 196" d="M576,126.4H555.2a6.466,6.466,0,0,0-6.4,6.5V190h1.5V132.9a5,5,0,0,1,4.9-5H576a4.93,4.93,0,0,1,4.9,5V190h1.5V132.9A6.466,6.466,0,0,0,576,126.4Z" fill="#accbd1"/>
        </g>
      </g>
    </g>
    <g id="グループ_356" data-name="グループ 356">
      <g id="グループ_351" data-name="グループ 351">
        <path id="パス_197" data-name="パス 197" d="M571.8,101.8H545a1.831,1.831,0,0,0-1.8,1.6l-1.8,16.8a1.444,1.444,0,0,0,1.5,1.6h26.8a1.831,1.831,0,0,0,1.8-1.6l1.8-16.8A1.5,1.5,0,0,0,571.8,101.8Z" fill="#2b1a5c"/>
      </g>
      <g id="グループ_352" data-name="グループ 352">
        <path id="パス_198" data-name="パス 198" d="M525.8,121.8h0a1.733,1.733,0,0,0,1.8,1.8h28.1a1.793,1.793,0,0,0,1.8-1.8v-.1H525.8Z" fill="#5f40d4"/>
      </g>
      <g id="グループ_353" data-name="グループ 353">
        <path id="パス_199" data-name="パス 199" d="M572.2,101.8H545.4a1.831,1.831,0,0,0-1.8,1.6l-1.8,16.8a1.444,1.444,0,0,0,1.5,1.6h26.8a1.831,1.831,0,0,0,1.8-1.6l1.8-16.8A1.5,1.5,0,0,0,572.2,101.8Z" fill="#483680"/>
      </g>
      <g id="グループ_354" data-name="グループ 354">
        <path id="パス_200" data-name="パス 200" d="M541.4,121.8h0a1.733,1.733,0,0,0,1.8,1.8h26.5a1.793,1.793,0,0,0,1.8-1.8v-.1H541.4Z" fill="#2b1a5c"/>
      </g>
      <g id="グループ_355" data-name="グループ 355">
        <path id="パス_201" data-name="パス 201" d="M559,110.2a1.356,1.356,0,0,1-1.1.6,1.054,1.054,0,0,1-1-.6,1.962,1.962,0,0,0-.9.9,1.369,1.369,0,0,1-.2,1.5,2.286,2.286,0,0,0,.7,1,1.407,1.407,0,0,1,1.2-.6,1,1,0,0,1,1,.6,3.044,3.044,0,0,0,.8-.8,1.358,1.358,0,0,1,.2-1.6A1.979,1.979,0,0,0,559,110.2Z" fill="#b1c9ca"/>
      </g>
    </g>
  </g>
</svg>
