<svg xmlns="http://www.w3.org/2000/svg" viewBox="0 0 159.75 208.13"><defs><style>.cls-1{fill:#ebf0f6;}.cls-2{fill:#1c3e58;}.cls-3{fill:#fabf62;}</style></defs><title>アセット 4</title><g id="レイヤー_2" data-name="レイヤー 2"><g id="Illustration"><polygon class="cls-1" points="141.21 162.93 116.78 176.29 108.15 180.99 75.92 198.9 11.52 160.16 11.55 157.66 6.48 160.44 75.43 202.38 145.93 163.77 141.25 160.92 141.21 162.93"/><path class="cls-2" d="M75.35,208.13A7.83,7.83,0,0,1,71.24,207l-69-42a4.64,4.64,0,0,1,.18-8L9,153.36l.48.88-6.58,3.6a3.65,3.65,0,0,0-.14,6.31l69,42a7,7,0,0,0,6.9.16l70.86-38.78a3.65,3.65,0,0,0,.14-6.31l-6.23-3.79.52-.86,6.23,3.8a4.64,4.64,0,0,1-.18,8L79.14,207.16A7.86,7.86,0,0,1,75.35,208.13Z"/><path class="cls-2" d="M125.47,155.72a4.31,4.31,0,0,1-2.06-.51c-.36-.2-.77-.67-1.16-3.85l1-.13c.33,2.69.65,3.09.69,3.13a3.16,3.16,0,0,0,2.71.11.77.77,0,0,0,.46-.63c.07-1.15.17-2.41.27-3.63l1,.08c-.1,1.22-.2,2.47-.27,3.61a1.75,1.75,0,0,1-1,1.44A3.43,3.43,0,0,1,125.47,155.72Z"/><path class="cls-2" d="M104,174.46a3.87,3.87,0,0,1-2.4-.87c-.21-.18-.61-.51-1.21-4.42l1-.15c.49,3.22.81,3.74.87,3.81a2.83,2.83,0,0,0,2,.61,1.66,1.66,0,0,0,1.15-.6c.06-.08.35-.62.7-4l1,.1c-.35,3.41-.66,4.19-.89,4.5a2.65,2.65,0,0,1-1.84,1A2.69,2.69,0,0,1,104,174.46Z"/><path class="cls-3" d="M103.33,169.75c-2.21,0-3.77-.42-4.66-1.26a2,2,0,0,1-.71-1.38l-5-37.56a4.46,4.46,0,0,0-2.3-4C74,116.38,64.75,107.13,63.9,98.78c-.19-1.85-.45-3.75-.76-5.65l1-.16c.32,1.92.58,3.84.77,5.71.82,8,9.89,17,26.24,26a5.4,5.4,0,0,1,2.81,4.85L99,167c0,.07.19,2,5.47,1.68,3.17-.19,3.72-1.63,3.74-1.69,0-.27,5-36,1.82-46.71a18.53,18.53,0,0,0-1.72-3.42l.85-.52A19.81,19.81,0,0,1,111,120c3.23,11-1.6,45.75-1.81,47.23,0,.16-.73,2.22-4.66,2.46Z"/><path class="cls-3" d="M123.93,151.8a4.55,4.55,0,0,1-4.32-2.51.57.57,0,0,1,0-.14l-2.46-29.66,1-.08L120.56,149a3.69,3.69,0,0,0,3.91,1.79c2.16-.2,5.22-2,5.54-3.33,1.48-5.86,2.22-35.82,2.25-37.09l1,0c0,1.28-.77,31.34-2.28,37.32-.47,1.89-4,3.85-6.42,4.08Z"/><rect class="cls-2" x="122.17" y="88.75" width="1" height="10.66" transform="translate(-20.43 152.58) rotate(-59.72)"/><rect class="cls-2" x="102.44" y="95.71" width="9.1" height="1" transform="translate(-33.78 66.41) rotate(-30.01)"/><path class="cls-2" d="M115.3,121.2l-25-15.06a.51.51,0,0,1-.24-.44.49.49,0,0,1,.25-.42L95.89,102l.5.87-4.86,2.81,24.28,14.63Z"/><path class="cls-2" d="M115.25,97.53a1.45,1.45,0,0,1-1.11-.56,6.81,6.81,0,0,1-.6-1.88l-.09-.37a1,1,0,0,1-.82.31,12.44,12.44,0,0,1-3.9-2.36,23.37,23.37,0,0,1-3-4.51l.89-.45A22.68,22.68,0,0,0,109.43,92a13.16,13.16,0,0,0,3.21,2,9.69,9.69,0,0,0-1.14-1.65.5.5,0,0,1,.62-.76,5.94,5.94,0,0,1,1.82,1.46,7.29,7.29,0,0,1,.57,1.81,6.73,6.73,0,0,0,.48,1.59,13.63,13.63,0,0,0-.25-4,.5.5,0,0,1,.37-.58.51.51,0,0,1,.6.34s.61,2,.85,2.57a6,6,0,0,0,1,1.54l.08,0v-.17h1v.59a.55.55,0,0,1-.13.34,1.12,1.12,0,0,1-1.56,0,4.88,4.88,0,0,1-.92-1.18,3,3,0,0,1-.3,1.29.62.62,0,0,1-.5.27Z"/><path class="cls-2" d="M118.16,96.58a.93.93,0,0,1-.79-.36,10.14,10.14,0,0,1-.7-3.32l1-.07a11.71,11.71,0,0,0,.5,2.75,8.6,8.6,0,0,0-.6-3.86,20.87,20.87,0,0,0-3.25-4.56,13.53,13.53,0,0,0-4.72-2.59l.23-1A14.17,14.17,0,0,1,115,86.39a20.87,20.87,0,0,1,3.54,5c.31.81,1.08,3.41.56,4.72a.9.9,0,0,1-.77.5Z"/><path class="cls-2" d="M115.55,121.28a.51.51,0,0,1-.34-.14.51.51,0,0,1-.11-.58l12.6-26a.45.45,0,0,1,.2-.21L159,76.73a.5.5,0,0,1,.6.08.51.51,0,0,1,.08.61l-16.23,27.73a.39.39,0,0,1-.18.18L115.8,121.21A.52.52,0,0,1,115.55,121.28Zm13-26.12-11.81,24.37,25.94-15,15.22-26Z"/><path class="cls-2" d="M105.38,89.37a.51.51,0,0,1-.36-.15l-7.56-7.88.72-.69,7.19,7.49,4-4.48-.91-1.14a.54.54,0,0,1-.07-.13l-3.82-9.73c-.13-.27-3.49-7.51-3.81-12.19l-.69-12.87,1-.05.69,12.85c.31,4.5,3.69,11.8,3.73,11.87l3.8,9.68,1.13,1.41a.51.51,0,0,1,0,.65l-4.7,5.2a.5.5,0,0,1-.36.16Z"/><path class="cls-2" d="M60,43.78l-.92-.39a14.31,14.31,0,0,1,1.07-2.15c3.53-5.11,12.32-10.16,16.07-12.32a.5.5,0,0,1,.75.45l0,1a.51.51,0,0,1-.2.37,4.31,4.31,0,0,0-1,5.81C77.36,39.11,83,39.3,85.42,38a4.75,4.75,0,0,0,2.48-3.57,4.63,4.63,0,0,0-2-4l.63-.77a5.47,5.47,0,0,1,2.34,4.85,5.74,5.74,0,0,1-3,4.35c-2.78,1.51-9.07,1.31-11-1.76a5.15,5.15,0,0,1,.72-6.66C71.53,32.79,64.08,37.32,61,41.81A12.84,12.84,0,0,0,60,43.78Z"/><path class="cls-2" d="M68.91,95.05c-3.21,0-6.64-2-7.39-3.38-1.64-3-3.07-9.13-4-16.93l1-.12c.86,7.68,2.25,13.72,3.82,16.57.56,1,3.62,2.86,6.52,2.86,1.27,0,2.52,0,3.71-.09l0,1c-1.21.07-2.47.1-3.76.1Z"/><path class="cls-2" d="M86.64,92.15l-.38-.93c13.61-5.55,13.06-17.84,12.88-21.87,0-.38,0-.7,0-.93,0-2.55.21-6,.44-9.56.8-12.51,1.89-29.63-4.76-30.15l-1.32-.11c-1.42-.12-2.48-.2-3.35-.2v-1c.93,0,2,.09,3.45.2l1.31.11c7.63.6,6.55,17.57,5.68,31.21-.23,3.59-.44,7-.44,9.5,0,.22,0,.52,0,.88C100.32,73.51,100.9,86.33,86.64,92.15Z"/><path class="cls-2" d="M85.27,30.73A8.17,8.17,0,0,1,80,28.67a10.28,10.28,0,0,1-3.53-7.24l1-.07a9.37,9.37,0,0,0,3.19,6.55,7,7,0,0,0,5.09,1.79c4.41-.4,5.66-5.24,6.57-10.17a74.51,74.51,0,0,0,.43-8.41h1a72.81,72.81,0,0,1-.45,8.59c-.93,5.07-2.35,10.52-7.45,11Q85.57,30.73,85.27,30.73Z"/><path class="cls-2" d="M77.74,20.39a3.81,3.81,0,0,1-.74-.08,3,3,0,0,1-2.43-2.78,2.1,2.1,0,0,1,.36-1.86,1.93,1.93,0,0,1,1.69-.47,3,3,0,0,1,2.8,2l-.94.34a2,2,0,0,0-2-1.38,1.15,1.15,0,0,0-.86.16,1.28,1.28,0,0,0-.11,1,2,2,0,0,0,1.66,2,1.39,1.39,0,0,0,1.36-.25l.79.61A2,2,0,0,1,77.74,20.39Z"/><path class="cls-2" d="M100.1,105.42a1.05,1.05,0,0,1-.61-.19c-.17-.13-.4-.29-.54-.38a7.28,7.28,0,0,1-1-.07c-.28-.07-.5-.31-1.13-1.08a10.43,10.43,0,0,0-1.13-1.23c-.69-.47-2.32-.58-3.75-.68a8.76,8.76,0,0,1-3.25-.55c-.61-.35-2.85-1.56-2.85-1.56l.47-.88s2.27,1.22,2.88,1.58a9.38,9.38,0,0,0,2.81.42c1.64.1,3.34.22,4.25.85a8.42,8.42,0,0,1,1.34,1.41c.22.27.51.62.65.75l.86,0a.47.47,0,0,1,.26.08s.41.28.69.49a.59.59,0,0,0,.22-.08,6.21,6.21,0,0,0-1.11-2.24.51.51,0,0,1,0-.6.49.49,0,0,1,.58-.14,3.45,3.45,0,0,1,1.18,1l.35.44a6.1,6.1,0,0,0,1.11,1.22.32.32,0,0,0,.16,0,24.31,24.31,0,0,0-2-4.33.5.5,0,0,1,.19-.67.49.49,0,0,1,.67.16,17.22,17.22,0,0,0,2.23,3,.61.61,0,0,0,.39-.09c.12-.47-.76-1.93-1.13-2.55l-.23-.38a7.94,7.94,0,0,0-1.92-2.49c-1.07-.59-3.25-.63-5.16-.66a18.21,18.21,0,0,1-3.9-.3,18.85,18.85,0,0,1-3.17-1.27l.45-.89a18.52,18.52,0,0,0,3,1.19,17.64,17.64,0,0,0,3.65.27c2.14,0,4.34.07,5.63.79a8.58,8.58,0,0,1,2.31,2.86l.21.36c.79,1.3,1.47,2.54,1.2,3.43a1.37,1.37,0,0,1-1.63.68,4.32,4.32,0,0,1,.22,1,.87.87,0,0,1-.48.76,1.21,1.21,0,0,1-1.24-.1,4,4,0,0,1-.63-.55,1.1,1.1,0,0,1-.07.48,1.06,1.06,0,0,1-.72.58A1.31,1.31,0,0,1,100.1,105.42Z"/><path class="cls-2" d="M85.59,101.05a.54.54,0,0,1-.21,0c-.08,0-8.68-4-10.91-5.08C54.84,86,54.39,61.33,55.88,52.67,57.23,44.8,59.76,40.88,63.35,41a5.75,5.75,0,0,1,4.22,1.88C69.86,45.42,70,49.7,69.87,52c-.35,6.43,1.25,19.32,1.82,21.8S74.78,82,84.86,90.22c1.33,1.09,4.4,3,4.43,3a.5.5,0,0,1,.19.65L86,100.77A.51.51,0,0,1,85.59,101.05ZM63.17,42c-3,0-5.07,3.64-6.3,10.82C54.85,64.6,58,86.45,74.93,95c1.92,1,8.64,4,10.43,4.86l3-6.07A46.84,46.84,0,0,1,84.23,91C73.92,82.56,71.34,76.76,70.72,74.06c-.5-2.15-2.23-15.12-1.85-22.08.2-3.7-.54-6.76-2-8.4A4.88,4.88,0,0,0,63.32,42Z"/><path class="cls-2" d="M77,135.65a.48.48,0,0,1-.26-.07L35.19,110.34a.49.49,0,0,1-.24-.43l.19-26.25a.49.49,0,0,1,.26-.43L57.08,71.5l.48.88L36.14,84,36,109.63l41.06,25,15.33-8.39.48.88-15.58,8.52A.5.5,0,0,1,77,135.65Z"/><path class="cls-2" d="M75.55,199.61a.5.5,0,0,1-.26-.08l-64-38.94a.52.52,0,0,1-.24-.44L12.48,96.2a.48.48,0,0,1,.24-.42l7-4.28L16.08,87a.47.47,0,0,1-.08-.49.49.49,0,0,1,.39-.32l19.17-3,.16,1L17.4,87l3.5,4.28a.47.47,0,0,1,.1.4.5.5,0,0,1-.23.34l-7.3,4.43L12,159.88l63,38.35,1.43-63.09,1,0-1.45,64a.5.5,0,0,1-.5.49Z"/><path class="cls-2" d="M35.45,110.41a.48.48,0,0,1-.26-.07L12.72,96.63l.52-.85L33.2,108,20.12,92l.78-.63,14.93,18.27a.5.5,0,0,1,0,.65A.48.48,0,0,1,35.45,110.41Z"/><path class="cls-2" d="M75.79,199.54l-.49-.87,65.41-36L142,105.17l1,0-1.32,57.75a.54.54,0,0,1-.26.43Z"/><rect class="cls-2" x="119.01" y="70.45" width="1" height="29.19" transform="translate(-15.26 142.95) rotate(-58.69)"/><path class="cls-2" d="M76.92,19.76a2.56,2.56,0,0,1-1.86-2.31c-.21-1.28.26-1.88,1.52-1.76l.34.06c-.06-2.72-.07-5.19-.07-5.19.87-3.85,17.27-3.21,16.42.56,0,0,0,2.26-.1,4.57a12.85,12.85,0,0,0,.91-7.84C93.39,5.11,92,1.34,88.53.69,80.07-.91,80.26.6,77.61,1.88c-1.23.6-2.53.21-4,3.28-2.71,5.53-.93,10.49-.81,12.06.35,4.45,1.95,3.89,3.87,6.52C76.67,22.7,76.87,20.35,76.92,19.76Z"/><path class="cls-2" d="M92.15,4.39C88,.6,81.2,1.14,78.2,2.66c-3.53,1.79-3.41,3.34-4,4.79-1.76,4.13.93,8.77,1,8.82.2-.45.67-.65,1.44-.58a2.9,2.9,0,0,1,1.61.6,10.28,10.28,0,0,1,.57-2.6,4.09,4.09,0,0,1,1.09-1.19c1.66-1.19,1.76-.41,5.11,1.27a7.37,7.37,0,0,0,3.24.84A2.61,2.61,0,0,0,89.62,14c.62-.31,1.69.7,2.76.64C95.74,14.44,95.61,7.56,92.15,4.39Z"/><rect class="cls-2" x="72.01" y="24.09" width="9.56" height="1" transform="translate(47.14 99.56) rotate(-86.18)"/><path class="cls-2" d="M115,179.19c-2.49-2-3.78-1.75-6.6-6.3a8.45,8.45,0,0,0-2-2.25,7.56,7.56,0,0,1-.59,2.5c-.79,1.05-2.63,1.11-3.92.06a6.93,6.93,0,0,1-.81-2.75,4.3,4.3,0,0,0-1,1.2c-.36.78.53,5.59.53,5.59a.83.83,0,0,0,.48.74l2.71,1.39v-1.24a16.54,16.54,0,0,0,5.48,3.84c2.72,1.27,6-1.13,6-1.13S115.69,179.71,115,179.19Z"/><path class="cls-2" d="M136.22,161.53c-2.5-2-3.79-1.75-6.61-6.3a8.49,8.49,0,0,0-2-2.24l-.06.88c-.09,1.4-2.46,1.73-3.95.9-.31-.17-.56-1.13-.76-2.41a4.56,4.56,0,0,0-1.54,1.62c-.36.79.53,5.6.53,5.6a.83.83,0,0,0,.48.74l2.71,1.39v-1.24a16.54,16.54,0,0,0,5.48,3.84c2.72,1.27,6-1.13,6-1.13S136.87,162,136.22,161.53Z"/></g></g></svg>