<svg xmlns="http://www.w3.org/2000/svg" viewBox="0 0 2046.33 1351.64"><defs><style>.cls-1{fill:#eaf4fe;}.cls-2{fill:#fff;}.cls-3{fill:none;stroke:#69aeeb;stroke-width:8.55px;}.cls-4{fill:#212957;}.cls-5{fill:#f7b68b;}.cls-6{fill:#0561fc;}.cls-7{fill:#ec9568;}.cls-8{fill:#ffab01;}.cls-9{fill:#c5e1f9;}.cls-10{fill:#69aeeb;}.cls-11{fill:#fd2227;}</style></defs><title>アセット 1</title><g id="レイヤー_2" data-name="レイヤー 2"><g id="Layer_2" data-name="Layer 2"><path class="cls-1" d="M1700.56,649.69c-388.18-274-800.28-949.36-1218.88-498.64C274.62,356.7,97,746.55,30.2,1020.26c-31.06,131.35-39,238.56-19.81,327.11H1971.26c63.48-132.3,85.54-253.48,70.56-337.93C2017.65,853.64,1888.37,802,1700.56,649.69Z"/><rect class="cls-2" x="188.57" y="830.41" width="543.67" height="89.08"/><line class="cls-3" x1="208.77" y1="874.95" x2="252.47" y2="874.95"/><line class="cls-3" x1="219.7" y1="893.87" x2="241.55" y2="856.02"/><line class="cls-3" x1="241.55" y1="893.87" x2="219.7" y2="856.02"/><line class="cls-3" x1="271.04" y1="874.95" x2="314.74" y2="874.95"/><line class="cls-3" x1="281.96" y1="893.87" x2="303.81" y2="856.02"/><line class="cls-3" x1="303.81" y1="893.87" x2="281.96" y2="856.02"/><line class="cls-3" x1="333.31" y1="874.95" x2="377" y2="874.95"/><line class="cls-3" x1="344.23" y1="893.87" x2="366.09" y2="856.02"/><line class="cls-3" x1="366.09" y1="893.87" x2="344.23" y2="856.02"/><line class="cls-3" x1="395.58" y1="874.95" x2="439.28" y2="874.95"/><line class="cls-3" x1="406.51" y1="893.87" x2="428.36" y2="856.02"/><line class="cls-3" x1="428.36" y1="893.87" x2="406.51" y2="856.02"/><line class="cls-3" x1="457.85" y1="874.95" x2="501.55" y2="874.95"/><line class="cls-3" x1="468.77" y1="893.87" x2="490.62" y2="856.02"/><line class="cls-3" x1="490.62" y1="893.87" x2="468.77" y2="856.02"/><rect class="cls-2" x="188.57" y="710.62" width="543.67" height="89.08"/><line class="cls-3" x1="217.81" y1="758.23" x2="554.48" y2="758.23"/><path class="cls-4" d="M971,1014.49c2.58,69.69,55.35,239.74,87.35,337.15h496.55l88.81-244.23s188-292.7-135.65-486.88c-46.46-27.88-288-7.44-288-7.44s-179,12-416.26,367.95C796.35,992.19,967.31,914.14,971,1014.49Z"/><path class="cls-5" d="M1268.36,449.56c3.72,18.59,35.87,74.85-104.06,204.42C1063.94,746.9,1383.58,758,1495.07,616.81c0,0-171-22.3-115.21-334.5C1421.69,48,1268.36,449.56,1268.36,449.56Z"/><path class="cls-5" d="M1195.27,765.48l-66.9,27.25s-25.81,12-19.82,15.49c7.43,4.33,59.46-11.77,59.46-11.77s14.87,6.19,37.17,21.06,61.94,12.39,61.94,12.39S1403.4,1095,1524.81,1139.62s138.75,24.78,156.1-7.44,49.55-175.92-74.34-213.08S1294.38,815,1294.38,815l-59.47-62.56-42.12-1.86s-17.35,12.39-27.25,19.82"/><path class="cls-6" d="M1097.27,938.82c3,8.21-1.24,15.39-9.45,15.39h-394c-8.21,0-17.29-7.18-20.28-15.39l-100.1-274.1c-3-8.21,1.24-13.93,9.45-13.93h394c8.2,0,17.28,5.72,20.27,13.93Z"/><path class="cls-6" d="M1240.14,982.08a14.86,14.86,0,0,1-14.86,14.86H699.45a14.86,14.86,0,0,1-14.86-14.86v-13a14.86,14.86,0,0,1,14.86-14.86h525.83a14.86,14.86,0,0,1,14.86,14.86Z"/><path class="cls-7" d="M1011.91,996.94H729.45s-59.47,19.93-3.72,90.54,113.36,50.85,144.95,37.84,137.52-110.24,137.52-110.24l44.6,5.28,55.75-26.16s-13-7.5-29.74-.07-26,5.53-26,5.53l-16.73-9.31,11.16-13,5.57-13-26,15.38Z"/><path class="cls-7" d="M1373.31,460c-7.13-45.13-6.76-103.12,6.55-177.68,41.83-234.27-111.5,167.25-111.5,167.25,3.19,15.93,27.25,59.55-54.06,153.28C1280.32,588.63,1337.31,535.31,1373.31,460Z"/><path class="cls-5" d="M1234.91,182s-37.17,230.43-22.3,282.47,59.24,64.18,111.5-7.43c100.35-137.52,96.63-245.3,66.9-263.88S1279.51,103.92,1234.91,182Z"/><path class="cls-4" d="M1298.09,215.42c-36.1,5.79-92.91,26-130.08-66.9s44.6-111.5,85.49-63.19,37.16,70.62,11.14,48.32,14.87-89.2,52-44.6,52,111.5,33.45,107.78,40.88-78.05,63.18-44.6,37.16,81.77,11.15,96.63-55.75-37.16-29.74-18.58,33.46,118.93,0,133.8-33.44-11.15-3.71-40.88-11.15-91.06-26-31.59c-1.27,5.1-11.15,39-11.15,39l-22.3,18.58s0-66.9,14.87-91C1379.92,203.7,1378.91,202.44,1298.09,215.42Z"/><path class="cls-5" d="M1032.88,1000.51S831.81,1019.86,781.29,1025c-33.41,3.38-64.27,17.44-72.9,35.18a138.68,138.68,0,0,0,17.34,27.33c55.75,70.62,113.36,50.85,144.95,37.84s137.52-110.24,137.52-110.24l44.62,5.37C1054.91,1016.6,1036.65,1001.17,1032.88,1000.51Z"/><path class="cls-7" d="M1676.36,1140.18c-13.14,9.18-17.41,16.3-38.78,13.46-32.75-4.37-135.2-62.85-183.76-99.72-76.93-58.4-182.25-223.45-186.36-223.37,7.33,14.11,139.35,265.73,257.35,309.07C1635.77,1180.38,1659.81,1167.32,1676.36,1140.18Z"/><path class="cls-8" d="M756.39,335.79a18.15,18.15,0,0,0,18.15,18.14h12.09v42.34L829,353.93H968.09a18.15,18.15,0,0,0,18.15-18.14V184.57a18.15,18.15,0,0,0-18.15-18.15H774.54a18.15,18.15,0,0,0-18.15,18.15Z"/><rect class="cls-2" x="792.68" y="220.86" width="157.27" height="12.1"/><rect class="cls-2" x="792.68" y="251.1" width="157.27" height="12.09"/><rect class="cls-2" x="792.68" y="281.35" width="157.27" height="12.1"/><path class="cls-2" d="M1063.32,523.15a15.46,15.46,0,0,1-15.46,15.46H913.91a15.46,15.46,0,0,1-15.46-15.46V327.37a15.46,15.46,0,0,1,15.46-15.45h92.73l56.68,56.67Z"/><polygon class="cls-9" points="1011.79 363.44 1063.32 414.28 1063.32 368.59 1058.17 363.44 1011.79 363.44"/><path class="cls-6" d="M1006.64,311.92v41.21a15.46,15.46,0,0,0,15.46,15.46h41.22Z"/><rect class="cls-10" x="929.36" y="435.57" width="103.04" height="10.3"/><rect class="cls-10" x="929.36" y="456.18" width="103.04" height="10.3"/><rect class="cls-10" x="929.36" y="476.78" width="103.04" height="10.31"/><rect class="cls-10" x="929.36" y="414.96" width="77.28" height="10.31"/><path class="cls-11" d="M743.29,159.45c0,5.32-4,9.62-9,9.62h-17.4v36.09l-42.61-36.09H586.88c-5,0-9-4.3-9-9.62V50.24c0-5.32,4-9.62,9-9.62H734.32c4.95,0,9,4.3,9,9.62Z"/><polygon class="cls-2" points="691.45 104.34 667.33 118.27 643.19 132.2 643.19 104.34 643.19 76.48 667.33 90.41 691.45 104.34"/><polygon class="cls-9" points="688.46 494.46 688.46 606.35 591.48 509.38 688.46 494.46"/><rect class="cls-9" x="301.01" y="251.74" width="425.6" height="306.53" rx="14.37"/><path class="cls-2" d="M381.75,298.61a21.89,21.89,0,1,1-21.9-21.89A21.91,21.91,0,0,1,381.75,298.61Z"/><rect class="cls-2" x="400.9" y="304.77" width="225.8" height="9.58"/><rect class="cls-2" x="400.9" y="282.87" width="127.27" height="9.58"/><rect class="cls-6" x="339.15" y="342.09" width="353.23" height="180.48"/><polygon class="cls-2" points="533.41 432.33 511.24 445.12 489.06 457.94 489.06 432.33 489.06 406.73 511.24 419.52 533.41 432.33"/></g></g></svg>