<svg xmlns="http://www.w3.org/2000/svg" xmlns:xlink="http://www.w3.org/1999/xlink" viewBox="0 0 2431.58 1332.44"><defs><style>.cls-1,.cls-10,.cls-3,.cls-7{fill:none;}.cls-2{fill:#eaf4fe;}.cls-3,.cls-7{stroke:#9ac7f7;}.cls-3{stroke-width:8.55px;}.cls-4{fill:#fff;}.cls-5{fill:#212a54;}.cls-6{fill:#c5e1f9;}.cls-10,.cls-7{stroke-miterlimit:10;stroke-width:4.27px;}.cls-8{clip-path:url(#clip-path);}.cls-9{fill:#9ac7f7;}.cls-10{stroke:#69aeeb;}.cls-11{fill:#69aeeb;}.cls-12{fill:#e9ab86;}.cls-13{fill:#0450cf;}.cls-14{fill:#212957;}.cls-15{fill:#ec9568;}.cls-16{fill:#f7b68b;}.cls-17{fill:#0561fc;}</style><clipPath id="clip-path"><path class="cls-1" d="M2099.82,808.47s-68.36-147.06-5.67-233.92,186.74-122.66,186.74-122.66,73.25,173.29-5.93,259.42S2119.88,787.9,2099.82,808.47Z"/></clipPath></defs><title>アセット 2</title><g id="レイヤー_2" data-name="レイヤー 2"><g id="Layer_2" data-name="Layer 2"><path class="cls-2" d="M2129.11,175.68c-342.26-250.07-568.46-191.62-755.8-79.45C1232.4,180.6,1121.93,354.15,783.28,400,213.09,477.07-177.91,819.48,82.14,1332.44H1917c26-92.78,61.33-170.23,151-225.52C2507.15,836.21,2471.37,425.74,2129.11,175.68Z"/><rect class="cls-3" x="1493.06" y="703.23" width="85.69" height="85.7"/><line class="cls-3" x1="1557.67" y1="758.01" x2="1514.14" y2="758.01"/><line class="cls-3" x1="1557.67" y1="734.15" x2="1514.14" y2="734.15"/><rect class="cls-3" x="1410.36" y="620.71" width="168.39" height="168.39"/><rect class="cls-3" x="1410.36" y="620.71" width="168.39" height="168.39"/><line class="cls-3" x1="1494.96" y1="620.71" x2="1494.96" y2="788.3"/><line class="cls-3" x1="1578.75" y1="704.5" x2="1411.17" y2="704.5"/><line class="cls-3" x1="1473.2" y1="663.16" x2="1429.67" y2="663.16"/><line class="cls-3" x1="1451.43" y1="684.91" x2="1451.43" y2="641.39"/><line class="cls-3" x1="1559.16" y1="663.16" x2="1515.64" y2="663.16"/><line class="cls-3" x1="1466.83" y1="763.42" x2="1436.04" y2="732.64"/><line class="cls-3" x1="1436.05" y1="763.41" x2="1466.83" y2="732.64"/><rect class="cls-4" x="1582.52" y="469.54" width="427.35" height="70.51"/><line class="cls-3" x1="1612.43" y1="469.54" x2="1612.43" y2="503.44"/><line class="cls-3" x1="1642.35" y1="469.54" x2="1642.35" y2="487.79"/><line class="cls-3" x1="1672.26" y1="469.54" x2="1672.26" y2="503.44"/><line class="cls-3" x1="1702.18" y1="469.54" x2="1702.18" y2="487.79"/><line class="cls-3" x1="1732.09" y1="469.54" x2="1732.09" y2="503.44"/><line class="cls-3" x1="1762.01" y1="469.54" x2="1762.01" y2="487.79"/><line class="cls-3" x1="1791.92" y1="469.54" x2="1791.92" y2="503.44"/><line class="cls-3" x1="1821.83" y1="469.54" x2="1821.83" y2="487.79"/><line class="cls-3" x1="1851.75" y1="469.54" x2="1851.75" y2="503.44"/><line class="cls-3" x1="1881.66" y1="469.54" x2="1881.66" y2="487.79"/><line class="cls-3" x1="1911.58" y1="469.54" x2="1911.58" y2="503.44"/><line class="cls-3" x1="1941.49" y1="469.54" x2="1941.49" y2="487.79"/><line class="cls-3" x1="1971.41" y1="469.54" x2="1971.41" y2="503.44"/><path class="cls-5" d="M981.3,504.35s137.62,27.49,184.5,10.91-16-44.85,4.18-106.7,48.14-230.27-22.35-155.64S1107.07,380.3,1123,336.71s87.58-147.66-35.41-185.64-193,25.61-107.15,102.67-79.32-154.19-103.94-70.4,49.38,101.43,73.94,109.76-74.37-98.72-92.18-7.3S898.38,442.14,981.3,504.35Z"/><path class="cls-6" d="M1712,640.4s43.76,5.5,161.68,89.7"/><path class="cls-6" d="M1783.86,704.32a193,193,0,0,1-18.74-8.25q-4.29-2.18-8.19-4.45c-2.62-1.41-5.12-2.73-7.5-4.16a123.11,123.11,0,0,1-12.84-8.72,82.42,82.42,0,0,1-10-8.3,78.63,78.63,0,0,1-7.36-8.06,47.11,47.11,0,0,1-2.77-4,35.4,35.4,0,0,1-2-3.72,33.57,33.57,0,0,1-1.52-3.73c-.19-.61-.39-1.25-.55-1.85s-.17-1.17-.25-1.76a22.23,22.23,0,0,1-.08-7,10.58,10.58,0,0,1,3-6.38,24.36,24.36,0,0,1,3-2.65,23.47,23.47,0,0,1,4-2.22,37.42,37.42,0,0,1,10.41-2.76,54.21,54.21,0,0,1,13.13-.23,104.41,104.41,0,0,1,15.24,2.6,149.56,149.56,0,0,1,16.46,5.89c2.85,1.24,5.86,2.52,8.75,4.07s5.74,3.26,8.67,5.07c5.85,3.64,11.85,7.8,17.89,12.45a184.55,184.55,0,0,1,16.23,15c2.89,2.95,5.83,6.09,8.77,9.34s5.91,6.54,8.63,10.12c11.11,14,21.31,28.67,27.52,39.39a390.1,390.1,0,0,1-44.62-10.32l-6-1.81-6.06-1.71c-4-1.14-8-2.36-11.84-3.63A195.93,195.93,0,0,1,1783.86,704.32Z"/><path class="cls-6" d="M1763.92,762.69s138.28,5.79,144,6.42"/><path class="cls-6" d="M1836.49,793.79c-46.44,6.73-74.17-12.86-72.55-31.12.61-18.32,30.26-35.31,75.18-24.82,9.48,1.89,22.71,6.86,35.49,12.77s25.15,12.76,33.29,18.47a291.13,291.13,0,0,1-34.59,15.15C1860.53,788.89,1847.43,792.61,1836.49,793.79Z"/><line class="cls-6" x1="1877.59" y1="644.07" x2="1920.67" y2="768.25"/><path class="cls-6" d="M1873.26,717c-22.09-37.09-13.18-67.6,4.36-72.89,17.27-6.17,43.15,12.88,48.57,54.53,2.82,17-.66,51-5.48,69.64C1905.31,756.69,1883.16,735.11,1873.26,717Z"/><path class="cls-6" d="M1955.67,636.72s45.16,90.41,3.91,175.11"/><path class="cls-6" d="M1948.87,727.36c-1.35-6.28-2.51-12.18-3.5-17.79s-1.84-10.93-2.5-16a144.87,144.87,0,0,1-1.23-26.81c.95-15.54,5.64-26.4,14.06-30.08,8.11-4.24,21,.77,32,15.83a90.21,90.21,0,0,1,13.79,29.87,121.32,121.32,0,0,1,3.35,43.06,115.35,115.35,0,0,1-4.51,23A142.07,142.07,0,0,1,1990,774a131.86,131.86,0,0,1-14.82,22.38c-1.28,1.63-2.65,3.16-4,4.6s-2.67,2.83-3.94,4.13c-2.68,2.57-5.26,4.8-7.58,6.73,0-3.07-.09-6.35-.14-9.75-.2-3.46-.22-7-.5-10.65-.44-7.3-1.31-14.94-2.34-22.44s-2.5-14.93-3.88-22S1949.89,733.41,1948.87,727.36Z"/><path class="cls-6" d="M1806.71,833.23s81.49-17.33,153.1-2.93"/><path class="cls-6" d="M1885.9,852.74c-5.76,1.16-11.25,2.22-16.44,2.75a127.73,127.73,0,0,1-14.74,1,85.82,85.82,0,0,1-24.22-2.91c-13.66-3.85-22.28-11.38-23.78-20.42-2-8.93,4.13-19.59,17.62-27.41a77,77,0,0,1,25.41-8.76,106.2,106.2,0,0,1,16.32-1.5,123.57,123.57,0,0,1,18.39,1.22c10.58,1.06,25.63,5.6,39.82,11.89,3.55,1.63,7,3.25,10.42,5s6.61,3.7,9.66,5.53,5.88,3.82,8.48,5.69,4.92,3.7,7,5.42c-2.57.91-5.32,1.85-8.2,2.78s-5.86,1.79-9,2.92l-19.31,6.36-4.91,1.54-4.9,1.59c-3.26,1.06-6.47,1.94-9.64,2.88s-6.27,1.79-9.26,2.5S1888.69,852.28,1885.9,852.74Z"/><path class="cls-6" d="M1812.81,896.76s47.87-36.12,174.69,20.26"/><path class="cls-6" d="M1898.49,917q-5,0-9.56-.29l-2.29-.16h-2.21c-1.46,0-2.9-.08-4.31-.16-5.7-.49-10.76-.52-15.6-1.16a161.48,161.48,0,0,1-24-3.52,67.41,67.41,0,0,1-16.81-5.88,30.29,30.29,0,0,1-10.87-9.13c-2.89-3.57-3-9.16,0-15.19s9.34-12.22,18.51-17.13q3.4-1.74,7.37-3.38c2.59-1,5.33-1.78,8.25-2.58,1.44-.37,3-.84,4.45-1.09s3-.53,4.61-.75,3.16-.44,4.8-.63a45.8,45.8,0,0,1,5-.38c3.32-.09,6.76-.08,10.3,0l2.67.11,2.63.29q2.67.32,5.38.7c1.81.26,3.66.56,5.51.87.92.17,1.86.31,2.78.51l2.75.7q5.52,1.43,11.19,3.22a73.14,73.14,0,0,1,10,3.79c3.51,1.54,7.2,3.27,11,5.17s7.42,4.32,11.19,6.66,7.59,4.67,11.12,7.45,7.12,5.42,10.5,8.14c1.68,1.37,3.34,2.72,5,4.07s3.12,2.83,4.63,4.22c6,5.62,11.15,10.92,15.16,15.47-6.18.35-13.28.51-20.8.48l-5.72-.06-5.9.12q-6,.11-12,0c-2,0-4-.1-6-.08l-6,.12c-4,0-7.84,0-11.62-.1s-7.47.08-11,0S1901.64,917,1898.49,917Z"/><path class="cls-6" d="M2047.46,720c-17.57,30.6-46,188.52-46,188.52"/><path class="cls-6" d="M1992.72,809.67c2.55-31.89,11.31-56.68,22.32-72.6,5.5-7.94,11.61-13.69,17.46-16.7a22.56,22.56,0,0,1,4.26-1.69,15.32,15.32,0,0,1,4.06-.64,11.67,11.67,0,0,1,6.65,2,17.92,17.92,0,0,1,5.25,4.69,31.77,31.77,0,0,1,2.13,3.09,36.21,36.21,0,0,1,1.87,3.68c2.28,5.26,3.73,12.12,4.12,20.74.74,17.18-2.81,41.13-13.41,69.5-4.1,11.76-12,28-20.59,44.15s-18,32-25.37,42.63C1995.07,883.36,1989.41,840.32,1992.72,809.67Z"/><path class="cls-6" d="M2107.81,847s-81.22,71-116.39,158.11"/><path class="cls-6" d="M2017.37,905.32c1-1.85,2.07-3.67,3.11-5.45s2.2-3.43,3.3-5.11c2.21-3.33,4.43-6.55,6.68-9.58a164.93,164.93,0,0,1,13.92-16.06,114.09,114.09,0,0,1,27.15-20.75c17.06-9,30.71-8.64,36.28-1.36,6.12,6.84,5.12,19.84-2.61,35.89-3.8,8.1-9.43,16.86-16.56,26.29-3.67,4.62-7.51,9.56-12,14.44-4.28,5-9.3,10-14.41,15.26-8.53,8.69-21.62,20.23-34.91,32.25-3.29,3-6.62,6-9.93,9-3.14,3.07-6.3,6.08-9.41,9s-5.92,5.8-8.69,8.47-5.36,5.22-7.81,7.47c0-3.25,0-6.81.14-10.63s.25-8,.86-12.09,1.14-8.53,1.87-13c.34-2.27.84-4.46,1.34-6.72l1.6-6.79q.87-3.45,1.74-6.87c.64-2.27,1.38-4.49,2.11-6.74,1.48-4.46,3-9,4.7-13.27s3.6-8.42,5.49-12.43S2015.31,908.85,2017.37,905.32Z"/><path class="cls-6" d="M1811.34,950.78s84.67-19.86,169.12,28.85"/><path class="cls-6" d="M1895.79,978.39c-3.2.05-6.27,0-9.24-.15s-5.9-.07-8.7-.24l-4.13-.27q-2-.09-4-.21c-2.63-.17-5.16-.52-7.64-.76a125.15,125.15,0,0,1-25.59-5.13c-14.35-4.64-23.46-11.86-25.12-20.88-1.14-4.42.24-9.48,4-14.28s9.87-9.41,18.23-13,18.93-5.9,31.19-6.39c3.07-.08,6.24,0,9.51.18,1.63.08,3.28.17,5,.31s3.36.43,5.08.68c3.42.54,6.92,1.08,10.48,1.91s7.16,1.91,10.8,3a72.63,72.63,0,0,1,9.77,3.59c3.43,1.51,7.1,3,10.76,5.06s7.38,4.23,11.1,6.52a62.08,62.08,0,0,1,5.48,3.71l5.36,4c1.73,1.34,3.48,2.68,5.22,4s3.31,2.9,4.91,4.34c3.17,2.93,6.19,5.83,9,8.65a171.81,171.81,0,0,1,13.32,16.49c-6-.15-12.86-.54-20-1-3.65,0-7.38-.11-11.12-.21-1.85-.08-3.72-.15-5.59-.21l-5.72.07c-3.8,0-7.55,0-11.25,0-3.76.16-7.43.23-11,.23s-7.07.15-10.42.11S1898.88,978.36,1895.79,978.39Z"/><path class="cls-7" d="M1729.69,636.63s188.39,93.27,241.72,213.43c45.17,101.76,7.69,133.43-1.22,226.59-1.18,12.4-12.43,79.53,40.85,165.61"/><path class="cls-7" d="M1884,645.16s20.68,103,46.26,142"/><path class="cls-7" d="M1766.41,762.79s111-15,158.3,15.71"/><path class="cls-7" d="M1961.61,638.54s40.33,102.55-7.27,180.58"/><path class="cls-7" d="M1809.66,832.6s69.22-43.11,151.45-2"/><path class="cls-7" d="M2046.25,723s-42.13,138.6-53.75,234.91"/><path class="cls-7" d="M1812.64,893.09c32.9-31.08,168-5.48,180,36.41"/><path class="cls-7" d="M2099.7,852.4s-113.28,111.77-129.47,221.39"/><path class="cls-7" d="M1820.12,942.75s112.22-23.88,166.6,46"/><path class="cls-6" d="M2338.7,954.51l28,22a371.41,371.41,0,0,0,64.14-50.14,300.79,300.79,0,0,0-50.4-57c-95.79-83.78-282.26-8.2-293.52,158.46,51.44,18.53,125.08,15.41,202-13.23a437.11,437.11,0,0,0,56.81-25.91Z"/><path class="cls-7" d="M2430.79,926.36s-196.85-77.63-332.62,87c-3.82,4.62-41.61,54.95-52.62,123.67"/><line class="cls-7" x1="2394" y1="881.96" x2="2363.26" y2="911.12"/><line class="cls-7" x1="2361.01" y1="856.01" x2="2316.01" y2="908"/><line class="cls-7" x1="2321.85" y1="839.96" x2="2268.77" y2="912.19"/><line class="cls-7" x1="2270.82" y1="835.71" x2="2225.91" y2="923.42"/><line class="cls-7" x1="2224.69" y1="845.89" x2="2190.85" y2="937.53"/><line class="cls-7" x1="2174.32" y1="871.4" x2="2149.09" y2="964.32"/><line class="cls-7" x1="2131.6" y1="911.17" x2="2113.94" y2="995.8"/><line class="cls-7" x1="2396.65" y1="955.37" x2="2364.69" y2="910.43"/><line class="cls-7" x1="2316.01" y1="908" x2="2370.1" y2="974.34"/><line class="cls-7" x1="2268.77" y1="912.19" x2="2328.46" y2="997.11"/><line class="cls-7" x1="2225.91" y1="923.42" x2="2284.11" y2="1016.56"/><line class="cls-7" x1="2190.85" y1="937.53" x2="2243.58" y2="1028.65"/><line class="cls-7" x1="2149.09" y1="964.32" x2="2195.04" y2="1037.63"/><line class="cls-7" x1="2113.94" y1="995.8" x2="2146.75" y2="1038.57"/><path class="cls-6" d="M1972,380.28c19,50.9,57.07,69.78,111.23,68.5,40.9-41.11,47.38-90.2,14.26-140.06-33-49.43-94.44-89.24-146.89-102C1948.33,258.68,1953.2,329.94,1972,380.28Z"/><path class="cls-7" d="M1967.05,229.89c45.74,63.33,96.23,161.75,127.62,241.53,10.47,26.59,106.22,329.58-40,512.5"/><path class="cls-7" d="M2001.61,283a359.41,359.41,0,0,0,4.11-43.45"/><path class="cls-7" d="M2023,320.1c4.77-16.55,10.44-33.11,12.51-49.31"/><path class="cls-7" d="M2044.42,359.58A352.25,352.25,0,0,0,2067,277.84"/><path class="cls-7" d="M2060.83,391.47a349,349,0,0,0,30.55-74.32"/><path class="cls-7" d="M2073.58,423a378.19,378.19,0,0,0,24-39.37"/><path class="cls-7" d="M1998,275.9Q1977.75,270,1957.5,264"/><path class="cls-7" d="M2019.42,315.91c-20.65-5.14-38.75-10.58-59.45-16"/><path class="cls-7" d="M2039.8,353.38c-25.54-5.23-48.88-10.93-74.46-16.52"/><path class="cls-7" d="M2058.4,387.83q-39.08-6.24-78.16-13.06"/><path class="cls-7" d="M2072.14,419.75c-22.33-2.56-45.3-5.28-67.6-8.12"/><path class="cls-6" d="M2099.82,808.47s-68.36-147.06-5.67-233.92,186.74-122.66,186.74-122.66,73.25,173.29-5.93,259.42S2119.88,787.9,2099.82,808.47Z"/><path class="cls-7" d="M2280.89,451.89S2023.17,786.4,2047.5,1168.27"/><g class="cls-8"><path class="cls-7" d="M2234.18,454.19c5.29,13.31,11.89,25.3,20,32.84"/><path class="cls-7" d="M2208.86,466.84c7.15,20.31,16.95,40.59,29.66,51.22"/><path class="cls-7" d="M2182.42,482.13c7.49,24.35,19.26,52,36.3,64.81"/><path class="cls-7" d="M2158.59,501.5c8.06,26.36,22,60.37,43.06,74.75"/><path class="cls-7" d="M2134.44,520.89c8.26,27.4,24.68,69.83,50.46,85.88"/><path class="cls-7" d="M2111.45,544.56c8.62,27.23,27.71,76.24,57.48,93.18"/><path class="cls-7" d="M2088.91,569.92c9.27,26.64,32,82.15,65.59,99.69"/><path class="cls-7" d="M2070.38,607c11.65,28.91,35.44,77.82,68.15,93.55"/><path class="cls-7" d="M2060.87,660.15c15,28.51,37.41,62,64.32,74"/><path class="cls-7" d="M2063.39,722.27c14.54,19.21,31.74,36.46,50.25,44.07"/><path class="cls-7" d="M2298.61,473.94a228.45,228.45,0,0,0-41.25,11.75"/><path class="cls-7" d="M2306,502.36c-22,.41-47.45,3.73-69.93,13.91"/><path class="cls-7" d="M2313.38,536.86c-27-4.4-64.62-6-96,9.8"/><path class="cls-7" d="M2319.64,576.48c-26.65-9.82-77.68-23.08-118.76-.68"/><path class="cls-7" d="M2326.39,622.8s-81.52-52.06-142.26-16.48"/><path class="cls-7" d="M2315,661.47s-83.61-62.91-146.68-23.57"/><path class="cls-7" d="M2303.64,700.13s-84.95-73.3-150.35-30.2"/><path class="cls-7" d="M2275.56,724.27c-28.06-22.09-86.45-58.14-135.8-24"/><path class="cls-7" d="M2252.44,752c-31.09-23.72-82.46-50.92-127.41-18.49"/><path class="cls-7" d="M2222,772.68c-30.69-21-71.77-36.13-109.56-7.78"/></g><polygon class="cls-6" points="2114.4 1332.44 1943.47 1332.44 1915 1156.16 2142.89 1156.16 2114.4 1332.44"/><polygon class="cls-9" points="2031.54 1332.44 1964.13 1332.44 1931.39 1156.16 2015.81 1156.16 2031.54 1332.44"/><line class="cls-10" x1="1928.67" y1="1193.55" x2="2099.61" y2="1193.55"/><path class="cls-11" d="M741.34,784.53S725,650,621.08,650c-110.09,0-177.37-4.71-236.44,4.08-51,7.57-120.26,53-101.91,179.36,26.48,182.45,106,497.34,106,497.34H855.48L755.6,857.91Z"/><path class="cls-9" d="M753.45,784.53S738.88,650,646,650c-98.39,0-158.52-4.71-211.32,4.08-45.6,7.57-107.49,53-91.1,179.36,23.67,182.45,94.74,497.34,94.74,497.34H855.48L766.21,857.91Z"/><path class="cls-12" d="M1228.56,543.56l-12-70.29-49.7-20.09s-.5,16.07,11.55,26.11l12,10,12,42.18Z"/><path class="cls-13" d="M853,569.67s-84.34,4-182.75,54.22S592,678.1,569.86,716.26s-66.27,245-66.27,245l176.72,14.05L610,1278.57l492,24.1,8-299.23S1208.48,893,1232.58,899s20.08-299.22-188.77-307.26S853,569.67,853,569.67Z"/><polygon class="cls-14" points="1239.1 594.77 1169.58 670.26 1068.3 488 1157.25 438.57 1239.1 594.77"/><path class="cls-15" d="M1129.16,959.26s103.42,298.22,244,352.45-80.32-440.81-124.5-464.91S1129.16,959.26,1129.16,959.26Z"/><path class="cls-16" d="M681.82,963.78s-23.6,172.21-55.73,254.54-41,120.92-82.84,84.35c-36.15-31.63-57.74-116.48-57.74-146.6s30.63-195.3,30.63-195.3Z"/><path class="cls-16" d="M606,1148s423.74,108.44,465.91,102.42,136.56-42.18,136.56-42.18,72.3,62.25,84.35,74.31-24.1,36.14-52.22,42.16-630.58,0-630.58,0-116.48,0-68.28-94.38S606,1148,606,1148Z"/><path class="cls-14" d="M923.31,401s2-72.3,8-102.42,34.14-44.18,76.32-58.24,36.15-10,26.1-18.07,26.11-16.07,70.29,2,114.47,64.27,64.27,138.57S929.33,479.29,923.31,401Z"/><path class="cls-16" d="M833.94,570.66s33.14-1,55.23-27.1,38.16-58.25,32.13-80.34-18.06-96.39,10-80.32S951.43,397,957.45,411s8,4,14.06-12.05,26.11-44.18,42.17-48.2,16.07-58.23,6-70.28,44.18,12,82.33,18.07,54.23,4,70.29,38.16,14.06,70.29,4,106.44-54.22,114.47-60.25,132.53-2,22.09-34.14,22.09-18.07,2-16.07,26.12,10,112.46-68.27,116.47S850,715.25,833.94,570.66Z"/><path class="cls-16" d="M1110.08,567.65c0,20.08,192.19,643.69,257.05,738,33.14,48.2,83.34-52.22,87.36-120.49s-217.89-495-217.89-495l26.1-88.36s16.07-2-20.08-50.2-46.19-48.2-46.19-48.2l-30.12,14.05-18.08,32.14s22.5,52.1,36.15,48.19c14.06-4-6-18.07,10-22.09s28.12,6,28.12,6L1184.38,650s-18.07,16.07-32.13-10S1110.08,551.59,1110.08,567.65Z"/><path class="cls-15" d="M1184.38,597.77c14.06-4-6-18.07,10-22.09s28.12,6,28.12,6L1184.38,650s-18.07,16.07-32.13-10-35.14-82.33-35.14-66.27c0,8.54,27.8,120.23,73.24,259.72.41-42.48-1.35-96.17-8-117.14-12-38.16,6-30.12,20.08-42.17s46.2-88.36,46.2-88.36l-30.13-26.11a128.34,128.34,0,0,1-28.12-4c-16.05-4-24.09-38.16-24.09-38.16l-18.08,32.14S1170.73,601.68,1184.38,597.77Z"/><path class="cls-17" d="M1953.26,886.63H1528.58c-10.49,0-22.07,8.49-25.89,19l-143.35,393.84H1822l143.35-393.84C1969.14,895.12,1963.74,886.63,1953.26,886.63Z"/><path class="cls-13" d="M990.59,1297.12v11.66a18.66,18.66,0,0,0,18.65,18.66H1806.9a18.67,18.67,0,0,0,18.66-18.66v-11.66Z"/><path class="cls-17" d="M1359.09,1308.78v-11.66H990.59v11.66a18.66,18.66,0,0,0,18.65,18.66h331.2A18.66,18.66,0,0,0,1359.09,1308.78Z"/><path class="cls-15" d="M943.39,491.34s20.09,52.22,36.15,68.28,80.33,32.13,102.42,38.15-6-6-58.24,10.05S903.23,658,903.23,633.92s1-68.27,9-84.34S943.39,491.34,943.39,491.34Z"/><polyline class="cls-3" points="1766.97 399.84 1796.54 297.72 1826.11 195.6 1855.68 297.72 1885.25 399.84"/><ellipse class="cls-3" cx="1826.11" cy="172.42" rx="26.3" ry="26.3"/><line class="cls-3" x1="1826.11" y1="143.03" x2="1826.11" y2="102.81"/><path class="cls-3" d="M1764.68,293.25a144.23,144.23,0,0,0,122.86,0"/><path class="cls-6" d="M1727.82,277.63V231.37L1686.53,228a125.48,125.48,0,0,0-16.3-42l27.42-32.44-32.73-32.71-31.5,26.64c-12.33-8.39-26.24-13.61-41.17-17.2l-3.54-41.38h-46.26L1539,129a124.43,124.43,0,0,0-42,15.72L1464.58,117l-32.71,32.58L1458.51,181a124.28,124.28,0,0,0-17.79,41.14l-42,3.51v46.24l40.69,3.43a124.82,124.82,0,0,0,16,42l-27.56,32.46,32.65,32.7L1492,355.8c12.33,8.38,26.22,15.37,41.16,19l3.51,43.14h46.26l3.42-41.87a125.8,125.8,0,0,0,42-16.6l32.46,27.27,32.7-32.8-26.64-31.53a125.89,125.89,0,0,0,18.39-41.2Zm-165.13,25.28a51.3,51.3,0,1,1,51.3-51.3A51.3,51.3,0,0,1,1562.69,302.91Z"/><path class="cls-3" d="M1562.69,169.22a82.39,82.39,0,0,1,82.39,82.39"/><path class="cls-3" d="M1548.39,390.07a150,150,0,1,1-150-150A150,150,0,0,1,1548.39,390.07Z"/><path class="cls-3" d="M1485.12,390.07c0,82.83-38.83,150-86.72,150s-86.76-67.15-86.76-150,38.86-150,86.76-150S1485.12,307.25,1485.12,390.07Z"/><path class="cls-3" d="M1398.4,540.05a150,150,0,1,0,0-299.94Z"/><path class="cls-3" d="M1248.43,390.07a149.7,149.7,0,0,0,9.75,52.86h280.44a147.91,147.91,0,0,0,0-105.73H1258.19A149.67,149.67,0,0,0,1248.43,390.07Z"/></g></g></svg>