<svg xmlns="http://www.w3.org/2000/svg" viewBox="0 0 2164.3 1094.34"><defs><style>.cls-1{fill:#eaf4fe;}.cls-2{fill:#fff;}.cls-10,.cls-11,.cls-13,.cls-14,.cls-3{fill:none;}.cls-3{stroke:#69aeeb;}.cls-10,.cls-3{stroke-width:8.55px;}.cls-4{fill:#ec9568;}.cls-5{fill:#212957;}.cls-6{fill:#fec12f;}.cls-7{fill:#f7b68b;}.cls-8{fill:#ffab01;}.cls-9{fill:#0561fc;}.cls-10,.cls-11{stroke:#0450cf;}.cls-10,.cls-11,.cls-13,.cls-14{stroke-miterlimit:10;}.cls-11{stroke-width:17.09px;}.cls-12{fill:#0450cf;}.cls-13{stroke:#212957;}.cls-13,.cls-14{stroke-width:4.27px;}.cls-14{stroke:#fff;}.cls-15{fill:#61aff6;}.cls-16{fill:#fd2227;}</style></defs><title>アセット 3</title><g id="レイヤー_2" data-name="レイヤー 2"><g id="Layer_2" data-name="Layer 2"><path class="cls-1" d="M1904.23,82.36c-556.06-249.42-708.9,140.74-947.46,209.33C778.39,343,464,375,225.37,518.39,35.23,632.62-28.28,886.52,11.18,1094.34H2026.26C2041.91,693,2396.28,303.07,1904.23,82.36Z"/><rect class="cls-2" x="1255.35" y="341.7" width="340.37" height="240.28"/><path class="cls-3" d="M1402,327.25h-124V557.78h124a24.27,24.27,0,0,1,24.27,24.27V351.51A24.27,24.27,0,0,0,1402,327.25Z"/><path class="cls-3" d="M1451.15,327.25h124V557.78h-124a24.27,24.27,0,0,0-24.27,24.27V351.51A24.27,24.27,0,0,1,1451.15,327.25Z"/><line class="cls-3" x1="1302.59" y1="363.17" x2="1360.33" y2="363.17"/><line class="cls-3" x1="1302.59" y1="394.6" x2="1399.83" y2="394.6"/><line class="cls-3" x1="1302.59" y1="425.53" x2="1399.83" y2="425.53"/><line class="cls-3" x1="1302.59" y1="456.47" x2="1399.83" y2="456.47"/><line class="cls-3" x1="1302.59" y1="487.4" x2="1399.83" y2="487.4"/><line class="cls-3" x1="1302.59" y1="518.33" x2="1399.83" y2="518.33"/><line class="cls-3" x1="1449.6" y1="394.6" x2="1546.84" y2="394.6"/><line class="cls-3" x1="1449.6" y1="425.53" x2="1546.84" y2="425.53"/><line class="cls-3" x1="1449.6" y1="456.47" x2="1546.84" y2="456.47"/><line class="cls-3" x1="1449.6" y1="487.4" x2="1546.84" y2="487.4"/><line class="cls-3" x1="1449.6" y1="518.33" x2="1546.84" y2="518.33"/><path class="cls-4" d="M931.57,843.88s64.58,230.65,129.16,239.88-27.68-341.36-36.9-375.19S931.57,843.88,931.57,843.88Z"/><path class="cls-5" d="M1103.79,185.77s43-76.88,24.6-116.86-80-92.26-138.39-49.2S900.82,47.39,873.14,32s-66.8-36.46-153.77,3.08c-101.48,46.12-58.43,209.12-9.22,249.09s-40,49.21-144.54,43.06S282.68,361.07,264.23,474.85c-8.5,52.41,0,326,286,252.18s445.92,150.68,627.36-135.32C1239.61,494,1030,262.66,1103.79,185.77Z"/><path class="cls-6" d="M820.86,465.63s67.66-15.38,132.23,40S1055.6,717.8,1055.6,717.8L924.39,898.22,790.1,724S704,450.25,820.86,465.63Z"/><path class="cls-7" d="M1005.37,308.79s24.61,58.43,21.53,76.88-27.68,73.81-27.68,73.81l119.94,461.29s6.15,123-27.68,153.76-36.9,18.45-64.58-6.15-52.28-369-61.5-489-21.53-166.07-21.53-166.07,30.75-18.45,43-24.6S1002.3,318,1005.37,308.79Z"/><path class="cls-7" d="M965.4,302.64c-9.23,6.15-92.26,86.1-89.19,178.36s9.23,92.26,6.15,123,9.23,126.09-61.5,178.37C800.92,797.12,771.65,628.62,744,542.51,723.25,478,682.47,477.93,771.65,398S876.21,241.13,882.36,201.15,965.4,302.64,965.4,302.64Z"/><path class="cls-8" d="M691.7,456.4S616.45,386.85,498,683.11c-24.6,61.51-156.84,411.23-156.84,411.23h510.5s46.13-199,70.73-266.69-43.05-339.9-43.05-339.9l-6.15,178.58S756.28,363.11,691.7,456.4Z"/><path class="cls-7" d="M611.74,696.27l113.78,372.11s15.38,36.9,104.56,9.23C935,1045,1263.7,970,1263.7,970s15.37,15.38,36.91,43.06,70.72,4.61,70.72,4.61l30.76,23.06s28.38,16.92,41.51,16.92c9.23,0-103-96.87-103-96.87l-112.25-35.37L851.61,960.75,753.2,625.54Z"/><path class="cls-9" d="M1590.64,926.83a12.31,12.31,0,0,1-15,8.78L1525,922.37a12.31,12.31,0,0,1-8.78-15l192.4-734.82a12.3,12.3,0,0,1,15-8.79L1774.25,177a12.29,12.29,0,0,1,8.78,15Z"/><path class="cls-10" d="M1774.49,183.45l-192.4,734.83a12.3,12.3,0,0,1-15,8.78l-50.57-13.24"/><path class="cls-11" d="M1679.8,558s168.26,425.93,168.26,467.18c0,54.2-43.11,60.6-43.11,60.6H1611.42"/><path class="cls-12" d="M1555.87,1094.34V1084.1c0-6.8-.91-6.86-7.71-6.86H1243.71c-6.79,0-21.18.06-21.18,6.86v10.24Z"/><path class="cls-4" d="M882.36,201.15c-4.3,28-13.15,74-48.56,126.45,1.42,69.84,17.55,133.75,43.69,184-.45-8.92-.89-19.05-1.28-30.64-3.07-92.26,80-172.21,89.19-178.36C965.4,302.64,888.52,161.17,882.36,201.15Z"/><path class="cls-4" d="M1019.29,346.34c-6.24-19.31-13.92-37.55-13.92-37.55-3.07,9.22-6.15,73.8-18.45,79.95s-43,24.6-43,24.6,4.86,18.23,10.75,61.52C987.58,449.16,1011.87,402.27,1019.29,346.34Z"/><path class="cls-7" d="M1008.45,84.29s36.9,83,24.6,150.69-21.52,141.46-55.35,169.14-64-19.19-107.64-70.73c-33.83-40-65.38-108.94-46.13-119.94,43.06-24.6,33.83,27.68,40,33.83,15.38,15.38,18.45-61.51,12.3-70.73C844.48,129,971.55,201.15,1008.45,84.29Z"/><path class="cls-13" d="M995.23,255.88c-5.84,22.17-22.56,37-37.34,33.08s-22-25-16.18-47.2,22.57-37,37.35-33.09S1001.08,233.7,995.23,255.88Z"/><path class="cls-13" d="M1062.89,255.88c-5.85,22.17-22.57,37-37.35,33.08s-22-25-16.18-47.2,22.57-37,37.36-33.09S1068.74,233.7,1062.89,255.88Z"/><path class="cls-14" d="M1046.72,208.67c14.78,3.9,22,25,16.17,47.21s-22.57,37-37.35,33.08"/><line class="cls-13" x1="950.02" y1="241.13" x2="863.91" y2="210.38"/><path class="cls-4" d="M899.88,1032.37c-82.33,15.29-140.39,24.75-180.77,15.05l6.41,21s15.38,36.9,104.56,9.23c98-30.41,391-97.87,429.41-106.67C1241.76,961.86,1049.46,1004.6,899.88,1032.37Z"/><rect class="cls-15" x="1180.67" y="912.96" width="15.38" height="117.1" transform="translate(-195.94 308.38) rotate(-13.67)"/><rect class="cls-16" x="1149.91" y="917.19" width="15.38" height="117.87" transform="translate(-117.44 159.34) rotate(-7.49)"/><path class="cls-4" d="M641.67,794.14c44.66-17.38,107.22-38,150.15-37.07l-27.72-94.4L616.84,713Z"/><path class="cls-6" d="M485.65,816.21,805.48,696.27s-3.07-196.81-43.05-270.62C742,388,690.65,390.91,608.66,487.15,537.93,570.19,485.65,816.21,485.65,816.21Z"/></g></g></svg>