<svg xmlns="http://www.w3.org/2000/svg" viewBox="0 0 236.18 242.52"><defs><style>.cls-1{fill:#ebf0f6;}.cls-2{fill:#1c3e58;}.cls-3{fill:#fabf62;}</style></defs><title>アセット 6</title><g id="レイヤー_2" data-name="レイヤー 2"><g id="Illustration"><polygon class="cls-1" points="141.21 197.32 116.78 210.69 108.15 215.38 75.92 233.29 11.52 194.55 11.55 192.06 6.48 194.83 75.43 236.77 145.93 198.16 141.25 195.31 141.21 197.32"/><path class="cls-2" d="M75.35,242.52a7.83,7.83,0,0,1-4.11-1.15l-69-42a4.64,4.64,0,0,1,.18-8L9,187.75l.48.88-6.58,3.6a3.65,3.65,0,0,0-.14,6.31l69,42a6.91,6.91,0,0,0,6.9.16l70.86-38.78a3.65,3.65,0,0,0,.14-6.31l-6.23-3.79.52-.86,6.23,3.8a4.64,4.64,0,0,1-.18,8L79.14,241.55A7.86,7.86,0,0,1,75.35,242.52Z"/><path class="cls-2" d="M125.47,190.12a4.32,4.32,0,0,1-2.06-.52c-.36-.2-.77-.67-1.16-3.85l1-.12c.33,2.68.65,3.09.69,3.12a3.12,3.12,0,0,0,2.71.11.76.76,0,0,0,.46-.63c.07-1.15.17-2.4.27-3.63l1,.08c-.1,1.22-.2,2.47-.27,3.61a1.75,1.75,0,0,1-1,1.44A3.44,3.44,0,0,1,125.47,190.12Z"/><path class="cls-2" d="M104,208.85a3.87,3.87,0,0,1-2.4-.87c-.21-.18-.61-.51-1.21-4.42l1-.15c.49,3.22.81,3.74.87,3.81a2.83,2.83,0,0,0,2,.61,1.66,1.66,0,0,0,1.15-.6c.06-.08.35-.62.7-4l1,.11c-.35,3.4-.66,4.19-.89,4.49a2.65,2.65,0,0,1-1.84,1A2.69,2.69,0,0,1,104,208.85Z"/><path class="cls-3" d="M103.33,204.14c-2.21,0-3.77-.42-4.66-1.26A2,2,0,0,1,98,201.5l-5-37.56a4.46,4.46,0,0,0-2.3-4C74,150.77,64.75,141.53,63.9,133.17c-.19-1.84-.45-3.75-.76-5.65l1-.16c.32,1.92.58,3.84.77,5.71.82,8,9.89,17,26.24,26a5.4,5.4,0,0,1,2.81,4.85l5,37.55c0,.08.19,2,5.47,1.68,3.17-.19,3.72-1.63,3.74-1.69,0-.27,5-35.95,1.82-46.71a18.53,18.53,0,0,0-1.72-3.42l.85-.52a19.81,19.81,0,0,1,1.83,3.65c3.23,11-1.6,45.75-1.81,47.23,0,.17-.73,2.22-4.66,2.46Z"/><path class="cls-3" d="M123.93,186.19a4.57,4.57,0,0,1-4.32-2.5.83.83,0,0,1,0-.15l-2.46-29.66,1-.08,2.45,29.57a3.69,3.69,0,0,0,3.91,1.79c2.16-.2,5.22-2,5.54-3.33,1.48-5.86,2.22-35.82,2.25-37.09l1,0c0,1.28-.77,31.35-2.28,37.32-.47,1.89-4,3.85-6.42,4.08Z"/><rect class="cls-2" x="122.17" y="123.14" width="1" height="10.66" transform="translate(-50.13 169.64) rotate(-59.72)"/><rect class="cls-2" x="102.44" y="130.1" width="9.1" height="1" transform="translate(-50.98 71.02) rotate(-30.01)"/><path class="cls-2" d="M115.3,155.59l-25-15.06a.5.5,0,0,1,0-.86l5.59-3.23.5.86-4.86,2.81,24.28,14.63Z"/><path class="cls-2" d="M115.25,131.92a1.47,1.47,0,0,1-1.11-.55,7,7,0,0,1-.6-1.89l-.09-.37a1,1,0,0,1-.82.31,12.44,12.44,0,0,1-3.9-2.36,23.7,23.7,0,0,1-3-4.5l.89-.46a22.68,22.68,0,0,0,2.76,4.25,13.16,13.16,0,0,0,3.21,2,9.69,9.69,0,0,0-1.14-1.65.49.49,0,0,1,0-.64.49.49,0,0,1,.63-.12,6.09,6.09,0,0,1,1.82,1.46,7.24,7.24,0,0,1,.57,1.82,6.63,6.63,0,0,0,.48,1.58,13.63,13.63,0,0,0-.25-4,.5.5,0,0,1,.37-.58.51.51,0,0,1,.6.34s.61,2,.85,2.57a6,6,0,0,0,1,1.54l.08.05v-.17h1v.59a.51.51,0,0,1-.13.34,1.12,1.12,0,0,1-1.56,0,4.88,4.88,0,0,1-.92-1.18,3,3,0,0,1-.3,1.3.64.64,0,0,1-.5.26Z"/><path class="cls-2" d="M118.16,131a.93.93,0,0,1-.79-.36,10.14,10.14,0,0,1-.7-3.31l1-.08a11.71,11.71,0,0,0,.5,2.75,8.62,8.62,0,0,0-.6-3.86,20.87,20.87,0,0,0-3.25-4.56,13.19,13.19,0,0,0-4.72-2.58l.23-1a14.17,14.17,0,0,1,5.13,2.79,20.87,20.87,0,0,1,3.54,5c.31.81,1.08,3.41.56,4.72a.9.9,0,0,1-.77.5Z"/><path class="cls-2" d="M115.55,155.67a.51.51,0,0,1-.34-.14.5.5,0,0,1-.11-.58l12.6-26a.43.43,0,0,1,.2-.22L159,111.12a.5.5,0,0,1,.6.08.51.51,0,0,1,.08.61l-16.23,27.73a.39.39,0,0,1-.18.18L115.8,155.6A.52.52,0,0,1,115.55,155.67Zm13-26.12-11.81,24.37,25.94-15,15.22-26Z"/><path class="cls-2" d="M105.38,123.76a.48.48,0,0,1-.36-.15l-7.56-7.88.72-.69,7.19,7.49,4-4.48-.91-1.14a.54.54,0,0,1-.07-.13l-3.82-9.73c-.13-.27-3.49-7.5-3.81-12.19L100.12,82l1,0,.69,12.86c.31,4.49,3.69,11.79,3.73,11.86l3.8,9.69,1.13,1.4a.51.51,0,0,1,0,.65l-4.7,5.2a.5.5,0,0,1-.36.16Z"/><path class="cls-2" d="M60,78.17l-.92-.39a14.31,14.31,0,0,1,1.07-2.15c3.53-5.11,12.32-10.16,16.07-12.32a.5.5,0,0,1,.75.45l0,1a.49.49,0,0,1-.2.37,4.31,4.31,0,0,0-1,5.81c1.62,2.56,7.22,2.75,9.68,1.41a4.75,4.75,0,0,0,2.48-3.57,4.63,4.63,0,0,0-2-4l.63-.77a5.47,5.47,0,0,1,2.34,4.85,5.74,5.74,0,0,1-3,4.35c-2.78,1.51-9.07,1.31-11-1.76a5.15,5.15,0,0,1,.72-6.66C71.53,67.19,64.08,71.71,61,76.2A13.36,13.36,0,0,0,60,78.17Z"/><path class="cls-2" d="M68.91,129.45c-3.21,0-6.64-2-7.39-3.39-1.64-3-3.07-9.13-4-16.93l1-.11c.86,7.68,2.25,13.71,3.82,16.56.56,1,3.62,2.87,6.52,2.87,1.27,0,2.52,0,3.71-.1l0,1c-1.21.06-2.47.09-3.76.1Z"/><path class="cls-2" d="M86.64,126.54l-.38-.93c13.61-5.55,13.06-17.83,12.88-21.87,0-.38,0-.7,0-.93,0-2.55.21-6,.44-9.56.8-12.51,1.89-29.63-4.76-30.15L93.47,63c-1.42-.11-2.48-.2-3.35-.2v-1c.93,0,2,.09,3.45.21l1.31.1c7.63.6,6.55,17.57,5.68,31.21-.23,3.59-.44,7-.44,9.5,0,.22,0,.52,0,.88C100.32,107.9,100.9,120.72,86.64,126.54Z"/><path class="cls-2" d="M85.27,65.12A8.21,8.21,0,0,1,80,63.07a10.33,10.33,0,0,1-3.53-7.25l1-.07a9.37,9.37,0,0,0,3.19,6.55,7,7,0,0,0,5.09,1.79c4.41-.4,5.66-5.24,6.57-10.17a74.51,74.51,0,0,0,.43-8.41h1a72.81,72.81,0,0,1-.45,8.59c-.93,5.07-2.35,10.52-7.45,11Q85.57,65.12,85.27,65.12Z"/><path class="cls-2" d="M77.74,54.78A3.81,3.81,0,0,1,77,54.7a3,3,0,0,1-2.43-2.77,2.12,2.12,0,0,1,.36-1.87,2,2,0,0,1,1.69-.47,3,3,0,0,1,2.8,2l-.94.34a2,2,0,0,0-2-1.38,1.1,1.1,0,0,0-.86.17c-.16.16-.19.52-.11,1a2,2,0,0,0,1.66,2,1.39,1.39,0,0,0,1.36-.25l.79.61A2,2,0,0,1,77.74,54.78Z"/><path class="cls-2" d="M100.1,139.81a1.05,1.05,0,0,1-.61-.19c-.17-.13-.4-.29-.54-.38a7.28,7.28,0,0,1-1-.07c-.28-.07-.5-.31-1.13-1.08a10.43,10.43,0,0,0-1.13-1.23c-.69-.47-2.32-.58-3.75-.68a8.76,8.76,0,0,1-3.25-.55c-.61-.35-2.85-1.56-2.85-1.56l.47-.88s2.27,1.22,2.88,1.58a9.38,9.38,0,0,0,2.81.42c1.64.11,3.34.22,4.25.85a8.42,8.42,0,0,1,1.34,1.41c.22.27.51.62.65.75l.86.05a.47.47,0,0,1,.26.08s.41.28.69.49a.46.46,0,0,0,.22-.08,6.21,6.21,0,0,0-1.11-2.24.51.51,0,0,1,0-.6.49.49,0,0,1,.58-.14,3.45,3.45,0,0,1,1.18,1l.35.44a6.1,6.1,0,0,0,1.11,1.22.54.54,0,0,0,.16.06,24,24,0,0,0-2-4.34.5.5,0,0,1,.19-.67.5.5,0,0,1,.67.16,17.22,17.22,0,0,0,2.23,3,.61.61,0,0,0,.39-.09c.12-.47-.76-1.93-1.13-2.55l-.23-.38a7.94,7.94,0,0,0-1.92-2.49c-1.07-.59-3.25-.63-5.16-.66a18.21,18.21,0,0,1-3.9-.3,18.85,18.85,0,0,1-3.17-1.27l.45-.89a18.52,18.52,0,0,0,3,1.19,17.64,17.64,0,0,0,3.65.27c2.14,0,4.34.07,5.63.79a8.58,8.58,0,0,1,2.31,2.86l.21.36c.79,1.3,1.47,2.54,1.2,3.43a1.37,1.37,0,0,1-1.63.68,4.43,4.43,0,0,1,.22,1,.87.87,0,0,1-.48.76,1.21,1.21,0,0,1-1.24-.1,4,4,0,0,1-.63-.55,1.08,1.08,0,0,1-.07.48,1.06,1.06,0,0,1-.72.58A1.31,1.31,0,0,1,100.1,139.81Z"/><path class="cls-2" d="M85.59,135.44a.54.54,0,0,1-.21-.05c-.08,0-8.68-3.95-10.91-5.08-19.63-9.93-20.08-34.58-18.59-43.24,1.35-7.87,3.88-11.8,7.47-11.65a5.75,5.75,0,0,1,4.22,1.88c2.29,2.51,2.42,6.79,2.3,9.13-.35,6.43,1.25,19.32,1.82,21.8s3.09,8.14,13.17,16.38c1.33,1.09,4.4,3,4.43,3a.5.5,0,0,1,.19.65L86,135.16A.51.51,0,0,1,85.59,135.44Zm-22.42-59c-3,0-5.07,3.64-6.3,10.82-2,11.76,1.1,33.61,18.06,42.19,1.92,1,8.64,4.05,10.43,4.86l3-6.07a48.82,48.82,0,0,1-4.15-2.82C73.92,117,71.34,111.15,70.72,108.45c-.5-2.15-2.23-15.12-1.85-22.08.2-3.7-.54-6.76-2-8.4a4.83,4.83,0,0,0-3.52-1.55Z"/><path class="cls-2" d="M77,170a.48.48,0,0,1-.26-.07L35.19,144.73a.49.49,0,0,1-.24-.43l.19-26.24a.5.5,0,0,1,.26-.44L57.08,105.9l.48.87L36.14,118.36,36,144,77,169l15.33-8.39.48.88L77.24,170A.5.5,0,0,1,77,170Z"/><path class="cls-2" d="M75.55,234a.5.5,0,0,1-.26-.08L11.26,195a.52.52,0,0,1-.24-.44l1.46-63.95a.49.49,0,0,1,.24-.42l7-4.28-3.68-4.5a.47.47,0,0,1-.08-.49.49.49,0,0,1,.39-.32l19.17-3,.16,1L17.4,121.43l3.5,4.28a.5.5,0,0,1-.13.74l-7.3,4.43L12,194.27l63,38.35,1.43-63.09,1,0-1.45,63.95a.5.5,0,0,1-.5.49Z"/><path class="cls-2" d="M35.45,144.8a.48.48,0,0,1-.26-.07L12.72,131l.52-.85,20,12.18-13.08-16,.78-.63L35.83,144a.5.5,0,0,1,0,.65A.48.48,0,0,1,35.45,144.8Z"/><path class="cls-2" d="M75.79,233.94l-.49-.88,65.41-36L142,139.56l1,0-1.32,57.74a.54.54,0,0,1-.26.43Z"/><rect class="cls-2" x="119.01" y="104.84" width="1" height="29.19" transform="matrix(0.52, -0.85, 0.85, 0.52, -44.64, 159.47)"/><path class="cls-2" d="M76.92,54.15a2.56,2.56,0,0,1-1.86-2.31c-.21-1.27.26-1.88,1.52-1.76l.34.06c-.06-2.71-.07-5.19-.07-5.19.87-3.85,17.27-3.21,16.42.56,0,0,0,2.26-.1,4.57a12.85,12.85,0,0,0,.91-7.84c-.69-2.74-2.11-6.51-5.55-7.16-8.46-1.6-8.27-.08-10.92,1.2-1.23.59-2.53.2-4,3.28-2.71,5.52-.93,10.48-.81,12,.35,4.45,1.95,3.89,3.87,6.52C76.67,57.1,76.87,54.74,76.92,54.15Z"/><path class="cls-2" d="M92.15,38.78c-4.13-3.79-11-3.25-14-1.73-3.53,1.79-3.41,3.34-4,4.79-1.76,4.13.93,8.77,1,8.82.2-.45.67-.65,1.44-.58a2.9,2.9,0,0,1,1.61.6,10.28,10.28,0,0,1,.57-2.6,4.09,4.09,0,0,1,1.09-1.19c1.66-1.18,1.76-.41,5.11,1.27A7.23,7.23,0,0,0,88.2,49a2.61,2.61,0,0,0,1.42-.64c.62-.31,1.69.7,2.76.64C95.74,48.83,95.61,42,92.15,38.78Z"/><rect class="cls-2" x="72.01" y="58.48" width="9.56" height="1" transform="translate(12.83 131.66) rotate(-86.18)"/><path class="cls-2" d="M115,213.58c-2.49-2-3.78-1.75-6.6-6.3a8.45,8.45,0,0,0-2-2.25,7.56,7.56,0,0,1-.59,2.5c-.79,1.05-2.63,1.11-3.92.06a6.86,6.86,0,0,1-.81-2.75,4.3,4.3,0,0,0-1,1.2c-.36.78.53,5.6.53,5.6a.83.83,0,0,0,.48.73l2.71,1.39v-1.24a16.54,16.54,0,0,0,5.48,3.84c2.72,1.27,6-1.13,6-1.13S115.69,214.1,115,213.58Z"/><path class="cls-2" d="M136.22,195.92c-2.5-2-3.79-1.75-6.61-6.3a8.49,8.49,0,0,0-2-2.24l-.06.88c-.09,1.4-2.46,1.73-3.95.9-.31-.17-.56-1.13-.76-2.41a4.51,4.51,0,0,0-1.54,1.63c-.36.78.53,5.59.53,5.59a.83.83,0,0,0,.48.74l2.71,1.39v-1.24a16.54,16.54,0,0,0,5.48,3.84c2.72,1.27,6-1.13,6-1.13S136.87,196.44,136.22,195.92Z"/><path class="cls-3" d="M218.69,209.09c-.07.51-.12.94-.13,1.25-.09,1.91-2.57,2.35-4.13,1.23a6,6,0,0,1-.49-2.3,28.08,28.08,0,0,0-.75,3.63c-.26,1.62-1.65,4.68-1.53,6.32.1,1.26.29,4.16,1.14,4.83a6.24,6.24,0,0,0,3-.12c1.07-.5,2.35-2.74,2.78-4.05.37-1.11-.17-3.61-.13-4.81C218.48,213.64,219.14,210.45,218.69,209.09Z"/><path class="cls-3" d="M206.86,201.25a5.5,5.5,0,0,1-.64,2.11,2.22,2.22,0,0,1-3.92-1.05q-.06-.5-.15-1.08a9.89,9.89,0,0,0-1.94,3c-1.9,3.95-3,5.21-5.93,7.06a1.16,1.16,0,0,0-.36,1.38,6,6,0,0,0,1.81,1.53,3.2,3.2,0,0,0,3.56-.17,20.24,20.24,0,0,0,5.42-4.82v1.2l2.32-1.57a20.12,20.12,0,0,0,.59-4.57,11.83,11.83,0,0,0-.24-2.11A1.86,1.86,0,0,0,206.86,201.25Z"/><path class="cls-1" d="M219.54,203.56c-.38,2.31-.69,4.22-.85,5.53.45,1.36-.21,4.55-.27,6,0,1.2.5,3.7.13,4.81-.43,1.31-1.71,3.55-2.78,4.05a6.24,6.24,0,0,1-3,.12c-.85-.67-1-3.57-1.14-4.83-.12-1.64,1.27-4.7,1.53-6.32a28.08,28.08,0,0,1,.75-3.63c-.19-1.58-.39-3.9-.61-6.71q-2.88-.3-5.93-.32a11.55,11.55,0,0,1,.22,2,20.12,20.12,0,0,1-.59,4.57l-2.32,1.57v-1.2a20.24,20.24,0,0,1-5.42,4.82,3.2,3.2,0,0,1-3.56.17,6,6,0,0,1-1.81-1.53,1.16,1.16,0,0,1,.36-1.38c2.89-1.85,4-3.11,5.93-7.06a17.28,17.28,0,0,1,.91-1.7c-13.29,1.28-23.28,6.82-23.28,13.46,0,7.59,13.06,13.74,29.17,13.73s29.17-6.15,29.17-13.74C236.17,210.49,229.37,205.77,219.54,203.56Z"/><path class="cls-3" d="M207,23.47c-1.65-3.07.09-6.1-.92-9.71-.73-2.6-3-8.73-6.33-11C194.33-1,190.17-.12,188,.82c-6.85,2.88-8.36,6.27-8.68,12.3-.39,7.24,4.32,10.51,9.76,18.6a4.83,4.83,0,0,1,2.06-1.57,9.6,9.6,0,0,1-5-3.62,28.48,28.48,0,0,1-3.43-8.06c-.74-4.77,10.6-8.25,12.34-5.55,0,0,1,2.09,2,4.31a2.2,2.2,0,0,1,1-1c1-.55,1.92.17,2.16,1.4a2.72,2.72,0,0,1-1.16,3,1.15,1.15,0,0,1-.62.14c.05.16.1.31.13.45s0,.22.06.33l1.63,3.7c.43,1,.82,1.93,1.17,2.83a15.69,15.69,0,0,1,2.77.43c1.4.35,3.34.61,5.23,1.07A20.17,20.17,0,0,0,207,23.47Z"/><path class="cls-2" d="M191.16,73.59c0-.18-1.44-17.44-2.06-22.39l1-.13c.63,5,2.06,22.26,2.07,22.43Z"/><path class="cls-2" d="M204.5,204.69a2.78,2.78,0,0,1-.76-.1,2.61,2.61,0,0,1-1.94-2.22c-.46-3.88-2.19-12.51-4.2-22.5-1.85-9.22-3.95-19.67-5.28-27.67-.24-1.44-.48-3-.71-4.79l1-.13c.23,1.73.47,3.33.7,4.75,1.33,8,3.43,18.43,5.28,27.64,2,10,3.75,18.66,4.21,22.58a1.62,1.62,0,0,0,1.22,1.37,1.67,1.67,0,0,0,1.82-.57c1.71-2.18,1.84-30.42.2-41.39-.32-2.13-.6-5.44-.79-7.85l1-.08c.18,2.4.47,5.68.78,7.78,1.48,9.87,1.78,39.38-.4,42.16A2.71,2.71,0,0,1,204.5,204.69Z"/><path class="cls-2" d="M216.33,212.68a3.79,3.79,0,0,1-2.2-.71c-.53-.38-.74-2.06-1.57-12.82s-2.08-27-4.42-37.06c0-.23-.22-.93-.4-8l1,0c.15,5.78.29,7.44.37,7.82,2.36,10.15,3.62,26.44,4.45,37.21.45,5.83.87,11.34,1.22,12.14a2.65,2.65,0,0,0,2.51.27,1.31,1.31,0,0,0,.77-1.16c.05-1.07.41-3.31.91-6.41,1.42-8.75,3.79-23.39,2.3-31.69-.58-3.23-.49-9.26.29-19.56l1,.07c-.52,6.88-1,15.29-.3,19.32,1.52,8.46-.87,23.21-2.3,32-.48,3-.85,5.28-.9,6.3a2.29,2.29,0,0,1-1.34,2A3.24,3.24,0,0,1,216.33,212.68Z"/><path class="cls-2" d="M213.45,155.13c-9.38,0-22.07-4-24.27-11.57-.38-1.29-.38-5.47-.37-11.26,0-4.33,0-9.71-.17-15.08-.15-4.9-.4-9.45-.62-13.46-.45-8.16-.8-14.6-.07-18.71a97.81,97.81,0,0,1,5.5-17.67l.93.38a96.35,96.35,0,0,0-5.44,17.47c-.72,4-.37,10.38.07,18.47.23,4,.47,8.57.63,13.49.17,5.38.17,10.77.17,15.11,0,5.49,0,9.83.33,11,2.26,7.8,17.45,11.78,26.6,10.65,4.28-.53,6.78-2.1,6.87-4.31,0-.92.06-1.81.09-2.68a145.49,145.49,0,0,1,1.35-17.16c.36-2.73.82-6.08,1.31-9.57,1.26-9,2.68-19.22,2.69-21.78A58,58,0,0,0,225,77.63l.94-.36a59.16,59.16,0,0,1,4.15,21.17c0,2.63-1.44,12.87-2.7,21.92-.49,3.49-.95,6.83-1.31,9.56A145.39,145.39,0,0,0,224.7,147c0,.88-.06,1.77-.09,2.69-.11,2.79-2.86,4.66-7.75,5.26A28.19,28.19,0,0,1,213.45,155.13Z"/><path class="cls-2" d="M203.71,71c-5.68,0-9.27-1.87-10.11-3.3-.38-.62-.66-2.54-1.09-5.62a52.56,52.56,0,0,0-1-5.7,18.23,18.23,0,0,0-1.23-2.67,21.42,21.42,0,0,1-2.24-5.53,69.64,69.64,0,0,1-.55-13.1c.12-2.94.69-4.58,3.44-5.4l.29,1c-2.19.65-2.62,1.74-2.73,4.48A69.25,69.25,0,0,0,189,48a21.3,21.3,0,0,0,2.15,5.26,17.56,17.56,0,0,1,1.3,2.85,53.58,53.58,0,0,1,1,5.83,32.86,32.86,0,0,0,.95,5.25c1.2,2,9.29,5,21.34.3,2.36-.93,4-2.58,3.85-3a8.6,8.6,0,0,0-.7-1.78,16,16,0,0,1-.75-1.82,41.08,41.08,0,0,1-1.29-7.31l1-.11a40.12,40.12,0,0,0,1.24,7.12,13.36,13.36,0,0,0,.71,1.69,10,10,0,0,1,.77,2c.28,1.33-2.13,3.28-4.47,4.2A34.2,34.2,0,0,1,203.71,71Z"/><path class="cls-2" d="M213.68,31.8c-1.74-1.36-4.8-1.9-7.26-2.33-.91-.16-1.76-.31-2.46-.48l-2.72-.43a.49.49,0,0,1-.39-.3l-3-7.31.93-.38,2.88,7.05,2.49.39c.71.17,1.54.32,2.43.48,2.57.45,5.77,1,7.71,2.53Z"/><path class="cls-2" d="M201.64,89.59a1.16,1.16,0,0,1-1.11-.6c-.1-.24-.2-.48,1.84-3.93l.07-.09c.13-.14,3.24-3.42,4.64-4.16a25.74,25.74,0,0,1,5.09-1.31,26.73,26.73,0,0,0,3-.69l4.6-6.65.83.57s-4.09,5.89-4.65,6.71c-.23.35-.84.5-3.55,1a26,26,0,0,0-4.81,1.21,29.32,29.32,0,0,0-4.34,3.93c-.66,1.11-1.38,2.41-1.63,3a.83.83,0,0,0,.29,0A8,8,0,0,0,204,86.44l.09-.1,2.19-1.67a.52.52,0,0,1,.56,0,.48.48,0,0,1,.23.51.83.83,0,0,0,.38.8c.25.14.43.68.46.78s.11.15.4.29a.84.84,0,0,1,.46.52.62.62,0,0,0,.32.25l.13.06c.51.3,1.37.18,3-.4l1.08-.39c2.18-.77,4.23-1.49,5.35-2.61,2.43-2.43,7.35-8.84,7.4-8.91l.79.61c-.2.27-5,6.53-7.49,9-1.28,1.27-3.43,2-5.71,2.85l-1.08.38c-1.61.59-2.87.87-3.81.32a1.61,1.61,0,0,1-.75-.58,1.12,1.12,0,0,1-.11-.22A1.5,1.5,0,0,1,207,87c0-.05-.08-.2-.13-.3a1.64,1.64,0,0,1-.62-.76l-1.45,1.12c-.36.46-1.7,2.15-2.63,2.42A1.89,1.89,0,0,1,201.64,89.59Z"/><path class="cls-2" d="M227.16,76.43a11.58,11.58,0,0,1-3.83-1.14c-1.33-.62-3.58-1.82-3.68-3a9.44,9.44,0,0,1,.26-2c.43-2.43,1.24-7,.09-9.54-.53-1.19-1.19-2.75-1.92-4.45-1.19-2.77-2.53-5.91-3.64-8.3C211.88,42.5,208,32.94,211,30.94a2.84,2.84,0,0,1,2.66-.22c6.67,2.36,17.18,23.6,18,26.39,1.55,5.09.33,16.24-3.7,19.12A1.36,1.36,0,0,1,227.16,76.43ZM212.45,31.5a1.65,1.65,0,0,0-.92.27c-1.6,1.09-.07,7.45,3.82,15.83,1.12,2.41,2.46,5.55,3.65,8.33.72,1.69,1.39,3.25,1.91,4.43,1.28,2.87.47,7.41,0,10.13a14.06,14.06,0,0,0-.25,1.7c0,.14.36.69,1.81,1.52,2.13,1.23,4.52,1.9,4.94,1.7,3.58-2.56,4.72-13.4,3.32-18-1-3.29-11.53-23.66-17.41-25.74A2.53,2.53,0,0,0,212.45,31.5Z"/><path class="cls-2" d="M198.94,40.44a11.11,11.11,0,0,1-2.34-.23c-4.19-.84-5.48-4.87-5.88-7.19a2.94,2.94,0,0,1,1.34-3l.53.84a2,2,0,0,0-.89,2c.36,2.07,1.49,5.66,5.1,6.38a9.05,9.05,0,0,0,8.73-2.64c1.54-1.7,2.25-3.88,1.77-5.43a5.75,5.75,0,0,0-2-1.91l.56-.84c.2.14,2,1.36,2.34,2.46.58,1.87-.21,4.43-2,6.39A9.66,9.66,0,0,1,198.94,40.44Z"/><path class="cls-2" d="M193.29,31a10,10,0,0,1-7.59-4.21,29,29,0,0,1-3.51-8.28l1-.15a28.67,28.67,0,0,0,3.35,7.86A8.65,8.65,0,0,0,193.7,30a6.57,6.57,0,0,0,3-2.93,8,8,0,0,0,1.34-5.93l1-.25a9,9,0,0,1-1.46,6.71c-1.12,1.82-2.56,3.14-3.66,3.38A3.44,3.44,0,0,1,193.29,31Z"/><path class="cls-3" d="M196.78,18.92a2.44,2.44,0,0,1,1.16-2.68,1.27,1.27,0,0,1,1.66.3,11.13,11.13,0,0,0-2.23-8.07c-.8-1.12-2.64-2.56-6.23-2.57-3.17,0-6.58.28-9,5.1-2,4,.63,10.62.63,10.62l10-1.93.35-2.8a7.44,7.44,0,0,0,1,2.49c.48.38,2,0,2.78-.21A1.84,1.84,0,0,1,196.78,18.92Z"/><path class="cls-2" d="M198.37,21.27a1.7,1.7,0,0,1-1-.29l.54-.84a.69.69,0,0,0,.74,0,2.23,2.23,0,0,0,.91-2.45,1.53,1.53,0,0,0-.7-1.11.74.74,0,0,0-.73.06,1.82,1.82,0,0,0-.91,2.06v.15l-1,.07v-.11a2.88,2.88,0,0,1,1.43-3.05,1.77,1.77,0,0,1,1.64-.09,2.47,2.47,0,0,1,1.25,1.84,3.21,3.21,0,0,1-1.4,3.5A1.6,1.6,0,0,1,198.37,21.27Z"/><path class="cls-2" d="M220.44,67.06a20,20,0,0,0-.77-2.34l.93-.36a19.32,19.32,0,0,1,.82,2.53Z"/><path class="cls-2" d="M205.22,195.83a16.07,16.07,0,0,1-4.35-.7l.31-.95s4,1.25,6.24.28l.4.92A6.74,6.74,0,0,1,205.22,195.83Z"/><path class="cls-2" d="M217.72,201.23a8,8,0,0,1-5-1.81l.67-.74a6.85,6.85,0,0,0,6.5,1.18l.32.95A7.69,7.69,0,0,1,217.72,201.23Z"/></g></g></svg>