<?xml version="1.0" encoding="utf-8"?>
<!-- Generator: Adobe Illustrator 16.0.0, SVG Export Plug-In . SVG Version: 6.00 Build 0)  -->
<!DOCTYPE svg PUBLIC "-//W3C//DTD SVG 1.0//EN" "http://www.w3.org/TR/2001/REC-SVG-20010904/DTD/svg10.dtd">
<svg version="1.0" id="Layer_1" xmlns="http://www.w3.org/2000/svg" xmlns:xlink="http://www.w3.org/1999/xlink" x="0px" y="0px"
	 width="708.66px" height="708.66px" viewBox="0 0 708.66 708.66" enable-background="new 0 0 708.66 708.66" xml:space="preserve">
<g>
	<path fill="none" stroke="#373431" stroke-width="12" stroke-linecap="round" stroke-linejoin="round" stroke-miterlimit="10" d="
		M655.508,354.327c0,166.343-134.836,301.18-301.195,301.18C188,655.507,53.148,520.67,53.148,354.327S188,53.148,354.312,53.148
		C520.672,53.148,655.508,187.984,655.508,354.327z"/>
	<path fill="none" stroke="#373431" stroke-width="12" stroke-linecap="round" stroke-linejoin="round" stroke-miterlimit="10" d="
		M496.062,335.736c0-78.282-63.453-141.746-141.734-141.746s-141.734,63.464-141.734,141.746v24.512
		c0,72.166,12.094,141.452,33.914,206.283c-20.414,15.026-44.141,25.72-69.875,30.92c49.813,36.474,111.219,58.056,177.68,58.056
		c66.484,0,127.891-21.582,177.711-58.056c-25.742-5.2-49.477-15.894-69.883-30.92c21.82-64.831,33.922-134.117,33.922-206.296
		V335.736z"/>
	<path fill="none" stroke="#373431" stroke-width="12" stroke-linecap="round" stroke-linejoin="round" stroke-miterlimit="10" d="
		M376.469,354.327h26.578H376.469z"/>
	<path fill="none" stroke="#373431" stroke-width="12" stroke-linecap="round" stroke-linejoin="round" stroke-miterlimit="10" d="
		M305.609,354.327h26.578H305.609z"/>
	<path fill="none" stroke="#373431" stroke-width="12" stroke-linecap="round" stroke-linejoin="round" stroke-miterlimit="10" d="
		M265.758,336.566c2.523,12.744,3.711,25.438,8.844,37.89c44.023,44.019,115.406,44.019,159.445,0
		c5.156-12.451,6.336-25.146,8.867-37.89C383.844,312.116,320.469,313.898,265.758,336.566z"/>
	<path fill="none" stroke="#373431" stroke-width="12" stroke-linecap="round" stroke-linejoin="round" stroke-miterlimit="10" d="
		M281.929,573.61c48.266,20.02,100.063,18.555,144.773,0.024C381.992,592.165,330.195,593.63,281.929,573.61z"/>
</g>
</svg>
