<svg xmlns="http://www.w3.org/2000/svg" xmlns:xlink="http://www.w3.org/1999/xlink" width="512" height="512" viewBox="0 0 512 512">
  <defs>
    <clipPath id="clip-アートボード_1">
      <rect width="512" height="512"/>
    </clipPath>
  </defs>
  <g id="アートボード_1" data-name="アートボード – 1" clip-path="url(#clip-アートボード_1)">
    <g id="グループ_1" data-name="グループ 1" transform="translate(54 -29)">
      <g id="パス_4" data-name="パス 4" transform="translate(210.942 695.782) rotate(-135)" fill="none">
        <path d="M318.839,0,453.684,428.841,0,318.839Z" stroke="none"/>
        <path d="M 293.1236267089844 104.9109802246094 L 110.1187438964844 287.9158630371094 L 370.5210876464844 351.0541687011719 L 293.1236267089844 104.9109802246094 M 318.8385925292969 3.0517578125e-05 L 453.68359375 428.8406982421875 L 3.0517578125e-05 318.8385925292969 L 318.8385925292969 3.0517578125e-05 Z" stroke="none" fill="#888"/>
      </g>
      <g id="パス_5" data-name="パス 5" transform="translate(208.107 595.075) rotate(-135)" fill="none">
        <path d="M267.385,0,380.468,359.634,0,267.385,221.056,185.16Z" stroke="none"/>
        <path d="M 273.5180969238281 206.1973114013672 L 268.2218627929688 227.3641357421875 L 240.5786590576172 237.6464691162109 L 191.0249938964844 256.0786437988281 L 297.3057250976562 281.8479309082031 L 273.5180969238281 206.1973114013672 M 267.3845520019531 3.0517578125e-05 L 380.4682006835938 359.6344604492188 L 0 267.3844604492188 L 221.0555419921875 185.1598052978516 L 267.3845520019531 3.0517578125e-05 Z" stroke="none" fill="#888"/>
      </g>
    </g>
  </g>
</svg>
